<svg preserveAspectRatio="none" width="100%" height="100%" overflow="visible" style="display: block;" viewBox="0 0 51.386 51.5" fill="none" xmlns="http://www.w3.org/2000/svg">
<path id="Vector" d="M43.414 34.4716L32.1492 45.7833C24.4083 53.5565 11.8725 53.4405 4.65151 45.2032C-1.81853 37.8361 -1.52969 26.6405 5.46027 19.6214L17.0139 8.0197C17.3028 7.72965 17.7649 7.72965 17.996 8.0197L24.2927 14.2266C24.5816 14.5167 24.5816 14.9807 24.2927 15.2128L12.9701 26.5825C9.79288 29.7729 9.44628 35.0517 12.508 38.4162C15.743 41.9548 21.231 42.0708 24.6393 38.7063L36.193 27.1045C36.4818 26.8145 36.9439 26.8145 37.175 27.1045L43.414 33.3695C43.7028 33.7175 43.7028 34.1816 43.414 34.4716ZM24.8704 0.130519L20.1912 4.82922C20.0179 5.00325 20.0179 5.29329 20.1912 5.52533L26.7767 12.1383C26.95 12.3123 27.2389 12.3123 27.47 12.1383L32.1492 7.43961C32.3225 7.26558 32.3225 6.97554 32.1492 6.74351L25.5636 0.130519C25.3325 -0.0435065 25.0437 -0.0435065 24.8704 0.130519ZM51.2127 25.9444L44.6271 19.3314C44.4538 19.1574 44.165 19.1574 43.9339 19.3314L39.2547 24.0301C39.0814 24.2041 39.0814 24.4942 39.2547 24.7262L45.8403 31.3392C46.0136 31.5132 46.3024 31.5132 46.5335 31.3392L51.2127 26.6405C51.4438 26.4084 51.4438 26.1184 51.2127 25.9444Z" fill="var(--fill-0, #FF5D6C)"/>
</svg>
