<svg preserveAspectRatio="none" width="100%" height="100%" overflow="visible" style="display: block;" viewBox="0 0 52.9893 57.1581" fill="none" xmlns="http://www.w3.org/2000/svg">
<g id="Group 7">
<path id="Vector" d="M48.4689 2.64896C45.3494 -0.773549 39.9769 -0.889566 36.7419 2.35892C35.3555 3.75113 34.5467 5.5494 34.3734 7.34766C34.3157 8.04377 33.5647 8.44983 32.987 8.10178C31.0806 7.11563 29.0587 6.36152 27.0369 5.95545C26.6325 5.89745 26.2281 6.07147 26.1126 6.47753L25.997 6.65156C25.766 7.11563 25.997 7.75372 26.4592 7.92775L29.232 9.02991C30.5607 9.55199 31.5428 10.7702 31.7739 12.1624L32.5826 17.0931C32.6404 17.5572 33.0448 17.9052 33.4491 17.9632L38.3594 18.7754C39.7459 19.0074 40.959 19.9936 41.4789 21.3278L42.5765 24.1122C42.7498 24.6342 43.3853 24.8083 43.8474 24.5762L44.0207 24.5182C44.3673 24.3442 44.5984 23.9962 44.5406 23.5901C44.1362 21.5018 43.443 19.5295 42.4032 17.6152C42.0566 16.9771 42.461 16.281 43.1542 16.223C45.1761 16.049 47.1402 15.0628 48.5844 13.3226C51.2995 10.3061 51.184 5.6074 48.4689 2.64896ZM45.2338 10.8862C43.7319 12.3944 41.2478 12.3944 39.6881 10.8862C38.1861 9.37797 38.1861 6.88359 39.6881 5.31736C41.1901 3.80914 43.6741 3.80914 45.2338 5.31736C46.7936 6.88359 46.7936 9.37797 45.2338 10.8862ZM44.5984 27.3607L43.6741 27.2446C42.2299 27.0706 40.959 26.0845 40.4391 24.6923L39.3415 21.9078C39.2259 21.5598 38.8793 21.2697 38.5327 21.2697L33.6224 20.4576C32.7559 20.2836 32.0049 19.8775 31.4272 19.2974C30.8496 18.7174 30.4452 17.9632 30.2719 17.0931L29.4631 12.1044C29.4054 11.7563 29.1743 11.4083 28.7699 11.2923L25.997 10.1901C24.6106 9.66801 23.6285 8.39182 23.4552 6.9416L23.3397 6.01346C23.2819 5.78143 23.1086 5.6074 22.8775 5.6074C16.6386 5.43338 10.3996 7.92775 5.77815 12.9745C-1.78948 21.3858 -1.96279 34.4377 5.48931 42.965C11.2661 49.636 20.1328 52.0724 27.9893 50.1581V40.6581C27.9893 39.7299 28.5072 39.1581 29.4893 39.1581L35.0089 39.1111V33.9156C35.0089 32.9875 35.7599 32.1754 36.7419 32.1754H44.7139C45.0028 30.7252 45.1183 29.2749 45.0605 27.8247C45.0605 27.5927 44.8872 27.3607 44.5984 27.3607Z" fill="var(--fill-0, #00BFFA)"/>
<path id="Vector_2" d="M52.9893 50.1581H45.9894L45.9892 57.1581H37.9893V50.1581H30.9893V42.1581H37.9893V35.1581L45.9894 35.1581V42.1581H52.9893V50.1581Z" fill="var(--fill-0, #FFFBE6)"/>
</g>
</svg>
