<svg preserveAspectRatio="none" width="100%" height="100%" overflow="visible" style="display: block;" viewBox="0 0 42 51" fill="none" xmlns="http://www.w3.org/2000/svg">
<path id="Vector" d="M39.5869 23.468H38.2079V17.1717C38.2079 12.4209 36.2544 8.12795 33.1518 5.03704C29.9918 1.94613 25.6826 0 20.9713 0C11.4336 0 3.73461 7.67003 3.73461 17.1717V23.468H2.35568C1.09166 23.468 0 24.4983 0 25.8148V48.6532C0 49.9125 1.0342 51 2.35568 51H39.6443C40.9658 51 42 49.9697 42 48.6532V25.8148C41.9425 24.4983 40.8509 23.468 39.5869 23.468ZM20.8564 45.7912C16.0876 45.7912 12.238 41.9562 12.238 37.2054C12.238 32.4545 16.0876 28.6195 20.8564 28.6195C25.6252 28.6195 29.4747 32.4545 29.4747 37.2054C29.4747 41.9562 25.6252 45.7912 20.8564 45.7912ZM29.5896 23.468H12.3529V16.0269C12.3529 11.2761 16.2025 7.44108 20.9713 7.44108C25.7401 7.44108 29.5896 11.2761 29.5896 16.0269V23.468ZM24.3037 34.9158C24.3037 36.1751 23.6142 37.3199 22.58 37.8923V42.9293H19.1327V37.8923C18.0985 37.3199 17.409 36.1751 17.409 34.9158C17.409 33.0269 18.9603 31.4815 20.8564 31.4815C22.7524 31.4815 24.3037 33.0269 24.3037 34.9158ZM24.3037 34.9158C24.3037 36.1751 23.6142 37.3199 22.58 37.8923V42.9293H19.1327V37.8923C18.0985 37.3199 17.409 36.1751 17.409 34.9158C17.409 33.0269 18.9603 31.4815 20.8564 31.4815C22.7524 31.4815 24.3037 33.0269 24.3037 34.9158ZM24.3037 34.9158C24.3037 36.1751 23.6142 37.3199 22.58 37.8923V42.9293H19.1327V37.8923C18.0985 37.3199 17.409 36.1751 17.409 34.9158C17.409 33.0269 18.9603 31.4815 20.8564 31.4815C22.7524 31.4815 24.3037 33.0269 24.3037 34.9158Z" fill="var(--fill-0, #FFE460)"/>
</svg>
