<svg preserveAspectRatio="none" width="100%" height="100%" overflow="visible" style="display: block;" viewBox="0 0 52 52" fill="none" xmlns="http://www.w3.org/2000/svg">
<path id="Vector" d="M44.4763 16.6033C46.5574 16.4252 48.5789 15.4159 50.0654 13.6942C52.741 10.5477 52.6221 5.73885 49.8276 2.71106C46.6168 -0.791682 41.0872 -0.910418 37.7575 2.41421C36.3305 3.83906 35.4981 5.67948 35.3197 7.5199C35.2603 8.23232 34.4873 8.6479 33.8332 8.29169C31.8711 7.28243 29.7901 6.57 27.709 6.09506C27.2928 6.03569 26.8766 6.21379 26.7577 6.62937V6.86685C26.5199 7.34179 26.7577 7.99485 27.2334 8.17295L30.0874 9.30095C31.4549 9.83527 32.4657 11.082 32.7035 12.5068L33.536 17.5532C33.5954 18.0281 34.0116 18.3843 34.4278 18.4437L39.4818 19.2749C40.9088 19.5123 42.1574 20.5216 42.6926 21.8871L43.8223 24.7367C44.0006 25.2117 44.6547 25.4492 45.1304 25.2117L45.3087 25.1523C45.6655 24.9742 45.9033 24.5586 45.8439 24.2024C45.4276 22.0652 44.7141 20.0466 43.6439 18.0875C43.4061 17.4344 43.7628 16.6626 44.4763 16.6033ZM40.9088 11.1414C39.3629 9.59779 39.3629 7.04495 40.9088 5.442C42.4547 3.89842 45.0114 3.89842 46.6168 5.442C48.1627 6.98558 48.1627 9.53843 46.6168 11.1414C45.0114 12.7443 42.4547 12.7443 40.9088 11.1414ZM39.6007 45.2189C30.1468 54.6584 14.5687 54.2429 5.64993 43.9721C-2.02022 35.245 -1.84184 21.8871 5.94722 13.2786C10.6444 8.11358 17.066 5.56074 23.4875 5.67948C23.7253 5.67948 23.9631 5.85758 23.9631 6.09506L24.0821 7.04495C24.2604 8.52916 25.2712 9.83527 26.6982 10.3696L29.5522 11.4976C29.909 11.6163 30.2063 11.9725 30.2657 12.3287L31.0982 17.3751C31.2765 18.2656 31.6927 19.0374 32.2873 19.6311C32.8819 20.2247 33.6549 20.6403 34.5467 20.8184L39.6007 21.6496C39.9575 21.709 40.3142 21.9464 40.4331 22.3026L41.5628 25.1523C42.098 26.5772 43.4061 27.5864 44.8925 27.7645L45.8439 27.8833C46.0817 27.9426 46.2601 28.1207 46.2601 28.3582C46.4384 34.5325 44.179 40.5881 39.6007 45.2189Z" fill="var(--fill-0, #00BFFA)"/>
</svg>
