<svg preserveAspectRatio="none" width="100%" height="100%" overflow="visible" style="display: block;" viewBox="0 0 47.172 52.9039" fill="none" xmlns="http://www.w3.org/2000/svg">
<path id="Vector" d="M46.4911 36.7775L43.8915 35.2693L46.1445 34.0511C46.8377 33.703 47.0688 32.8909 46.7222 32.1948L45.8556 30.5126C45.509 29.8164 44.7003 29.5844 44.007 29.9325L39.1545 32.5429L35.5729 30.5126V22.3333L39.1545 20.303L44.007 22.9134C44.7003 23.2615 45.509 23.0294 45.8556 22.3333L46.7222 20.6511C47.0688 19.955 46.8377 19.1429 46.1445 18.7948L43.8915 17.5766L46.4911 16.0684C47.1265 15.7203 47.3576 14.8502 47.011 14.2121L46.0867 12.5879C45.7401 11.9498 44.8736 11.7177 44.2381 12.0658L41.6386 13.574L41.7541 11.0216C41.8119 10.2675 41.2342 9.62944 40.4254 9.57143L38.5191 9.45541C37.7681 9.3974 37.1326 9.97749 37.0749 10.7896L36.786 16.3004L33.2622 18.3307L25.9834 14.0961V9.91948L30.6048 6.96104C31.2403 6.55498 31.4136 5.68485 31.0092 5.04675L30.0271 3.42251C29.6228 2.78442 28.7562 2.61039 28.1208 3.01645L25.9256 4.40866V1.39221C25.9256 0.638095 25.2901 0 24.5392 0H22.6328C21.8818 0 21.2464 0.638095 21.2464 1.39221V4.40866L19.0512 3.01645C18.4157 2.61039 17.5492 2.78442 17.1448 3.42251L16.1628 5.04675C15.7584 5.68485 15.9317 6.55498 16.5672 6.96104L21.1886 9.91948V14.0381L13.9098 18.2727L10.3859 16.2424L10.0971 10.7316C10.0393 9.97749 9.40389 9.3974 8.6529 9.3974L6.74656 9.51342C5.99557 9.57143 5.4179 10.2095 5.4179 10.9636L5.53344 13.516L2.93387 12.0078C2.29842 11.6597 1.43189 11.8918 1.08528 12.5299L0.161006 14.1541C-0.185603 14.7922 0.0454484 15.6623 0.680899 16.0104L3.28047 17.5186L1.02753 18.7368C0.334311 19.0849 0.103238 19.897 0.449847 20.5931L1.31637 22.2753C1.66298 22.9714 2.47171 23.2035 3.16492 22.8554L8.01747 20.245L11.5991 22.3333V30.5126L8.01747 32.6009L3.16492 29.9905C2.47171 29.6424 1.66298 29.8745 1.31637 30.5706L0.449847 32.2528C0.103238 32.9489 0.334311 33.761 1.02753 34.1091L3.28047 35.3273L0.680899 36.8355C0.0454484 37.1836 -0.185603 38.0537 0.161006 38.6918L1.08528 40.316C1.43189 40.9541 2.29842 41.1861 2.93387 40.8381L5.53344 39.3299L5.4179 41.8822C5.36013 42.6364 5.9378 43.2745 6.74656 43.3325L8.6529 43.4485C9.40389 43.5065 10.0393 42.9264 10.0971 42.1143L10.3859 36.6035L13.9098 34.5732L21.1886 38.8078V42.9844L16.5672 45.9429C15.9317 46.3489 15.7584 47.219 16.1628 47.8571L17.1448 49.4814C17.5492 50.1195 18.4157 50.2935 19.0512 49.8874L21.2464 48.4952V51.5117C21.2464 52.2658 21.8818 52.9039 22.6328 52.9039H24.5392C25.2901 52.9039 25.9256 52.2658 25.9256 51.5117V48.4952L28.1208 49.8874C28.7562 50.2935 29.6228 50.1195 30.0271 49.4814L31.0092 47.8571C31.4136 47.219 31.2403 46.3489 30.6048 45.9429L25.9834 42.9844V38.8658L33.2622 34.6312L36.786 36.6615L37.0749 42.1723C37.1326 42.9264 37.7681 43.5065 38.5191 43.5065L40.4254 43.3905C41.1764 43.3325 41.7541 42.6944 41.7541 41.9403L41.6386 39.3879L44.2381 40.8961C44.8736 41.2442 45.7401 41.0121 46.0867 40.374L47.011 38.7498C47.3576 37.9957 47.1265 37.1836 46.4911 36.7775ZM31.4713 28.2502L28.3519 26.4519L31.4713 24.6537V28.2502ZM29.2184 20.5931L25.9834 22.4493V18.7368L29.2184 20.5931ZM21.3619 18.7368V22.4493L18.1269 20.5931L21.3619 18.7368ZM15.8739 24.6537L18.9934 26.4519L15.8739 28.2502V24.6537ZM18.1269 32.2528L21.3619 30.3965V34.1091L18.1269 32.2528ZM25.9834 34.1671V30.4545L29.2184 32.3108L25.9834 34.1671Z" fill="var(--fill-0, #BDE7FA)"/>
</svg>
