<svg preserveAspectRatio="none" width="100%" height="100%" overflow="visible" style="display: block;" viewBox="0 0 44.7996 60.6945" fill="none" xmlns="http://www.w3.org/2000/svg">
<g id="Group">
<path id="Vector" d="M20.3997 0.1C20.4997 0.1 20.6498 0.15 20.7498 0.15C22.4998 0.5 23.1997 1.25 23.2997 3C23.3497 4.1 23.5997 5.15 23.7497 6.2C23.8997 7.2 24.0497 8.15 24.1997 9.15C24.4497 9.05 24.4497 8.9 24.4997 8.75C24.9997 7.15 25.5497 5.55 26.0497 3.9C26.1497 3.6 26.1997 3.3 26.5497 3.25C26.8997 3.2 27.1497 3.4 27.3497 3.65C27.6497 4.05 27.8997 4.5 28.1497 4.9C28.5997 5.55 28.5997 6.25 28.2497 6.95C27.4997 8.45 26.7997 10 26.0497 11.45C25.5997 12.3 25.6997 12.95 26.2997 13.65C28.6497 16.5 28.7997 19.75 26.8497 22.8C26.3997 23.5 25.8997 24.2 25.4497 24.95C25.2497 25.3 24.9997 25.7 25.1497 26.1C25.5497 27.05 25.8997 28.1 26.2497 29.05C26.2997 28.8 26.2997 28.6 26.3497 28.35C26.3497 28.1 26.3497 27.85 26.5997 27.75C26.8997 27.6 27.0497 27.85 27.2497 28C27.7497 28.45 28.1997 28.85 28.6497 29.3C29.1497 29.8 29.3997 30.4 29.1997 31.1C28.6997 33 28.1497 34.85 27.7997 36.75C27.7497 37.1 27.5997 37.45 27.2497 37.6C26.3497 38 25.3997 38.35 24.3997 38.65C24.2497 38.7 24.0497 38.7 23.9497 38.55C23.7997 38.35 23.8997 38.2 23.9997 38.05C24.1497 37.8 24.2997 37.55 24.5497 37.2C23.6497 37.5 23.0998 38.1 22.4498 38.5C21.9498 38.8 21.8497 39.15 21.8997 39.7C22.0997 41 22.3497 42.3 22.3997 43.6C22.4997 46.8 20.7497 49.55 17.7997 50.75C16.8997 51.1 16.6998 51.45 16.6998 52.45C16.6998 54.2 16.6998 55.95 16.7498 57.65C16.7498 58.4 16.4498 58.95 15.8998 59.35C15.4498 59.7 14.9498 59.95 14.4498 60.25C14.1998 60.4 13.8998 60.45 13.5998 60.25C13.2998 60.05 13.3498 59.75 13.3998 59.45C13.6498 57.75 13.8998 56.1 14.0998 54.4C14.0998 54.25 14.2498 54.05 13.9498 53.9C12.8998 55.75 11.4498 57.35 10.3998 59.2C9.64975 60.5 8.79975 60.9 7.29975 60.6C6.54975 60.45 6.34975 60.1 6.69975 59.45C7.09975 58.7 7.54975 58 7.99975 57.25C9.29975 55.1 10.5998 52.9 11.1498 50.4C11.7998 47.5 12.4998 44.65 13.0998 41.75C13.6498 39.15 13.9498 36.55 13.4498 33.9C13.3498 33.45 13.5498 33.1 13.7998 32.75C14.8998 31.35 15.1998 29.8 14.8998 28.1C14.7998 27.45 14.9498 26.95 15.2998 26.4C16.3998 24.8 17.1498 23.05 17.6998 21.15C18.4998 18.35 18.9498 15.5 19.6998 12.75C20.5498 9.65 20.6498 6.45 20.2498 3.3C20.0998 2.2 19.8497 1.1 20.1497 0C20.2497 0.2 20.2997 0.15 20.3997 0.1ZM14.2498 49.3C15.0998 50 16.5498 49.95 17.6998 49.2C18.9498 48.4 19.4498 47.3 19.0998 46.15C18.9998 45.75 18.9498 45.25 18.3498 45.35C17.7498 45.4 17.3498 45.75 17.2498 46.35C17.1998 46.55 17.2498 46.7 17.2498 46.9C17.2998 48.1 16.7498 48.8 15.7498 48.9C14.7498 49 14.0998 48.45 13.8498 47.3C13.8498 47.2 13.7998 47.1 13.7498 46.95C13.3498 47.8 13.5498 48.7 14.2498 49.3ZM21.4498 14.85C22.0498 14.3 22.7497 14.2 23.4497 14.6C24.1497 15 24.4497 15.7 24.2497 16.45C24.1997 16.7 24.0497 16.9 23.9497 17.15C23.8997 17.3 23.7997 17.45 23.7497 17.6C23.5997 18.2 23.8497 18.65 24.2997 18.95C24.7497 19.25 25.0497 18.8 25.3497 18.5C26.3997 17.35 25.9497 15.1 24.4997 14.1C23.9997 13.75 23.4497 13.55 22.8497 13.55C21.6997 13.55 20.9998 14.15 20.8498 15.5C21.1498 15.25 21.2998 15.05 21.4498 14.85Z" fill="var(--fill-0, #FDFFFE)"/>
<path id="Vector_2" d="M13.7 28.05C12.85 26.8 11.5 26.3 10.05 26C9.45 25.9 8.85 25.9 8.3 26.1C8.1 26.15 7.9 26.25 7.9 26.5C7.9 26.75 8.1 26.8 8.3 26.8C9 26.95 9.55 27.35 10 27.85C10.3 28.15 10.65 28.45 11.05 28.75C11.8 29.25 11.95 29.75 11.65 30.45C11.3 31.2 10.45 31.55 9.7 31.25C9.2 31.05 8.95 30.75 8.9 30.2C8.7 28.4 8.05 27.7 6.35 27.2C4.6 26.7 2.85 26.4 1.05 26.85C0.85 26.9 0.7 26.95 0.5 27C0.3 27.05 0 27.1 0 27.3C0 27.6 0.3 27.6 0.45 27.65C1.4 27.95 2.35 28.25 3.35 28.5C3.95 28.65 4.45 28.9 5 29.2C6.2 29.85 6.8 30.85 6.6 32.25C6.55 32.55 6.5 32.9 6.65 33.2C6.9 33.8 7.85 33.9 8.2 33.3C8.45 32.9 8.7 32.7 9.2 32.8C9.7 32.9 9.9 33.2 9.95 33.7C10 34.3 10.55 34.4 11 34.5C11.45 34.6 11.8 34.4 11.95 34C12.2 33.25 12.75 32.7 13.2 32.05C14.05 30.8 14.45 29.5 13.7 28.05Z" fill="var(--fill-0, #FDFFFE)"/>
<path id="Vector_3" d="M31.3999 36.75C32.3999 35.8 33.5999 35.85 34.7999 36.15C37.1999 36.75 39.5999 37.35 41.9999 37.95C42.7999 38.15 43.5999 38.3 44.3999 37.85C44.8499 37.6 44.8999 37.3 44.6499 36.9C44.1999 36.2 43.4999 35.85 42.7499 35.65C40.4999 35.05 38.1499 34.75 35.8499 34.35C35.3999 34.3 34.9499 34.2 34.4999 34.15C33.5999 34.05 32.8499 33.7 32.3499 32.85C31.9499 32.2 31.3499 31.65 30.6499 31.3C30.0499 31 29.6999 31.1 29.4499 31.75C28.8999 33.15 28.3999 34.55 28.1999 36.05C28.0499 37.2 28.4499 37.6 29.5999 37.35C30.0999 37.25 30.5499 37.05 31.0499 36.95C31.1999 36.85 31.2999 36.8 31.3999 36.75Z" fill="var(--fill-0, #FDFFFE)"/>
<path id="Vector_4" d="M20.1996 56.2C21.6496 55.35 21.7496 54.85 20.9496 53.65C20.5496 53.05 20.1496 52.5 19.6996 51.95C19.3496 51.5 18.8996 51.45 18.3996 51.7C17.8996 51.95 17.4996 52.3 17.5996 52.9C17.8496 54.05 18.3496 55.15 18.8496 56.25C18.9996 56.55 19.2996 56.6 19.5996 56.5C19.8996 56.4 20.1496 56.25 20.1996 56.2Z" fill="var(--fill-0, #FDFFFE)"/>
<path id="Vector_5" d="M29.5498 12.9C29.9498 12.65 30.3998 12.45 30.7998 12.15C31.3498 11.8 31.4498 11.3 31.1498 10.7C31.0998 10.65 31.0998 10.6 31.0498 10.5C30.1998 8.95001 29.8498 8.90001 28.5998 10.05C28.0498 10.55 27.5498 11.05 27.0498 11.6C26.5998 12.1 26.5998 12.65 27.0998 13.2C27.4998 13.7 27.9998 13.8 28.5498 13.45C28.8998 13.3 29.2498 13.1 29.5498 12.9Z" fill="var(--fill-0, #FDFFFE)"/>
<path id="Vector_6" d="M40.6004 39.15C40.7504 39.05 41.1004 39.05 41.1004 38.8C41.1004 38.55 40.7504 38.55 40.5504 38.5C38.4504 37.75 36.3004 37.05 34.2004 36.35C34.0504 36.3 33.9004 36.25 33.7504 36.25C33.5504 36.25 33.3504 36.3 33.2504 36.5C33.1504 36.75 33.3004 36.9 33.5004 37C33.9004 37.25 34.3504 37.5 34.7504 37.75C35.4004 38.15 36.1004 38.5 36.7504 38.95C38.3004 39.95 38.8504 40 40.6004 39.15Z" fill="var(--fill-0, #FDFFFE)"/>
<path id="Vector_7" d="M42.3503 34.2C41.5503 32.85 40.3503 32.3 38.8503 32.6C37.7003 32.85 36.5003 32.95 35.3003 33C35.1003 33 34.9003 33.05 34.7003 33.05C34.5003 33.1 34.2003 33.15 34.2503 33.45C34.3003 33.7 34.5003 33.75 34.7003 33.75C36.0503 33.95 37.4003 34.15 38.7503 34.3C39.8003 34.45 40.8503 34.6 41.8503 34.7C42.0503 34.7 42.2503 34.75 42.3503 34.6C42.5003 34.5 42.4503 34.35 42.3503 34.2Z" fill="var(--fill-0, #FDFFFE)"/>
<path id="Vector_8" d="M20.4495 51.2C20.8995 51.85 21.4995 52.45 22.1495 53C22.5495 53.35 22.8495 53.25 23.1495 52.9C23.6495 52.3 23.5995 51.3 22.9995 50.8C22.5495 50.45 22.0995 50.1 21.5995 49.8C21.1495 49.5 20.7995 49.8 20.4995 50.15C20.1995 50.4 20.0995 50.75 20.4495 51.2Z" fill="var(--fill-0, #FDFFFE)"/>
<path id="Vector_9" d="M28.4498 15.95C28.5498 16.2 28.7498 16.35 29.0498 16.35C29.7498 16.3 30.4498 16.25 31.0998 15.95C31.5498 15.75 31.7998 15.35 31.8998 14.9C32.0998 13.95 31.6998 13.5 30.7498 13.75C30.1498 13.9 29.5498 14.15 28.9498 14.45C28.1998 14.85 28.0498 15.25 28.4498 15.95Z" fill="var(--fill-0, #FDFFFE)"/>
<path id="Vector_10" d="M22.3495 48.85C22.7995 49.25 23.3495 49.65 23.9495 49.85C24.2995 50 24.5495 49.8 24.6495 49.5C24.7995 49.05 25.0995 48.6 24.6995 48.15C24.3495 47.8 23.8995 47.55 23.4495 47.35C22.9995 47.15 22.6995 47.25 22.4995 47.6C22.2495 48 21.9995 48.35 22.3495 48.85Z" fill="var(--fill-0, #FDFFFE)"/>
<path id="Vector_11" d="M31.4504 19.05C31.7504 18.7 31.9004 18.25 31.7504 17.75C31.6504 17.25 31.2004 17.3 30.8004 17.3C30.5004 17.35 30.2004 17.35 29.9004 17.45C29.0004 17.6 28.7004 18.25 29.1004 19.05C29.2004 19.2 29.3004 19.3 29.4504 19.35C29.8004 19.4 31.0504 19.25 31.4504 19.05Z" fill="var(--fill-0, #FDFFFE)"/>
</g>
</svg>
