<svg preserveAspectRatio="none" width="100%" height="100%" overflow="visible" style="display: block;" viewBox="0 0 46.1162 47.5561" fill="none" xmlns="http://www.w3.org/2000/svg">
<g id="Group">
<path id="Vector" d="M45.1038 22.5497C43.7038 22.4997 42.3538 22.4497 40.9538 22.3997C40.0538 22.3497 39.7038 22.0997 39.6038 21.1497C39.5038 19.8997 39.1038 18.6997 38.4038 17.6497C37.5538 16.2997 36.8038 14.8497 35.4538 13.9497C33.8038 12.7997 31.9538 12.2497 29.8538 12.5497C29.5038 12.5997 29.1537 12.5497 28.8037 12.5497C28.8037 12.4997 28.8037 12.3997 28.8037 12.3497C29.5037 12.2497 30.2538 12.0997 30.9538 11.9997C32.5538 11.7497 34.0038 11.8497 35.3538 12.9497C36.0538 13.5497 36.5538 13.2997 36.8038 12.3997C36.9538 11.8497 37.2538 11.3497 37.4538 10.8497C37.5538 10.5997 37.7038 10.1497 37.6038 10.0497C36.8038 9.4997 36.9538 8.6497 36.8038 7.8497C36.5038 6.1497 35.5038 5.0497 33.8538 4.5997C32.3038 4.1997 30.9537 4.5497 30.0537 5.8497C29.5537 6.5497 29.2537 7.3997 29.0537 8.2497C28.7037 9.6497 28.7538 9.6497 27.3538 9.6497C27.2538 9.6497 27.1537 9.6497 27.0537 9.6497C26.2537 9.5997 26.0537 9.3997 26.0537 8.6497C26.0537 6.8997 25.1537 5.6997 23.7537 4.8497C22.5537 4.0997 21.2538 4.0997 20.1038 4.9497C18.8038 5.8997 18.0037 7.0997 17.9537 8.7997C17.9537 9.3997 18.0538 10.0997 17.4537 10.5997C16.8037 11.1497 16.8537 11.3997 17.3037 12.0997C17.5537 12.4997 17.8537 13.0997 17.8037 13.5497C17.6537 14.5497 17.3037 15.4997 17.0037 16.4497C16.5537 17.7497 15.7037 18.9497 15.9537 20.3997C16.1537 21.7497 16.3037 23.0997 16.5037 24.4497C16.6037 25.2497 16.7038 26.0997 16.8538 26.8997C16.9038 27.1497 17.1538 27.3497 17.3538 27.5497C17.5038 27.3497 17.7037 27.1497 17.8037 26.9497C17.9537 26.4997 18.0037 26.0497 18.2037 25.5997C18.5037 24.9997 18.9037 24.4997 19.3037 23.8997C19.0537 25.2997 18.7537 26.5497 18.5537 27.8497C18.4537 28.2997 18.4537 28.7497 18.3037 29.1997C18.2037 29.5997 17.6537 30.0997 18.1537 30.4497C18.4537 30.6497 19.0038 30.5497 19.4538 30.4997C19.8038 30.4497 20.1038 30.3497 20.4538 30.2497C20.7538 30.1997 21.1038 30.1497 21.4538 30.0997C21.1538 30.3997 20.8037 30.5997 20.5037 30.7997C20.0037 31.0997 19.6537 31.4997 19.6537 32.1497C19.7037 32.6997 19.7537 33.1997 19.8037 33.7497C20.0037 34.9997 20.1038 35.0997 21.3538 35.2997C21.5538 35.3497 21.7037 35.3997 22.0037 35.4497C21.2037 35.7497 20.3537 36.0497 20.5037 36.9497C20.7037 38.0997 20.4038 39.5997 22.2038 40.0497C21.2538 40.3497 21.2538 40.9997 21.3538 41.6997C21.4038 42.0997 21.4538 42.5497 21.6038 42.8997C21.7038 43.1497 21.9038 43.4997 22.1038 43.4997C22.3038 43.5497 22.7037 43.2997 22.8037 43.0997C23.2537 42.1497 23.5037 41.1497 23.0037 40.3497C23.3037 39.6997 23.6037 39.1497 23.7537 38.5997C23.9037 38.0497 24.1038 37.3997 23.9538 36.8497C23.8538 36.3497 23.3537 35.8997 23.0537 35.4497C24.3037 35.0997 24.3037 35.0997 24.5537 33.6497C24.5537 33.4997 24.5538 33.3497 24.6038 33.2497C24.8538 31.9497 24.9537 30.7497 23.3037 30.2497C24.1537 30.3497 24.9537 30.6497 25.7537 30.7997C26.0537 30.8497 26.4537 30.7497 26.7537 30.6997C26.7037 30.3497 26.6537 29.9997 26.5537 29.6997C26.4037 29.2497 26.1538 28.8497 26.1038 28.4497C26.0038 27.6497 26.1038 26.8497 26.1038 26.0497C26.1538 26.0497 26.2537 26.0497 26.3037 26.0497C26.4037 26.7497 26.5537 27.4497 26.6537 28.1497C26.7037 28.5497 26.7037 28.9497 26.8037 29.2997C26.8537 29.4497 27.1537 29.6997 27.2537 29.6997C27.4537 29.6997 27.7037 29.4997 27.8037 29.2997C27.9037 29.1497 27.8538 28.9497 27.8538 28.7497C27.9038 26.7997 28.9037 25.3497 30.3037 24.0997C30.9537 23.4997 31.8037 23.3997 32.6537 23.5997C33.9037 23.8997 34.9537 24.5497 35.9037 25.3497C36.2037 25.5997 36.6538 25.7997 37.0538 25.7997C37.8538 25.8497 38.4537 26.1497 39.0037 26.6997C39.4537 27.1497 39.9038 27.5997 40.3538 27.9997C41.8038 29.0997 42.6538 28.9997 43.8538 27.6497C44.8538 26.4997 45.5037 25.1997 46.0037 23.7997C46.3037 22.9497 46.0038 22.5997 45.1038 22.5497Z" fill="var(--fill-0, #FFFDFC)"/>
<path id="Vector_2" d="M14.6539 26.9997C13.7039 26.4997 12.7039 25.9497 11.9539 25.2497C9.05386 22.5497 8.05386 18.9497 7.65386 15.1497C7.65386 14.9997 7.60386 14.7997 7.65386 14.6497C7.70386 14.4497 7.85387 14.2497 7.95387 14.0497C8.10387 14.2497 8.30386 14.3997 8.40386 14.5997C8.55386 15.0497 8.65386 15.5497 8.75386 15.9997C9.45386 18.2997 10.4039 20.4997 12.1539 22.1997C12.8039 22.8497 13.6039 23.2997 14.5539 23.2997C14.9539 23.2997 15.2539 23.1497 15.4039 22.6997C15.7039 21.6497 15.2039 20.3497 14.2539 19.7997C11.2039 18.1497 10.0039 15.3997 9.80386 12.0997C9.70386 10.8497 9.40386 9.79967 8.55386 8.84967C7.95386 8.14967 7.50386 8.09968 6.75386 8.69968C5.85386 9.39968 5.45387 10.2997 5.45387 11.3997C5.45387 12.5997 5.25386 12.6997 4.10386 12.3997C4.05386 12.3997 4.00387 12.3497 3.95387 12.3497C3.15387 12.1497 2.70386 12.3997 2.55386 13.1997C2.45386 13.6997 2.40387 14.1997 2.45387 14.6997C2.55387 15.6997 3.40386 16.1497 4.30386 15.6497C4.45386 15.5497 4.60386 15.4497 4.75386 15.3497C5.20386 15.0997 5.50386 15.2497 5.55386 15.7497C5.60386 16.1497 5.55386 16.5497 5.60386 16.9497C5.80386 18.1997 5.80386 18.1997 4.65386 17.8497C3.60386 17.5497 2.60386 18.1997 3.00386 19.2997C3.10386 19.6497 3.15387 20.0497 3.20387 20.3997C3.55387 21.7497 4.45386 22.0497 5.55386 21.1997C6.10386 20.7997 6.35387 20.8497 6.60387 21.4997C6.65387 21.6497 6.70386 21.7997 6.75386 21.9497C7.25386 23.3997 7.25386 23.3997 5.80386 23.4997C5.00386 23.5497 4.55386 24.1497 4.85386 24.8997C5.05386 25.4997 5.35387 26.0997 5.70387 26.6497C6.25387 27.5997 6.95386 27.6497 7.75386 26.8997C8.75386 25.8997 8.80386 25.8997 9.65386 26.9997C9.70386 27.0497 9.75386 27.0997 9.75386 27.1497C10.3539 27.8997 10.3539 27.8997 9.45387 28.2997C8.40387 28.7497 8.20387 29.5497 8.95387 30.4497C9.25387 30.7997 9.65387 31.1497 9.95387 31.4997C10.3039 31.8497 10.7039 32.2997 11.2539 32.0497C11.9039 31.7997 12.3539 31.3497 12.3039 30.5997C12.3039 29.9497 12.6039 29.8997 13.1539 29.9997C13.9039 30.1497 14.6539 30.2997 15.4039 30.3497C16.1539 30.3997 16.4539 30.0497 16.3039 29.2997C16.1539 28.2997 15.6539 27.4997 14.6539 26.9997Z" fill="var(--fill-0, #FFFDFC)"/>
<path id="Vector_3" d="M35.1537 25.8997C34.1537 24.4497 32.1537 23.8497 30.6537 24.5997C29.4037 25.1997 28.7537 26.2497 28.4537 27.5497C28.3037 28.1497 28.3037 28.7997 28.1537 29.3997C27.8037 30.8497 28.0037 31.0497 29.5037 30.6997C29.8537 30.5997 30.2037 30.4997 30.6037 30.4497C30.7537 30.3997 30.9037 30.4497 31.2037 30.4497C30.2537 31.0497 29.6037 31.5997 29.6537 32.6997C29.7037 33.6497 29.7537 34.5497 31.1537 34.6997C30.1537 35.4497 30.2537 36.2997 30.4537 37.1997C30.5037 37.4997 30.6037 37.8497 30.6537 38.1497C30.7037 38.8997 30.9037 39.4997 31.5537 39.8497C31.4037 40.1997 31.2037 40.5497 31.2037 40.7997C31.3037 41.6497 31.4537 42.4997 31.6537 43.2997C31.8037 43.9497 32.3037 43.9997 32.7037 43.4997C33.4037 42.6497 33.5037 40.7497 32.8537 39.8497C34.1537 39.4997 33.7537 38.2997 34.0037 37.3997C34.3037 36.4497 34.5037 35.4497 33.5037 34.6997C34.5537 34.3997 34.7537 33.9497 34.8537 32.6997C34.9037 31.6997 34.1537 31.2497 33.5537 30.5497C34.3537 30.6497 35.0037 30.7497 35.6037 30.7997C36.2037 30.8497 36.5037 30.4997 36.4537 29.8997C36.3537 28.4497 35.9537 27.0997 35.1537 25.8997Z" fill="var(--fill-0, #FFFDFC)"/>
<path id="Vector_4" d="M9.40376 6.7997C9.70376 6.3997 9.95376 5.9497 10.1538 5.4497C11.2038 3.1497 9.95376 0.8997 7.55376 0.8997C6.65376 0.8997 5.70376 0.949701 5.35376 1.8497C4.80376 3.3997 4.80376 5.0497 5.70376 6.4997C6.60376 7.8497 8.65376 7.9497 9.40376 6.7997Z" fill="var(--fill-0, #FFFDFC)"/>
<path id="Vector_5" d="M12.0542 4.54968C11.7042 4.94968 11.3042 5.24968 11.0042 5.64968C10.8042 5.89968 10.5042 6.34968 10.6042 6.44968C10.7542 6.69968 11.1542 6.84968 11.5042 6.94968C11.6542 6.99968 11.8542 6.94968 12.1042 6.94968C13.0542 7.09968 13.6542 6.69968 14.0042 5.74968C14.0542 5.59968 14.1542 5.39968 14.2542 5.24968C14.7042 4.09968 15.2042 2.99968 15.5542 1.79968C15.6542 1.39968 15.5042 0.799679 15.2542 0.399679C14.9542 -0.0503205 14.3542 -0.100321 13.8042 0.149679C13.0042 0.499679 12.2042 0.79968 11.4542 1.19968C10.6542 1.54968 10.6042 1.79968 10.7542 2.84968C10.8542 3.54968 11.2542 3.79968 11.9042 3.79968C12.0042 3.79968 12.1042 3.84968 12.2542 3.89968C12.3042 3.94968 12.3542 3.94968 12.4042 3.99968C12.3542 4.04968 12.3542 4.14968 12.3042 4.19968C12.1542 4.34968 12.1042 4.49968 12.0542 4.54968Z" fill="var(--fill-0, #FFFDFC)"/>
<path id="Vector_6" d="M3.80402 6.94969C4.15402 6.89969 4.60403 6.69969 4.70403 6.44969C4.80403 6.24969 4.50402 5.79969 4.30402 5.54969C3.90402 5.04969 3.45402 4.64969 2.85402 4.09969C3.20402 4.04969 3.40402 3.99969 3.55402 3.94969C4.45402 3.84969 4.70402 3.59969 4.85402 2.69969C5.00402 1.64969 4.85403 1.29969 4.00402 0.999689C3.25402 0.699689 2.55402 0.449689 1.80402 0.199689C0.754024 -0.200311 -0.245977 0.649689 0.0540235 1.74969C0.454024 3.14969 0.954024 4.54969 1.55402 5.89969C2.00402 6.84969 2.75402 7.19969 3.80402 6.94969Z" fill="var(--fill-0, #FFFDFC)"/>
<path id="Vector_7" d="M23.5041 44.4497C23.1041 44.3497 22.6541 44.3497 22.1541 44.2997C21.7041 44.3497 21.2041 44.3497 20.7541 44.4497C20.6041 44.4997 20.3541 44.9497 20.4041 45.0997C20.7041 45.7997 21.1041 46.4997 21.5041 47.1497C21.8541 47.6497 22.3541 47.6497 22.7041 47.1997C23.1541 46.5997 23.5041 45.9997 23.9041 45.3497C24.1541 44.8997 24.0041 44.5497 23.5041 44.4497Z" fill="var(--fill-0, #FFFDFC)"/>
<path id="Vector_8" d="M33.6537 44.5997C33.2537 44.4997 32.8037 44.5497 32.3537 44.4997C32.3537 44.4997 32.3537 44.4997 32.3537 44.5497C32.0537 44.5497 31.7537 44.5497 31.4537 44.5497C31.4037 44.5497 31.3537 44.5497 31.3037 44.5497C30.6037 44.5997 30.4037 44.9497 30.7037 45.5497C31.0037 46.0497 31.3037 46.5997 31.6537 47.0497C32.1537 47.7497 32.6537 47.6997 33.1037 47.0497C33.4037 46.5497 33.7037 46.0497 34.0037 45.5497C34.3537 45.0497 34.2537 44.6997 33.6537 44.5997Z" fill="var(--fill-0, #FFFDFC)"/>
</g>
</svg>
