<svg preserveAspectRatio="none" width="100%" height="100%" overflow="visible" style="display: block;" viewBox="0 0 51.8997 39.5" fill="none" xmlns="http://www.w3.org/2000/svg">
<g id="Vector">
<path d="M25.8504 0C27.3504 0.55 28.9004 0.85 30.4004 1.25C31.9004 1.65 32.1004 1.9 31.9004 3.45C31.8004 4.1 32.0004 4.75 32.0004 5.4C31.9504 6.3 31.7004 6.6 30.7504 6.6C30.0004 6.6 29.3504 6.35 28.8504 5.8C27.7004 4.5 26.7004 3.1 25.5004 1.85C25.0004 1.35 25.1004 0.85 25.6004 0.1C25.7004 3.7998e-07 25.7504 0 25.8504 0Z" fill="white"/>
<path d="M51.8997 15.85C51.5497 16.65 51.0997 17.35 50.5497 18C49.7497 18.95 48.7997 19 48.0997 18C47.6497 17.35 47.1997 16.7 46.7997 16.05C46.4997 15.55 46.6497 15.1 47.1997 15.1C48.7497 15 50.3497 14.85 51.8997 15.15C51.8997 15.4 51.8997 15.65 51.8997 15.85Z" fill="white"/>
<path d="M37.1005 7.35003C38.8505 7.35003 40.6505 7.35003 42.4005 7.35003C43.0505 7.35003 43.5505 7.60003 43.9505 8.10003C44.7505 9.15003 45.4505 10.25 45.9505 11.5C46.3005 12.35 46.3005 13.15 45.8505 13.9C44.9505 15.25 45.2505 16.45 46.2005 17.65C47.2505 18.9 48.0505 20.3 48.9005 21.7C49.7505 23.15 49.5505 24.65 48.9005 26.1C48.3005 27.5 47.6005 28.8 46.7005 30.05C46.3005 30.6 46.0505 31.2 46.0505 31.9C46.0505 32.8 46.0505 33.7 46.0505 34.6C46.0505 35.25 45.7505 35.6 45.1005 35.6C43.2505 35.6 41.4005 35.6 39.5505 35.6C38.8505 35.6 38.6005 35.3 38.6005 34.5C38.5505 33.45 38.6005 32.4 38.6005 31.35C38.6005 29.15 37.4505 28.05 35.3005 28.05C34.5005 28.05 33.7005 28.05 32.8505 28.05C31.0505 28.1 29.8505 29.15 29.5505 30.9C29.3505 32.1 29.4505 33.25 29.4505 34.45C29.4505 35.35 29.2505 35.55 28.3505 35.55C26.6505 35.55 24.9505 35.55 23.2505 35.55C22.2005 35.55 22.0505 35.35 22.0005 34.3C22.0005 33.65 22.0505 32.95 21.9505 32.3C21.8505 31.05 21.3505 29.95 20.5005 29.05C19.8505 28.3 19.5005 27.4 19.2005 26.45C19.0505 26.05 19.2005 25.7 19.5505 25.45C21.1005 24.25 22.6005 23.05 24.3005 22.05C24.8005 21.75 25.3005 21.75 25.8505 21.8C27.2005 21.85 28.1505 21.35 28.8005 20.15C30.2505 17.6 30.6005 14.8 30.3005 11.95C30.2005 10.8 30.1005 9.70003 30.1005 8.55003C30.1005 7.90003 30.3505 7.50003 31.0505 7.45003C31.4005 7.40003 31.8005 7.35003 32.1505 7.35003C33.7505 7.35003 35.4005 7.40003 37.1005 7.35003Z" fill="white"/>
<path d="M8.75 13.4999C8.65 11.7499 8.95 10.0499 9.5 8.34995C10.05 6.64995 10.6 4.94995 11.2 3.29995C11.55 2.34995 12 2.14995 13 2.34995C14.7 2.74995 16.4 3.14995 18.1 3.54995C19.25 3.79995 19.45 3.99995 19.4 4.74995C19.3 5.64995 18.9 5.99994 17.85 5.99994C14.75 6.04994 12.5 7.84995 11.85 10.8499C11.5 12.4499 11.85 13.8999 12.85 15.1999C13.9 16.5499 14.95 17.8499 15.75 19.3499C16.2 20.1499 16.1 20.3499 15.25 20.6999C14.05 21.1999 12.8 21.6499 11.55 22.1499C10.9 22.3999 10.45 22.1999 10.35 21.5999C10.05 20.0499 9.10001 19.5999 7.60001 19.5499C5.40001 19.4499 3.2 19.1499 1.05 18.8999C1 18.8999 0.900006 18.8999 0.850006 18.8499C0.450006 18.7499 0 18.6999 0 18.1999C0 17.6999 0.350003 17.4999 0.800003 17.3999C1.5 17.2999 2.15001 17.1999 2.85001 17.0499C4.50001 16.7999 6.20001 16.4999 7.85001 16.2499C8.55001 16.1499 8.85001 15.7499 8.85001 15.0499C8.70001 14.5499 8.75 14.0499 8.75 13.4999Z" fill="white"/>
<path d="M28.5504 12.1C28.2504 14.55 27.6504 17 25.8504 18.95C25.7004 19.15 25.5004 19.3 25.2504 19.45C24.2004 20.2 23.7504 20.1 22.9504 19.15C22.5504 18.65 22.1004 18.15 21.7504 17.6C21.2004 16.75 21.2004 16.5 21.8504 15.7C22.5504 14.9 23.0504 14 23.2504 12.95C23.6504 10.4 22.7504 8.45 20.6504 7.05C19.4504 6.25 19.4504 6.25 19.8504 4.85C20.2504 3.65 20.6004 2.4 21.0504 1.2C21.3004 0.399999 21.6504 0.3 22.3504 0.8C23.2004 1.35 23.9004 2.1 24.5504 2.9C26.4504 5.3 27.9504 7.9 28.3504 11.05C28.5004 11.3 28.5004 11.65 28.5504 12.1Z" fill="white"/>
<path d="M21.65 11.65C21.65 13.85 19.7 15.75 17.55 15.7C15.3 15.65 13.45 13.75 13.5 11.5C13.55 9.35 15.5 7.5 17.7 7.5C19.8 7.55 21.7 9.5 21.65 11.65Z" fill="white"/>
<path d="M24.9003 36.05C26.2503 36.05 27.6503 36.05 29.0003 36.05C29.3003 36.05 29.5503 36.15 29.7503 36.4C30.1503 37 30.4503 37.6 30.5003 38.3C30.5003 39 30.2503 39.35 29.5503 39.4C29.1003 39.45 28.6503 39.4 28.2503 39.4C26.2503 39.45 24.2003 39.5 22.2003 39.5C20.8503 39.5 20.5003 39.05 20.9003 37.7C21.0003 37.4 21.1003 37.1 21.2503 36.8C21.4503 36.3 21.8003 36.05 22.3503 36C23.1503 35.9 24.0503 35.85 24.9003 36.05Z" fill="white"/>
<path d="M16.5502 35.5C16.5502 37.1 15.2502 37.95 14.0502 37.2C13.2002 36.7 12.5002 36.75 11.7002 37.05C10.6502 37.4 9.75017 37.1 9.25017 36.3C8.75017 35.55 8.75017 34.55 9.30017 33.8C9.75017 33.2 10.3502 32.95 11.0502 32.95C11.6502 32.95 12.2002 32.85 12.6502 32.45C12.9002 32.25 13.1502 32.25 13.4502 32.25C14.3002 32.35 15.1002 32.65 15.9502 32.9C16.2002 33 16.4002 33.2 16.4002 33.45C16.3502 34.2 16.4502 34.95 16.5502 35.5Z" fill="white"/>
<path d="M42.3995 36C43.4495 36 44.4995 36 45.5495 36C46.0995 36 46.4995 36.2 46.6495 36.75C46.7995 37.15 46.9495 37.6 46.9995 38C47.1995 38.95 46.7995 39.5 45.8495 39.45C43.2995 39.35 40.6995 39.4 38.1495 39.35C37.4995 39.35 37.1995 38.85 37.3495 38.25C37.4495 37.8 37.5995 37.4 37.7495 37C37.9995 36.35 38.4495 36.05 39.1495 36.05C40.1995 36 41.2995 36.05 42.3995 36Z" fill="white"/>
<path d="M35.3502 6.55C34.9002 6.55 34.4502 6.55 34.0502 6.55C33.5002 6.55 33.1502 6.3 33.1502 5.75C33.1002 4.8 33.1002 3.8 33.1502 2.85C33.1502 2.35 33.4002 2.05 33.9502 2.2C34.9502 2.45 35.9502 2.75 36.9502 3C37.4502 3.15 37.7002 3.4 37.7002 3.95C37.7002 4.55 37.7002 5.1 37.7002 5.7C37.7002 6.3 37.4002 6.6 36.8002 6.6C36.3502 6.55 35.8502 6.55 35.3502 6.55Z" fill="white"/>
<path d="M16.9505 23.4C17.0005 23.95 16.7505 24.2 16.4005 24.3C15.2005 24.7 14.0005 25.1 12.7505 25.45C12.2505 25.6 11.9005 25.45 11.7005 24.95C11.6505 24.85 11.6005 24.75 11.5505 24.65C11.0505 23.35 11.1005 23.1 12.4005 22.5C13.3005 22.05 14.2505 21.65 15.2005 21.25C15.9005 20.95 16.3005 21.15 16.5505 21.85C16.6505 22.4 16.8005 22.95 16.9505 23.4Z" fill="white"/>
<path d="M14.2503 28.4C13.6003 28.4 13.1003 28.45 12.8003 27.95C12.1503 27 12.3503 26.4 13.4503 26.05C14.5003 25.75 15.5503 25.45 16.5503 25.1C17.1003 24.95 17.4003 25.15 17.5003 25.7C17.5003 25.8 17.5503 25.95 17.5503 26.05C17.9003 27.85 17.6003 28.2 15.8003 28.25C15.2503 28.25 14.6503 28.35 14.2503 28.4Z" fill="white"/>
<path d="M17.4999 30C17.4499 32 16.9499 32.4 14.9499 31.9C14.7499 31.85 14.4999 31.8 14.2999 31.75C13.1499 31.45 12.7499 30.65 13.1999 29.55C13.2999 29.35 13.4499 29.25 13.6999 29.2C14.6999 29.1 15.6999 29 16.7499 28.95C17.3499 28.95 17.5499 29.25 17.4999 30Z" fill="white"/>
<path d="M38.9498 5.05006C38.9498 4.95006 38.9498 4.80006 38.9498 4.70006C38.9498 3.65006 39.1998 3.50006 40.1998 3.80006C40.8498 4.00006 41.4998 4.15006 41.9498 4.70006C42.5498 5.45006 42.2998 6.30006 41.3498 6.45006C41.0498 6.50006 40.7498 6.50006 40.4498 6.50006C38.9998 6.55006 38.9498 6.50006 38.9498 5.05006Z" fill="white"/>
</g>
</svg>
