<svg preserveAspectRatio="none" width="100%" height="100%" overflow="visible" style="display: block;" viewBox="0 0 60.9538 44.4338" fill="none" xmlns="http://www.w3.org/2000/svg">
<g id="Group">
<path id="Vector" d="M55.4348 21.4373C53.3279 23.5969 50.7996 25.2297 48.3767 26.9153C47.3233 27.7053 46.9019 27.4946 46.6912 26.1778C46.6385 25.9672 46.6385 25.7565 46.5858 25.5458C46.2698 24.1763 46.2698 24.1763 47.534 23.5442C48.9561 22.8068 50.3783 22.0167 51.7477 21.174C53.6439 19.9625 54.6974 18.277 55.0134 16.1174C55.2768 14.4319 55.3294 12.6937 55.5401 11.0082C55.5928 10.7449 55.4875 10.3235 55.8562 10.2708C56.2775 10.1655 56.3829 10.5868 56.4882 10.8502C56.5936 11.1136 56.6989 11.4296 56.7516 11.693C56.9623 14.1686 57.331 16.6442 56.8043 19.1724C56.3302 19.9098 55.9088 20.6473 55.4348 21.4373Z" fill="var(--fill-0, #FFFBF5)"/>
<path id="Vector_2" d="M57.8573 0.210688C57.9627 0.579394 58.068 0.948101 58.226 1.31681C58.5947 2.26491 59.2268 2.73896 60.3329 2.68629C61.0177 2.68629 61.0703 2.79163 60.807 3.37102C60.4383 4.21378 59.7535 4.63516 58.9635 4.95119C58.5947 5.10921 58.3314 4.95119 58.068 4.63516C56.6986 2.94965 54.697 2.89697 53.2222 4.52981C52.7481 5.05654 52.3267 5.16188 51.6947 4.79318C51.168 4.47714 50.5359 4.3718 50.2725 3.73973C49.9565 2.94965 50.2199 2.58094 51.0099 2.63361C51.8527 2.68629 52.4848 2.10689 52.5901 1.15879C52.7481 -0.0526739 52.8535 -0.158018 53.9069 0.474049C54.9604 1.10612 55.9611 1.21146 56.9619 0.316033C57.1199 0.158016 57.3306 0.105345 57.5413 0C57.6993 0.105345 57.8047 0.158016 57.8573 0.210688Z" fill="var(--fill-0, #FFFBF5)"/>
<path id="Vector_3" d="M20.1957 21.1222C20.5117 21.5436 20.8278 21.4383 21.1438 21.3329C21.6178 21.2276 22.0392 20.9115 22.4079 20.5955C22.882 20.2268 23.356 20.1741 23.9354 20.4375C25.937 21.4383 27.9912 22.281 30.2034 22.7551C31.1515 22.9658 32.0996 23.1765 33.0477 23.1765C33.3111 23.1765 33.5745 23.2818 33.8378 22.9658C33.4164 22.7551 32.9424 22.8077 32.521 22.7551C30.7301 22.439 30.1507 21.5963 30.5195 19.8054C30.8882 17.9092 32.7844 16.5397 34.7332 16.8031C36.5768 17.0138 37.9989 18.8047 37.8936 20.7009C37.7882 22.8077 37.7356 22.5444 39.6318 23.3345C40.5272 23.7032 41.4226 24.0719 42.2654 24.4406C42.8448 24.6513 42.8448 24.9146 42.3707 25.2307C41.9493 25.5467 41.4753 25.652 41.0012 25.7047C34.4699 26.6001 28.0965 25.652 21.8285 23.7558C21.1438 23.5452 20.5117 23.2291 19.7743 23.2291C19.5109 23.2291 19.0896 23.2291 18.9842 23.5452C18.8789 23.8612 19.2476 23.9665 19.4583 24.0719C23.198 26.5475 27.4118 28.0223 31.7836 28.8651C34.6279 29.3918 37.5249 29.0757 40.3692 28.6544C42.0547 28.391 43.6875 28.0223 45.373 27.7589C45.6891 27.7063 46.1105 27.4956 46.2685 27.9696C46.3738 28.3383 46.0578 28.6017 45.7418 28.7597C42.4234 30.6559 38.947 32.1834 34.9966 32.1307C34.8386 32.1307 34.7332 32.1307 34.4699 32.1307C34.8913 32.4468 35.3126 32.3941 35.6813 32.4468C36.4714 32.6048 36.6294 32.8682 36.4188 33.6582C35.8394 35.9231 33.1004 37.1873 30.9408 36.1865C29.5714 35.5544 28.6759 34.5537 28.5179 33.0262C28.4126 32.3414 28.0965 32.1307 27.4645 32.1307C24.9362 31.9727 22.4079 31.604 19.985 30.6559C19.1949 30.3399 18.8262 29.9712 18.7735 29.0757C18.6682 26.9162 17.6147 25.02 15.6132 24.1772C13.875 23.4398 12.2422 23.6505 10.6093 24.9146C10.2406 25.178 9.81925 25.2833 9.81925 24.7039C9.76658 23.2291 8.81848 22.3337 7.87038 21.4383C7.23831 20.8589 7.29098 20.3321 7.65968 19.7001C8.34442 18.5413 9.02916 17.3825 9.66123 16.171C9.97726 15.5916 10.4513 15.4336 11.0834 15.5916C11.7681 15.8023 12.5055 15.9077 13.2429 16.0657C14.4544 16.3291 15.5079 16.013 16.3506 15.0649C17.4567 13.8535 18.7735 13.2741 20.4591 13.6428C22.0919 14.0115 23.2507 15.3283 23.356 17.0138C23.4614 18.752 22.4079 20.3321 20.8804 20.9115C20.6697 20.9642 20.5117 21.0169 20.1957 21.1222Z" fill="var(--fill-0, #FFFBF5)"/>
<path id="Vector_4" d="M9.08253 16.5919C8.13443 17.7506 7.29167 19.0148 6.2909 20.1209C5.39547 21.1217 3.97332 20.8583 3.28858 19.7522C2.28781 18.1193 1.39237 16.4338 0.602289 14.6957C0.338928 14.1163 0.128235 13.4842 0.0228907 12.7994C-0.0824539 12.2727 0.180909 12.0094 0.707632 12.0094C1.3397 12.0094 1.91909 12.0094 2.55116 12.1147C4.50004 12.4307 6.39624 12.7994 8.34511 13.1155C9.34589 13.2735 9.60925 13.5895 9.60925 14.643C9.60925 15.3277 9.50391 16.0125 9.08253 16.5919Z" fill="var(--fill-0, #FFFBF5)"/>
<path id="Vector_5" d="M10.821 26.1772C11.9271 24.281 13.9286 23.807 15.8775 24.7551C17.5104 25.5978 18.1951 28.0734 17.3523 29.6009C16.1935 31.6025 13.9813 32.1819 11.9798 31.0231C10.3469 30.1803 9.8202 27.9681 10.821 26.1772Z" fill="var(--fill-0, #FFFBF5)"/>
<path id="Vector_6" d="M57.8043 6.95252C58.015 7.11054 58.4364 7.21588 58.4364 7.63726C58.4364 8.05864 57.9624 8.11131 57.699 8.21666C56.1715 8.9014 54.6967 8.74338 53.2218 8.16398C53.0112 8.05864 52.7478 7.95329 52.7478 7.68993C52.6951 7.3739 53.0112 7.32123 53.2218 7.16321C54.7493 6.21511 56.4349 6.16243 57.8043 6.95252Z" fill="var(--fill-0, #FFFBF5)"/>
<path id="Vector_7" d="M21.8296 13.6421C20.6708 13.0101 20.4601 12.6414 20.8288 11.9039C20.9341 11.6406 21.0922 11.4299 21.4082 11.3772C22.0403 11.2719 22.725 11.2192 23.3571 11.1665C23.7258 11.1139 23.8838 11.3772 23.9365 11.6933C24.0418 12.4833 23.7784 13.2208 23.4097 13.9582C23.2517 14.2742 22.9884 14.2742 22.725 14.1162C22.409 14.0108 22.0929 13.8528 21.8296 13.6421Z" fill="var(--fill-0, #FFFBF5)"/>
<path id="Vector_8" d="M22.3561 8.21593C22.8301 8.68998 23.3042 9.32205 23.5675 10.0068C23.7256 10.3755 23.5675 10.5862 23.1988 10.5862C22.6194 10.6389 22.0927 10.6915 21.5133 10.7442C20.8813 10.7969 20.7759 10.3228 20.6179 9.90144C20.4599 9.48007 20.3545 9.11136 20.7759 8.79532C21.0393 8.58464 21.3026 8.37395 21.566 8.16326C21.7767 7.95257 22.04 8.00524 22.3561 8.21593Z" fill="var(--fill-0, #FFFBF5)"/>
<path id="Vector_9" d="M33.8909 37.1871C34.4703 37.4504 34.5756 37.8192 34.5756 38.2405C34.523 38.6619 34.2069 38.8199 33.8909 38.8726C33.5222 38.9253 33.1008 38.9779 32.7321 39.0306C32.3634 39.0833 32.1 38.9779 31.942 38.6619C31.7313 38.2932 31.468 37.9245 31.2573 37.5031C31.0466 37.0817 31.1519 36.7657 31.6787 36.7657C32.4687 36.7657 33.2588 36.9237 33.8909 37.1871Z" fill="var(--fill-0, #FFFBF5)"/>
<path id="Vector_10" d="M3.18347 32.6042C2.60408 33.605 2.07736 33.6576 1.44529 32.7622C1.18193 32.3408 0.865894 31.9194 0.602533 31.4981C0.339171 31.0767 0.497186 30.7607 0.971237 30.7607C1.49796 30.7607 1.97201 30.7607 2.49874 30.8133C3.44684 30.9187 3.60485 31.2347 3.28882 32.1301C3.28882 32.2882 3.18347 32.4988 3.18347 32.6042Z" fill="var(--fill-0, #FFFBF5)"/>
<path id="Vector_11" d="M33.7331 15.1698C34.1018 14.8011 34.3124 14.0637 34.9972 14.1164C35.7346 14.1691 36.2613 14.8011 36.7354 15.3805C37.0514 15.7492 36.5774 16.4866 35.998 16.434C35.3132 16.3813 34.6285 16.3286 33.9437 16.1706C33.259 16.0126 33.4697 15.5912 33.7331 15.1698Z" fill="var(--fill-0, #FFFBF5)"/>
<path id="Vector_12" d="M11.4528 31.4975C11.8215 31.8135 12.559 31.8662 12.5063 32.4456C12.4536 32.9197 11.8215 32.9723 11.4002 33.183C11.0315 33.341 10.6627 33.8151 10.294 33.4464C9.81999 32.9723 9.39861 32.3929 9.29327 31.7082C9.18793 31.2868 9.92534 30.8654 10.4521 31.0235C10.7681 31.0761 11.1368 31.3395 11.4528 31.4975Z" fill="var(--fill-0, #FFFBF5)"/>
<path id="Vector_13" d="M36.7362 14.6424C36.5255 14.1157 35.314 14.1157 35.6828 13.1676C35.9988 12.3775 36.9996 11.9035 37.4209 12.1668C38.053 12.5882 38.5271 13.589 38.3164 14.0104C37.7896 14.6951 37.2629 14.9585 36.7362 14.6424Z" fill="var(--fill-0, #FFFBF5)"/>
<path id="Vector_14" d="M39.4221 42.0849C40.8442 42.9277 40.8442 43.1384 39.4221 43.9811C39.0534 44.1918 38.632 44.6132 38.1579 44.3498C37.7366 44.0864 37.9473 43.5597 37.8946 43.1384C37.8946 43.0857 37.8946 43.033 37.8946 42.9803C37.9473 41.4002 38.1053 41.3475 39.4221 42.0849Z" fill="var(--fill-0, #FFFBF5)"/>
<path id="Vector_15" d="M44.7423 12.0612C44.9003 12.1665 45.2164 12.3246 45.2164 12.6406C45.1637 12.9566 44.8477 12.9566 44.5843 13.062C44.0049 13.22 43.4782 13.378 42.8988 13.536C42.4774 13.6414 42.2141 13.4833 42.2667 13.0093C42.2667 12.9566 42.2667 12.9039 42.2667 12.8513C42.3194 11.1658 42.6354 10.9551 44.1103 11.7452C44.2683 11.8505 44.479 11.9558 44.7423 12.0612Z" fill="var(--fill-0, #FFFBF5)"/>
<path id="Vector_16" d="M18.1953 5.89966C17.6159 6.90043 17.2998 6.9531 16.6151 6.11035C16.3517 5.74164 16.0357 5.37294 15.7723 5.00423C15.4563 4.53018 15.6143 4.26682 16.141 4.31949C16.7731 4.37216 17.4579 4.47751 18.0899 4.6882C18.88 5.00423 18.2479 5.53095 18.1953 5.89966Z" fill="var(--fill-0, #FFFBF5)"/>
<path id="Vector_17" d="M5.65876 34.5537C5.55342 34.4484 5.50075 34.4484 5.50075 34.4484C5.13204 34.0797 4.34195 33.869 4.49997 33.2369C4.65798 32.6575 5.34272 33.0262 5.81678 32.9735C6.87022 32.8155 7.50229 33.5529 7.2916 34.6591C7.23893 34.9751 7.02824 34.9751 6.81755 34.9224C6.39618 34.8171 5.9748 34.6591 5.65876 34.5537Z" fill="var(--fill-0, #FFFBF5)"/>
<path id="Vector_18" d="M35.1553 40.7678C34.7339 41.4525 33.6278 41.5578 33.2064 40.9258C32.3637 39.767 32.4164 39.609 33.8912 39.451C34.7339 39.3456 34.9973 39.5036 35.208 40.2937C35.208 40.4517 35.2607 40.6097 35.1553 40.7678Z" fill="var(--fill-0, #FFFBF5)"/>
<path id="Vector_19" d="M7.60822 32.3927C7.92425 31.8133 8.50365 31.8133 8.81968 32.2873C9.03037 32.6033 9.18838 32.972 9.39907 33.2881C9.66243 33.7095 9.50442 33.9728 9.08304 34.2362C8.18761 34.7102 7.87157 34.6049 7.66088 33.6568C7.55554 33.2354 7.39753 32.814 7.60822 32.3927Z" fill="var(--fill-0, #FFFBF5)"/>
<path id="Vector_20" d="M40.634 11.7449C41.0028 11.9556 41.0554 12.219 40.7394 12.4296C40.318 12.693 39.8966 12.9564 39.4753 13.1671C39.1592 13.3251 38.8959 13.1144 38.7378 12.851C38.5272 12.4823 38.1058 12.219 38.2111 11.6922C38.2638 11.5342 38.4218 11.4815 38.5798 11.4815C39.2646 11.3762 39.9493 11.5342 40.634 11.7449Z" fill="var(--fill-0, #FFFBF5)"/>
<path id="Vector_21" d="M34.8925 42.8746C34.6818 42.6639 34.1024 42.4532 34.4184 42.0318C34.6818 41.6104 35.2085 41.2944 35.7353 41.5577C36.262 41.8211 36.6307 42.2952 36.9994 42.7692C37.2627 43.0852 37.0521 43.2959 36.6833 43.3486C36.42 43.3486 35.3139 43.0852 34.8925 42.8746Z" fill="var(--fill-0, #FFFBF5)"/>
<path id="Vector_22" d="M20.3024 6.53072C20.4604 6.63606 20.5657 6.74141 20.7238 6.84675C21.0398 7.11011 21.4612 7.3208 20.9871 7.79485C20.4604 8.32157 20.039 8.37425 19.6176 7.9002C19.3543 7.58416 19.0909 7.21546 18.8276 6.84675C18.7222 6.68873 18.5642 6.47805 18.7222 6.32003C18.8802 6.10934 19.0909 6.10934 19.3543 6.16201C19.6703 6.32003 19.9863 6.42537 20.3024 6.53072Z" fill="var(--fill-0, #FFFBF5)"/>
</g>
</svg>
