<svg preserveAspectRatio="none" width="100%" height="100%" overflow="visible" style="display: block;" viewBox="0 0 77.4816 74.2637" fill="none" xmlns="http://www.w3.org/2000/svg">
<path id="Vector" d="M75.8893 37.3941L64.5493 40.7541C63.6253 41.0061 63.4573 42.1821 64.2133 42.7701L73.6213 49.9941C75.5533 51.4221 74.1253 54.5301 71.7733 54.0261L60.0973 51.7581C59.1733 51.5901 58.4173 52.5141 58.8373 53.3541L63.8773 64.1061C64.8853 66.2901 62.2813 68.3061 60.4333 66.8781L51.1933 59.4021C50.4373 58.8141 49.3453 59.3181 49.3453 60.2421L48.7573 72.0861C48.6733 74.5221 45.3973 75.1101 44.3893 72.8421L39.6853 62.0061C39.3493 61.1661 38.0893 61.0821 37.6693 61.9221L31.6213 72.1701C30.4453 74.2701 27.2533 73.2621 27.4213 70.8261L28.2613 58.9821C28.3453 58.0581 27.3373 57.4701 26.4973 57.8901L16.4173 64.1901C14.4013 65.4501 12.0493 63.0981 13.3093 61.0821L19.6093 51.0021C20.1133 50.2461 19.5253 49.1541 18.5173 49.2381L6.67333 50.0781C4.23733 50.2461 3.31333 47.0541 5.32933 45.8781L15.5773 39.8301C16.4173 39.3261 16.3333 38.1501 15.4093 37.8141L4.48933 33.1101C2.30533 32.1861 2.89333 28.9101 5.24533 28.7421L10.8733 28.4901C11.6293 28.4901 12.3853 28.6581 13.0573 28.9941L25.8253 35.9661C26.6653 36.4701 27.2533 37.3101 27.3373 38.3181C27.7573 41.7621 29.5213 44.9541 32.3773 47.1381C34.5613 48.7341 37.2493 49.6581 39.9373 49.6581C43.9693 49.6581 47.8333 47.7261 50.1853 44.4501C54.3853 38.8221 53.2093 30.7581 47.4973 26.6421C45.3133 24.9621 42.6253 24.1221 39.9373 24.1221C39.0133 24.1221 38.0053 24.2061 37.0813 24.4581C36.3253 24.6261 35.4853 24.5421 34.8133 24.1221L26.4973 18.9981C25.9933 18.6621 25.5733 17.9901 25.4053 17.4021L23.3893 5.72608C22.8853 3.37408 25.9933 2.03008 27.4213 3.87808L34.6453 13.2861C35.2333 14.0421 36.4093 13.7901 36.6613 12.9501L40.0213 1.61008C40.6933 -0.657923 44.0533 -0.489923 44.4733 1.86208L46.4893 13.5381C46.6573 14.4621 47.7493 14.7981 48.4213 14.1261L56.6533 5.64208C58.3333 3.96208 61.1893 5.64208 60.4333 7.91008L56.7373 19.1661C56.4013 20.0901 57.3253 20.9301 58.1653 20.5941L69.4213 16.8981C71.6893 16.1421 73.4533 18.9981 71.6893 20.6781L63.2053 28.9941C62.5333 29.6661 62.8693 30.7581 63.7933 30.9261L75.4693 32.9421C77.9893 33.4461 78.1573 36.7221 75.8893 37.3941ZM45.2293 30.0021C42.3733 27.9021 38.6773 27.8181 35.8213 29.4981L10.8733 14.0421L5.16133 10.5141C4.23733 9.92608 2.97733 10.2621 2.38933 11.1861L0.289333 14.8821C-0.298667 15.8061 0.0373333 17.0661 1.04533 17.5701L18.2653 26.9781L31.9573 34.4541C30.9493 37.8141 32.1253 41.5941 35.0653 43.7781C38.8453 46.5501 44.2213 45.7941 47.0773 42.0141C49.8493 38.1501 49.0093 32.8581 45.2293 30.0021Z" fill="var(--fill-0, #FDFCC6)"/>
</svg>
