<svg preserveAspectRatio="none" width="100%" height="100%" overflow="visible" style="display: block;" viewBox="0 0 812 1262" fill="none" xmlns="http://www.w3.org/2000/svg">
<g id="Vector" opacity="0.6" style="mix-blend-mode:screen">
<path d="M811.697 481.823C811.757 481.339 811.758 480.854 811.758 480.308C811.758 479.46 811.09 478.733 810.302 478.672C809.392 478.551 808.786 479.097 808.422 479.884C807.634 481.884 806.845 484.005 805.996 486.004C804.784 487.822 803.51 489.579 802.297 491.397C782.71 506.969 763.365 498.122 744.687 490.73C740.563 482.793 744.565 473.28 738.258 467.342C737.773 466.069 736.864 464.979 735.469 464.434C734.559 464.009 733.225 464.252 732.982 465.464C732.376 468.554 732.315 471.644 731.952 474.734C731.709 477.158 731.284 479.581 729.95 481.641C728.98 483.156 727.646 484.247 726.069 485.156C718.853 483.399 712.546 481.763 706.118 480.49C698.173 478.915 690.108 476.673 681.982 476.673C663.971 476.673 648.446 484.126 636.803 497.698C626.372 509.938 617.215 523.268 606.663 537.204C603.025 537.446 598.113 537.567 593.322 538.173C537.955 545.141 489.38 563.985 456.087 612.155C437.106 639.664 416.669 665.961 396.839 692.863C392.534 698.619 388.167 704.376 381.8 712.798C381.8 712.677 381.8 712.616 381.8 712.495C380.89 713.949 380.041 715.464 379.132 716.918C378.343 718.191 377.616 719.826 376.403 720.735C375.493 721.462 374.341 720.978 374.22 719.826C374.038 718.13 375.19 716.555 375.796 715.04C376.524 713.101 377.312 711.162 378.101 709.223C379.556 705.769 381.133 702.316 382.588 698.862C383.316 697.165 384.044 695.469 384.65 693.712C385.196 692.015 385.681 690.318 386.166 688.622C386.651 686.986 387.197 685.35 387.864 683.775C388.531 682.139 389.38 680.624 390.108 679.048C390.896 677.291 391.503 675.534 392.23 673.716C407.816 623.668 411.697 572.832 402.176 520.723C397.87 497.516 394.474 474.128 390.775 450.922C389.805 444.62 389.198 438.319 388.41 431.048C387.5 427.23 386.469 423.474 384.711 419.959C384.165 418.929 385.317 417.475 386.469 418.202C387.318 418.808 388.107 419.475 388.774 420.202C388.956 420.262 389.077 420.384 389.198 420.565C389.259 420.565 389.32 420.626 389.38 420.686C389.441 420.747 389.562 420.808 389.623 420.868C389.744 420.989 389.805 421.05 389.865 421.171C390.047 421.232 390.169 421.292 390.29 421.414C391.2 422.141 392.049 422.928 392.958 423.655C400.114 429.715 407.331 435.653 415.032 440.985C422.794 446.317 431.042 451.103 439.835 454.436C449.477 458.071 459.847 460.01 470.096 460.98C480.769 462.01 491.503 461.889 502.176 460.98C507.391 460.495 512.728 460.556 517.822 459.344C520.975 458.617 524.007 457.344 527.1 456.496C528.192 456.375 529.283 456.072 529.89 455.224C530.921 453.891 529.89 451.952 529.647 450.497C529.223 448.134 529.283 445.529 529.223 443.166C529.041 432.562 529.89 421.898 528.798 411.295C528.252 406.023 527.282 400.752 526.13 395.602C525.038 390.573 523.765 385.543 521.945 380.757C520.187 376.091 518.064 371.486 515.699 367.124C513.395 362.943 510.605 359.004 507.573 355.308C504.602 351.612 501.448 348.098 498.355 344.462C496.779 342.645 495.202 340.766 493.322 339.252C492.958 338.949 492.594 338.646 492.352 338.343C492.109 338.04 492.109 337.858 492.049 337.676C492.049 337.494 492.049 337.373 492.17 337.131C493.443 337.494 494.717 337.858 496.051 338.161C498.416 338.888 500.781 339.555 503.086 340.342C504.359 340.524 505.572 340.766 506.845 341.009C507.816 341.312 508.786 341.554 509.756 341.918C511.818 342.584 513.88 343.432 515.881 344.22C519.944 345.856 524.189 346.765 528.374 348.037C532.376 349.249 536.136 351.127 540.078 352.642C542.018 353.43 544.08 354.036 546.021 354.763C546.203 354.824 546.385 354.884 546.566 354.945C546.627 355.005 546.627 355.005 546.688 355.066C546.748 355.127 546.748 355.187 546.809 355.308C548.022 355.793 549.235 356.278 550.448 356.763C550.872 356.944 551.236 357.187 551.721 357.308C551.842 357.368 551.903 357.368 552.024 357.368C570.096 365.064 585.924 375.061 593.928 386.149C582.285 395.056 582.164 395.177 563.668 394.572C563.546 395.299 563.304 396.026 563.668 396.389C572.34 404.933 583.255 406.811 594.656 404.812C598.234 404.206 601.994 401.055 604.056 397.844C614.244 382.817 612.728 364.215 599.629 351.249C588.107 339.857 576.281 328.951 563.607 319.317C563.546 319.256 563.425 319.196 563.365 319.075C562.334 318.105 561.242 317.196 560.15 316.287C557.907 314.409 555.542 312.652 553.177 310.955C548.507 307.562 543.777 304.169 538.925 300.958C533.831 297.565 528.495 294.474 523.037 291.808C517.579 289.142 511.879 286.901 506.178 284.962C502.964 283.871 499.69 282.962 496.354 282.114C496.415 281.993 496.415 281.871 496.475 281.75C496.597 281.447 496.718 281.144 496.779 280.841C496.839 280.66 496.9 280.538 496.961 280.357C496.961 280.357 497.082 280.114 497.082 280.054C497.082 279.993 497.143 279.933 497.143 279.872C501.145 278.115 505.087 276.236 509.029 274.358C513.759 272.056 518.549 269.753 523.401 267.572C527.707 265.694 532.073 263.876 536.318 261.694C537.046 261.331 537.773 260.907 538.501 260.483C538.501 260.483 538.501 260.483 538.501 260.543C542.261 258.665 546.021 256.847 549.781 255.029C563.971 248.183 575.614 238.306 586.651 227.157C610.787 202.678 625.22 172.989 636.015 141.057C637.47 136.876 643.413 128.636 644.383 121.122C640.32 121.607 627.949 127.181 623.401 128.333C607.088 132.271 590.775 136.21 574.523 140.269C571.854 140.633 569.186 140.996 566.518 141.36C562.334 141.905 558.149 142.693 554.026 143.299C550.933 143.784 547.597 143.723 544.383 144.026C541.533 144.329 538.562 144.814 535.954 146.025C534.741 146.389 533.589 146.813 532.376 147.237C530.011 148.086 527.525 148.813 525.16 149.661C522.309 150.752 519.52 151.903 516.73 152.993C515.881 153.175 515.032 153.418 514.244 153.66C513.031 153.963 511.818 154.266 510.666 154.629C508.422 155.296 506.239 156.326 504.116 157.356C502.904 157.962 501.63 158.568 500.417 159.174C497.082 160.386 493.686 161.658 490.351 162.93C486.287 164.203 482.224 165.415 478.161 166.748C474.28 168.081 470.581 169.717 466.821 171.292C464.335 172.322 461.606 173.352 459.362 174.988C458.27 175.412 457.179 175.836 456.087 176.321C451.115 178.563 446.384 181.29 441.715 184.077C437.227 186.743 432.74 189.409 428.737 192.741C426.736 194.377 424.978 196.256 423.158 198.073C421.278 200.012 419.459 201.951 417.7 203.951C415.821 206.072 414.001 208.253 412.243 210.495C410.423 212.434 408.786 214.554 407.573 216.917C407.452 217.099 407.391 217.281 407.27 217.523C407.027 217.887 406.785 218.25 406.542 218.614C406.3 219.038 406.239 219.402 406.3 219.765L406.239 219.826C405.269 220.735 403.874 219.826 404.116 218.614C404.723 215.645 406.906 213.464 408.301 210.919C409.15 209.404 409.817 207.829 410.545 206.253C411.272 204.678 412 203.103 412.667 201.527C413.274 200.073 413.819 198.619 414.183 197.043C414.547 195.589 414.79 194.074 415.093 192.62C415.457 191.105 415.821 189.53 416.184 188.015C416.548 186.561 416.851 184.986 417.276 183.532C418.125 180.563 419.459 177.715 420.733 174.867C421.945 172.14 422.976 169.414 423.947 166.566C424.917 163.718 426.069 160.991 426.918 158.083C427.221 157.053 427.464 155.962 427.646 154.932C428.677 152.448 430.254 150.267 432.497 148.873C432.679 148.752 432.861 148.691 433.043 148.57C433.831 148.388 434.62 148.146 435.348 147.843C435.59 147.722 435.893 147.601 436.136 147.419C436.318 147.116 436.56 146.752 436.742 146.45C437.591 145.783 438.38 144.995 438.986 144.086C440.381 142.026 441.109 139.36 440.866 136.876C440.745 135.18 440.199 133.604 439.289 132.271C438.137 129.302 435.711 126.515 432.801 125.364C429.89 124.212 426.676 125.727 424.735 127.969C423.583 129.302 422.734 130.878 422.188 132.514C421.4 133.725 420.854 135.058 420.551 136.452C420.126 138.451 420.187 140.33 420.915 142.208C421.339 143.299 421.824 144.389 422.612 145.359C422.794 145.601 423.037 145.844 423.28 146.086C423.522 146.45 423.825 146.752 424.129 147.116C424.189 147.54 424.25 147.964 424.189 148.449C424.068 150.085 423.462 151.721 422.976 153.296C422.491 154.932 422.006 156.629 421.521 158.265C421.521 158.386 421.46 158.447 421.46 158.568C418.61 171.777 412.728 188.379 405.511 202.618C405.147 204.375 404.359 206.011 403.571 207.586C402.722 209.343 401.691 210.979 400.842 212.737C399.932 214.494 399.326 216.433 398.416 218.19C397.567 219.765 397.324 221.583 396.051 222.916C395.202 223.825 393.565 222.855 393.928 221.704C394.535 219.523 395.02 217.22 395.566 215.039C396.112 212.858 396.9 210.737 397.506 208.616C398.659 204.86 399.508 201.042 400.357 197.225C401.145 193.469 401.509 189.591 402.055 185.773C402.6 181.714 403.51 177.775 404.116 173.716C404.723 169.595 405.208 165.536 406.057 161.476C406.057 161.476 406.057 161.476 406.057 161.416C406.057 160.991 406.118 160.567 406.178 160.143C406.239 159.78 406.239 159.477 406.36 159.113C406.421 158.992 406.421 158.871 406.482 158.689C406.845 149.358 406.603 140.027 405.814 130.696C405.754 129.787 405.754 128.878 405.693 127.969C405.329 122.516 404.662 117.063 403.692 111.67C402.722 106.338 401.448 101.006 399.629 95.9163C397.87 91.0084 395.687 86.2216 393.261 81.6167C388.167 71.9826 382.285 62.7122 376.16 53.7446C373.067 49.2003 369.914 44.7771 366.7 40.3539C363.546 35.9913 360.393 31.6893 357.482 27.145C356.027 24.9031 354.753 22.6006 353.419 20.2981C352.024 17.9351 350.508 15.6932 348.992 13.4513C347.597 11.4518 346.142 9.51286 344.868 7.45275C343.656 5.45323 342.503 3.39312 341.048 1.51479C340.805 1.21183 340.623 0.969463 340.381 0.727097C340.138 0.605914 339.896 0.42414 339.653 0.302957C339.229 0.0605914 338.804 0 338.38 0C337.955 0.0605915 337.531 0.181774 337.167 0.42414C337.106 0.545323 337.045 0.727097 336.924 0.84828C336.682 1.27242 336.439 1.75715 336.196 2.18129C336.136 2.42366 336.015 2.66602 335.833 2.90839C335.833 3.5143 335.651 4.18081 335.469 4.78673C334.438 10.7247 331.466 16.1173 328.98 21.51C326.009 27.8721 324.129 34.6583 321.763 41.3234C317.155 54.5929 311.697 67.5595 306.421 80.5866C301.145 93.6138 295.99 106.702 291.745 120.092C289.623 126.879 287.804 133.725 286.166 140.633C284.529 147.722 283.134 154.872 282.528 162.082C282.042 167.899 282.285 173.716 282.649 179.532C281.679 196.68 283.862 213.585 291.685 229.763C292.23 230.732 292.776 231.641 293.383 232.55C296.112 237.094 299.083 241.578 302.176 245.88C303.692 248.061 305.269 250.182 306.845 252.303C307.149 252.727 307.452 253.151 307.816 253.575C309.21 255.211 310.605 256.847 311.939 258.544C313.031 259.574 311.394 261.21 310.302 260.18C307.694 257.695 305.511 254.787 303.207 252.06C301.206 249.758 299.083 247.577 296.839 245.456C294.717 243.396 293.261 240.972 291.806 238.427C291.745 238.246 291.624 238.124 291.563 237.943C284.408 229.763 279.071 220.977 273.31 212.555C267.488 204.011 260.817 195.892 255.905 186.925C255.905 186.803 255.905 186.622 255.845 186.5C255.542 185.531 254.996 184.622 254.511 183.713C254.025 182.804 253.662 181.896 253.237 180.987C252.813 180.078 252.388 179.169 251.903 178.321C251.478 177.533 250.872 176.806 250.629 175.958C250.144 174.382 250.387 172.564 250.387 170.928C250.387 169.959 250.326 168.99 250.084 168.02C250.326 166.202 250.084 164.203 249.659 162.688C249.295 161.234 248.75 159.84 247.84 158.628C246.688 157.053 245.172 155.781 243.534 154.69C241.897 153.66 239.956 152.812 238.016 152.812C236.075 152.812 234.317 153.781 232.922 155.114C230.86 157.053 229.283 159.84 228.859 162.749C228.313 164.263 228.07 165.899 228.131 167.475C228.192 169.414 229.223 172.867 231.224 173.595C232.315 174.806 234.195 175.533 235.711 175.958C236.803 176.261 237.834 176.503 238.925 176.806C239.289 176.927 239.714 177.048 240.078 177.109C241.594 177.533 243.049 178.078 244.383 179.048C245.596 179.957 246.748 181.108 247.597 182.32C248.568 183.834 249.235 185.47 249.962 187.106C251.66 190.863 254.086 194.256 256.572 197.589C257.603 198.982 258.756 200.376 259.787 201.77C261.97 205.466 264.213 209.101 266.336 212.858C266.457 213.1 266.518 213.282 266.518 213.464C267.67 215.221 268.822 216.978 269.975 218.735C270.46 219.341 270.945 219.947 271.369 220.613C272.703 222.552 274.038 224.491 275.372 226.37C278.222 230.429 281.315 234.307 284.347 238.246C285.863 240.185 287.318 242.245 288.834 244.184C290.229 246.062 291.867 247.698 293.504 249.394C295.141 251.091 296.718 252.788 298.113 254.666C299.265 256.181 300.538 257.695 301.994 258.968C302.055 259.028 302.055 259.028 302.115 259.089L302.176 259.15C302.297 259.271 302.479 259.392 302.661 259.513C303.631 260.24 302.722 261.816 301.691 261.149C301.569 261.028 301.387 260.967 301.266 260.846C301.206 260.846 301.206 260.846 301.145 260.846C300.72 260.725 300.357 260.604 299.932 260.422C299.265 259.877 298.537 259.331 297.87 258.786C292.776 254.666 287.561 250.788 282.285 246.971C277.191 243.335 271.854 240.063 266.215 237.337C263.546 236.064 260.817 234.974 258.089 233.822C255.602 232.792 253.116 231.702 250.569 230.672C246.93 229.217 243.11 227.824 239.168 227.036C227.888 223.037 216.002 220.795 204.116 219.159C190.593 217.342 176.888 216.13 163.243 216.311C156.269 216.433 149.417 217.16 142.503 217.947C135.469 218.735 128.434 219.523 121.46 220.311C107.512 221.947 93.6252 224.188 79.6774 225.643C72.7034 226.37 65.6689 227.097 58.6949 227.884C51.7817 228.672 44.8684 228.914 37.9551 229.157C36.1965 229.217 34.4378 229.278 32.6792 229.339C31.345 229.399 30.3141 231.217 31.4663 232.247C34.0133 234.428 36.7422 236.67 38.6222 239.518C38.6222 239.821 38.7435 240.124 38.9254 240.366C38.9254 240.427 38.8647 240.487 38.8647 240.609C50.5082 255.635 63.1219 271.45 79.2529 283.75C95.3838 295.989 112.424 307.259 129.465 318.348C145.717 329.012 165.426 330.345 185.499 337.07C185.499 338.706 185.256 340.342 184.468 341.796C180.466 345.068 177.312 347.674 173.916 350.097C169.732 353.127 166.093 356.581 162.879 360.277C162.091 360.883 161.242 361.428 160.454 361.973C157.785 363.731 154.025 366.275 153.722 369.79C152.267 371.426 151.236 373.304 150.326 375.485C148.81 379.06 145.899 381.787 144.383 385.422C143.777 386.876 143.292 388.391 142.928 389.967C142.079 391.663 141.412 393.481 140.805 395.42C139.047 401.358 136.924 409.659 138.925 416.082C138.865 430.321 146.566 442.015 163.183 457.768C162.091 468.251 151.175 475.098 152.146 488.428C169.065 489.518 184.953 489.882 200.72 485.277C216.366 480.611 232.437 477.097 247.476 471.22C252.085 469.463 256.633 467.463 261.121 465.282C261.848 464.797 262.637 464.312 263.364 463.828C264.638 463.04 265.851 462.252 267.003 461.343C268.216 460.495 269.307 459.465 270.46 458.496C271.673 457.526 272.825 456.557 274.098 455.648C275.311 454.799 276.585 454.012 277.737 453.042C278.95 452.012 280.163 451.043 281.436 450.073C282.649 449.164 283.862 448.195 285.014 447.226C286.106 446.195 287.136 445.044 288.289 444.075C288.895 443.59 289.502 443.166 290.047 442.681C290.472 442.257 290.836 441.712 291.26 441.348C292.17 440.621 293.261 441.106 293.443 442.257C293.565 443.348 293.079 444.499 292.958 445.529C292.837 446.62 292.776 447.71 292.655 448.801C292.534 449.892 292.352 450.982 292.109 452.012C292.048 452.194 292.049 452.376 291.988 452.558C292.049 458.071 292.17 462.858 291.988 467.524C290.532 498.668 299.326 527.085 315.639 553.079C316.67 554.775 317.7 556.23 318.671 557.563C318.974 557.805 319.277 558.047 319.52 558.35C320.793 559.441 322.067 560.592 323.401 561.683C324.796 562.773 326.251 563.803 327.888 564.531C328.737 564.652 329.586 564.712 330.435 564.712C338.622 564.955 346.748 562.531 353.844 558.653C355.602 557.684 357.24 556.654 358.877 555.503C360.393 554.412 361.485 553.139 362.637 551.685C363.364 550.776 363.91 549.807 364.395 548.837C365.366 544.475 365.669 539.93 365.851 535.386C365.608 533.447 365.426 531.448 365.002 529.509C364.577 527.327 364.032 525.146 363.365 523.025C362.091 518.966 360.211 515.149 358.574 511.21C357.846 509.453 357.118 507.635 355.966 506.12C355.36 505.333 354.693 504.606 353.904 504.06C353.662 503.879 353.116 503.394 352.813 503.454C352.57 503.515 352.327 503.757 352.146 503.939C352.085 504.06 352.024 504.121 351.964 504.242C352.267 504.787 352.449 505.393 352.631 505.999C352.873 506.605 353.116 507.272 353.358 507.878C353.722 508.423 354.086 508.968 354.389 509.574C355.481 511.755 355.845 514.179 356.633 516.482C357.058 517.693 357.179 518.905 357.482 520.117C357.785 521.329 358.028 522.48 358.089 523.692C358.089 524.237 358.149 524.722 358.149 525.267C358.21 525.51 358.27 525.752 358.331 525.994C358.331 526.055 358.392 526.055 358.392 526.116C358.452 530.478 358.392 534.598 357.967 538.658C357.482 543.808 355.845 548.716 350.63 551.503C350.569 551.564 350.569 551.625 350.508 551.625C350.084 552.049 349.599 552.412 349.113 552.715C348.689 552.958 348.204 553.261 347.719 553.382C347.658 553.382 347.597 553.382 347.597 553.382C347.173 553.745 346.445 553.806 345.899 553.382C343.898 551.806 342.807 549.322 341.715 547.08C340.623 544.838 339.411 542.596 338.501 540.294C338.076 539.325 337.773 538.294 337.47 537.264C335.044 530.781 333.65 524.056 333.225 517.027C332.194 496.183 331.224 475.098 339.411 455.224C339.593 454.799 339.714 454.315 339.896 453.891C341.776 448.68 343.474 443.348 346.142 438.44C347.476 436.016 348.931 433.714 350.508 431.472C352.024 429.23 353.662 427.109 355.117 424.867C356.572 422.565 357.846 420.141 358.877 417.657C359.423 416.263 359.726 414.627 360.454 413.294C361.121 415.173 361.909 416.99 362.334 418.687C362.819 420.565 363.183 422.444 363.607 424.383C363.85 425.11 364.092 425.837 364.274 426.624C364.335 426.867 364.395 427.17 364.395 427.23C364.456 427.473 364.517 427.715 364.577 427.957V428.018C364.638 428.139 364.699 428.321 364.759 428.382C364.82 428.503 364.82 428.624 364.82 428.745C364.82 428.806 364.82 428.806 364.881 428.866C365.002 429.593 365.123 430.321 365.244 431.048C365.305 431.351 365.366 431.654 365.426 431.956C365.548 432.441 365.669 432.987 365.73 433.471C365.972 434.32 366.154 435.107 366.275 435.956C371.309 463.828 376.281 491.821 381.012 519.754C387.379 557.805 387.136 595.917 380.526 634.09C371.794 684.199 351.357 730.066 330.739 775.934C330.678 776.116 330.557 776.358 330.496 776.54C327.707 783.205 324.25 789.567 320.793 795.929C320.429 797.323 319.944 798.717 319.035 799.928C318.853 800.171 318.61 800.352 318.368 800.413C318.064 800.958 317.822 801.443 317.518 801.988C317.215 802.594 316.366 802.776 315.76 802.473C315.699 802.473 315.639 802.413 315.639 802.352C315.639 801.928 315.699 801.564 315.699 801.14C315.76 800.353 315.942 799.625 316.124 798.898C316.973 796.959 317.882 795.02 318.731 793.082C318.853 792.173 318.974 791.324 319.095 790.416C320.247 787.507 321.46 784.599 322.37 781.63C323.886 776.601 324.674 771.39 324.674 766.179C324.917 764.301 324.917 762.422 324.735 760.544C324.614 759.211 324.492 757.878 324.371 756.545C324.371 756.302 324.311 756.121 324.311 755.878C324.25 755.454 324.129 754.97 324.007 754.545C323.825 754.121 323.704 753.636 323.522 753.212C323.462 753.031 323.34 752.909 323.28 752.728C323.158 752.546 323.098 752.304 323.098 752.122C323.037 751.94 322.976 751.758 322.855 751.637C318.853 742.548 314.426 733.581 309.15 722.614C308.968 722.19 308.786 721.705 308.665 721.22C307.816 718.433 307.391 715.585 306.967 712.677C306.845 711.95 305.996 711.404 305.329 711.404C304.602 711.404 303.934 711.95 303.692 712.677C303.267 714.191 302.661 715.646 302.055 717.1C299.75 720.978 297.87 724.068 295.808 727.4C295.748 727.34 295.748 727.34 295.687 727.279C295.081 728.855 294.474 730.491 293.989 732.187C293.989 732.248 293.928 732.369 293.928 732.43C293.868 733.035 293.747 733.641 293.504 734.247C293.261 734.853 292.776 735.217 292.109 735.156C291.563 735.096 290.957 734.55 291.018 733.884C291.078 733.096 291.2 732.308 291.26 731.521C291.26 731.46 291.26 731.399 291.26 731.278C291.26 731.157 291.321 731.036 291.321 730.975C291.321 730.975 291.321 730.915 291.381 730.854C291.381 730.672 291.442 730.491 291.442 730.248C291.321 728.733 290.836 727.158 290.593 725.704C290.29 723.947 289.865 722.25 289.38 720.554C289.32 719.766 289.259 718.918 289.198 718.13C288.956 715.949 288.471 713.828 287.015 712.131C286.045 710.92 284.165 711.95 284.104 713.343C284.044 714.494 283.377 715.585 282.831 716.615C282.164 717.827 281.557 719.099 280.951 720.372C279.738 723.098 278.525 725.825 277.312 728.552C274.887 734.005 272.461 739.458 270.46 745.093C268.398 750.789 266.882 756.545 266.093 762.543C265.669 765.512 265.487 768.481 265.305 771.45C265.123 774.298 264.82 777.146 264.759 779.994C264.699 782.781 265.002 785.508 265.487 788.234C265.487 788.84 265.548 789.385 265.608 789.991C265.911 795.748 265.972 801.504 265.911 807.381C265.851 807.987 265.73 808.532 265.608 809.078C265.244 810.956 264.456 812.653 264.153 814.531C263.91 815.076 263.668 815.622 263.364 816.167C262.273 818.227 261.121 820.408 261.909 822.771C263.061 826.043 266.76 828.164 270.156 828.891C271.612 829.497 273.067 830.164 274.341 831.133C275.736 832.163 277.009 833.375 278.283 834.526C278.95 835.132 279.617 835.859 280.041 836.707C280.526 837.616 280.648 838.767 279.859 839.555C278.889 840.525 277.312 840.343 276.16 839.979C274.523 839.555 273.128 838.707 271.733 837.798C270.945 837.01 269.975 836.344 269.126 835.677C267.973 834.768 266.821 833.86 265.669 832.951C263.486 831.254 261.181 829.497 258.634 828.406C256.027 827.255 253.237 826.892 250.448 826.589C247.476 826.286 244.565 826.952 241.654 827.376C239.047 827.74 236.378 827.679 233.771 828.043C231.891 828.043 230.072 828.043 228.252 827.922C211.575 826.952 196.172 822.165 183.316 811.441C172.036 801.989 161.06 792.476 150.387 782.478C133.043 765.997 116.124 749.092 98.7799 732.551C96.3541 731.157 94.2923 729.158 92.2911 727.158C91.6846 726.552 91.1389 725.886 90.5931 725.219C89.6834 724.128 88.7738 723.038 87.8035 722.008C87.0151 721.099 86.0449 720.251 84.8926 719.826C84.1649 719.221 83.3766 718.675 82.4669 718.372C81.1328 717.888 80.2231 719.342 80.4051 720.432C80.7083 722.311 81.8605 724.007 82.7095 725.704C83.6191 727.582 84.4075 729.461 85.1959 731.339C86.8332 735.217 88.5919 739.095 90.4718 742.912C94.2923 750.486 98.5979 757.817 103.146 764.967C103.813 766.058 104.541 767.148 105.269 768.239L105.329 768.3C105.572 768.542 105.632 768.784 105.693 769.027C105.875 769.269 106.057 769.511 106.178 769.754C106.36 769.996 106.542 770.239 106.663 770.481L106.724 770.542C106.785 770.602 106.906 770.723 106.845 770.723C106.906 770.784 106.967 770.844 107.027 770.966L107.088 771.026C107.149 771.087 107.209 771.208 107.27 771.269C107.33 771.329 107.33 771.39 107.391 771.45C107.391 771.511 107.452 771.572 107.512 771.632C107.512 771.693 107.512 771.693 107.512 771.693C107.573 771.753 107.634 771.814 107.694 771.875L107.755 772.056C107.755 772.117 107.816 772.117 107.816 772.177C107.816 772.117 107.816 772.117 107.755 772.056C107.755 772.178 107.937 772.359 107.998 772.42C108.119 772.602 108.179 772.783 108.24 772.965C110.363 776.237 112.606 779.388 114.729 782.66C115.76 783.872 116.669 785.144 117.155 786.719C117.579 788.113 115.578 788.901 114.85 787.689C114.183 786.538 113.455 785.326 112.667 784.175C111.818 783.145 110.969 782.115 110.12 781.145C108.24 778.964 106.118 777.025 104.056 774.965C101.994 772.905 99.9321 770.905 97.8702 768.845C93.8071 764.664 89.7441 760.483 85.2565 756.787C85.1352 756.666 85.0139 756.605 84.832 756.484C84.7107 756.363 84.5288 756.303 84.4075 756.181C84.3469 756.121 84.2256 756.06 84.1649 756C84.1043 756 84.1043 755.939 84.0436 755.939C83.8617 755.818 83.6798 755.697 83.4978 755.515C83.4978 755.515 83.4978 755.515 83.4978 755.454C81.8605 754.182 80.1019 753.152 78.3432 752.061C77.191 751.334 75.9781 750.667 74.8866 749.819C73.795 748.971 72.7034 748.062 71.3693 747.699C69.6713 747.274 68.5797 749.274 69.7319 750.546C71.9151 752.97 74.4621 754.969 77.0091 757.03C78.2219 758.241 79.4954 759.393 80.6476 760.665C81.9211 762.059 83.134 763.392 84.4681 764.725C84.9533 765.209 85.3778 765.694 85.8629 766.179C91.5027 772.844 97.2638 779.63 102.964 786.477C111.03 795.99 120.369 804.533 128.01 815.379C128.07 815.44 128.07 815.44 128.131 815.5C128.313 815.743 128.555 815.985 128.737 816.227C128.798 816.349 128.919 816.409 128.98 816.47C129.041 816.53 129.101 816.712 129.162 816.773C129.101 816.652 129.041 816.652 129.101 816.712L129.162 816.773C129.283 816.894 129.404 817.076 129.404 817.258C129.344 817.136 129.283 817.015 129.162 816.894C129.283 817.015 129.344 817.197 129.404 817.318C129.647 817.439 129.768 817.621 129.95 817.803C130.011 817.864 130.072 817.985 130.132 818.045C130.132 818.106 130.193 818.106 130.193 818.166L130.253 818.227C130.314 818.288 130.314 818.288 130.375 818.348C130.678 818.651 130.921 819.015 131.102 819.318C132.012 820.53 132.8 821.741 133.528 823.014C134.135 824.044 132.861 825.498 131.77 824.771C128.798 822.771 126.069 820.469 123.219 818.348C120.611 816.409 118.125 814.289 115.639 812.168C113.092 810.047 110.545 808.048 107.998 805.927C105.754 804.109 103.389 802.352 101.084 800.534C100.963 800.474 100.902 800.353 100.781 800.292C90.1079 792.657 79.4954 784.902 69.0042 777.146C68.8829 777.146 68.7616 777.085 68.701 777.025C68.0339 776.54 67.3062 776.116 66.5785 775.752C66.4572 775.692 66.3359 775.571 66.2147 775.449C66.0327 775.328 65.8508 775.268 65.6689 775.146C64.2741 774.419 62.9399 773.692 61.5452 772.965C56.6331 770.239 51.9636 767.27 47.1122 764.482C44.3226 762.907 41.533 761.392 38.7435 759.756C37.7125 759.029 36.6816 758.302 35.6507 757.514C34.6804 756.787 33.6495 756.121 32.5579 755.454C32.0727 755.151 31.527 754.788 31.0418 754.424C30.6173 754 30.2535 753.576 29.829 753.152C28.5555 751.758 26.0085 753.637 27.1607 755.212C27.2213 755.333 27.3426 755.454 27.4032 755.575L27.4639 755.636C27.7065 755.939 28.0097 756.242 28.2522 756.484C29.7077 757.999 31.2844 759.453 32.8005 760.907C34.6197 762.725 36.3177 764.664 38.137 766.542C39.9563 768.421 41.8362 770.178 43.6555 772.117C44.5652 773.086 45.4748 774.056 46.3844 775.025C46.6877 775.328 46.9302 775.631 47.2334 775.934C47.3547 776.055 47.4154 776.177 47.5367 776.298C47.5367 776.298 47.5973 776.419 47.658 776.419C47.7186 776.479 47.7792 776.54 47.7792 776.54C48.0218 776.904 48.2644 777.207 48.4463 777.57C48.4463 777.631 48.4463 777.631 48.5069 777.691C48.325 777.752 48.1431 777.873 47.9612 777.934C46.8696 777.146 45.778 776.419 44.7471 775.631C39.8957 772.056 35.2262 768.178 30.5567 764.361C28.3129 762.543 26.0085 760.907 23.9466 758.847C21.9454 756.848 20.0655 754.788 17.8823 752.97C15.3353 750.91 12.5458 749.213 9.99876 747.153C7.9369 745.517 5.63247 744.003 3.75254 742.064C3.44933 741.761 3.14612 741.458 2.90355 741.155C2.29712 740.488 1.1449 740.549 0.477833 741.155C-0.189238 741.821 -0.128596 742.851 0.477833 743.578C0.781047 743.942 1.08426 744.245 1.44812 744.608C3.99512 747.335 6.84533 749.88 9.45297 752.546C12.4851 755.636 15.5173 758.787 18.5494 761.816C20.9751 764.24 23.3402 766.724 25.7052 769.148C25.8265 769.33 25.9478 769.451 26.1297 769.572C26.5542 769.996 26.9787 770.42 27.4032 770.845C30.2535 773.632 33.225 776.419 36.1358 779.206C39.1073 782.054 42.0182 784.962 44.8077 787.992C47.6579 791.143 50.3262 794.415 53.0552 797.626C54.0254 798.777 55.2383 799.625 56.2692 800.655C57.2395 801.443 58.0885 802.352 58.9375 803.261C59.7259 804.109 60.6962 804.836 61.3026 805.866C61.3632 805.927 61.4239 805.988 61.4845 806.109C61.5452 806.169 61.5452 806.23 61.6058 806.291C61.6664 806.351 61.7271 806.351 61.7271 806.412C61.7877 806.472 61.7877 806.472 61.8484 806.533C62.8187 807.381 63.7889 808.29 64.6986 809.138C66.2147 810.593 67.7307 812.047 69.3074 813.501C71.0054 815.076 72.7034 816.53 74.3408 818.166C75.9175 819.742 77.191 821.681 78.889 823.135C79.738 823.862 80.6476 824.407 81.6179 825.013C81.9211 825.195 82.2244 825.377 82.4669 825.68C82.4669 825.68 82.5276 825.801 82.5882 825.922C82.5882 825.922 82.5882 825.983 82.6489 826.043C82.5276 826.165 82.4669 826.286 82.3456 826.407C82.3456 826.407 82.3456 826.467 82.285 826.467C80.9509 826.467 79.6774 826.528 78.3432 826.589C75.0079 826.77 71.6725 827.073 68.3978 827.437C65.1231 827.8 61.909 828.467 58.6949 829.073C54.6319 829.861 50.5688 830.648 46.627 831.921C45.4142 832.345 43.8981 832.769 42.9884 833.678C42.3214 834.344 42.1395 835.374 42.564 836.223C43.1704 837.313 44.6258 837.798 45.7174 838.283C46.3238 838.525 46.9302 838.707 47.476 838.949C47.5973 839.01 47.658 839.01 47.7792 839.07C47.1122 838.828 47.9612 839.131 48.0218 839.192C48.5676 839.434 49.0527 839.676 49.5985 839.919C50.6901 840.403 51.8423 840.888 52.9339 841.312C57.1789 844.039 62.2729 844.948 67.2456 845.614C70.1564 846.038 72.946 846.22 75.9175 846.039C78.7071 845.857 81.5573 845.675 84.3469 845.614C85.9236 845.554 87.5003 845.493 89.077 845.311C90.2292 845.311 91.3208 845.372 92.473 845.372C93.5039 845.372 94.5955 845.433 95.6264 845.433C96.1116 845.372 96.5967 845.311 97.0818 845.251C97.5063 845.19 97.8702 845.251 98.1734 845.493C98.2341 845.493 98.3553 845.493 98.416 845.493C99.0831 845.493 99.8714 845.372 100.538 845.675C101.084 845.857 101.327 846.281 101.327 846.705C101.024 846.826 100.72 846.947 100.357 847.008C97.0818 848.22 93.8678 849.31 90.4718 849.977C87.1364 850.583 83.7404 850.886 80.4051 851.31C78.6464 851.492 76.9484 851.734 75.1291 851.734C73.3099 851.734 71.4299 851.673 69.6106 851.552C67.7307 851.431 65.7902 851.552 63.9102 851.189C62.4548 850.946 60.9994 850.219 59.4833 850.704C58.8162 850.886 58.1492 851.613 58.2704 852.34C58.513 854.582 60.8174 855.673 62.6367 856.581C64.8805 857.733 66.8817 859.126 69.0042 860.52C74.0376 863.731 79.4348 866.64 85.0139 868.76C93.5646 873.608 102.661 877.122 112.303 878.818C136.196 882.939 160.211 885.908 183.983 883.12C184.771 882.939 185.56 882.757 186.348 882.575C188.228 882.09 190.108 881.545 191.988 881.121C193.928 880.697 195.869 880.454 197.749 880.091C201.63 879.364 205.329 877.849 209.089 876.758C210.969 876.213 212.849 875.668 214.608 874.88C216.427 874.092 218.367 873.426 220.247 872.699C222.067 872.032 223.947 871.729 225.887 872.093C226.251 872.153 226.615 872.335 226.918 872.517C227.706 872.699 228.434 873.062 229.101 873.426C230.981 873.971 232.74 874.88 234.438 876.092C234.559 876.152 234.68 876.152 234.802 876.213C236.621 876.637 238.501 877.182 239.047 879.182C239.168 879.667 239.168 880.151 239.107 880.576C239.229 880.697 239.289 880.818 239.411 880.879C238.865 882.636 238.198 884.272 237.349 885.908C235.529 889.483 233.589 892.997 232.012 896.693C230.496 900.147 229.404 903.722 228.98 907.478C228.859 908.326 228.859 909.175 228.919 910.023C228.98 910.871 229.101 911.72 228.859 912.568C228.616 913.356 228.131 914.083 227.828 914.87C227.585 915.416 227.464 915.961 227.282 916.567C226.736 918.566 226.433 921.232 227.403 923.171C227.161 923.898 226.918 924.626 226.615 925.353C225.341 927.11 224.068 928.867 222.794 930.624C219.216 935.593 215.639 940.622 212.243 945.772C208.907 950.741 205.572 955.77 203.025 961.223C200.478 966.615 198.355 972.25 195.808 977.643C194.959 979.4 194.171 981.157 193.322 982.854C159.908 1040.72 134.68 1102.22 116.851 1166.99C111.818 1185.11 107.452 1203.16 102.661 1221.28C100.599 1228.98 99.6288 1236.55 99.1437 1243.09C98.416 1253.39 106.603 1262.12 116.912 1262L120.429 1261.94C129.283 1261.82 136.136 1254.24 135.287 1245.46C134.68 1239.46 134.256 1232.73 134.438 1226.73C134.802 1216.19 135.529 1205.47 138.016 1195.29C155.178 1123.91 182.042 1056.47 218.307 992.912C220.065 988.853 222.067 984.793 224.371 981.036C225.523 979.158 226.918 977.401 228.07 975.522C229.223 973.583 230.314 971.645 231.588 969.766C232.073 968.979 232.679 968.191 233.043 967.343C233.346 966.737 233.589 966.07 233.953 965.525C234.377 964.919 234.923 964.313 235.711 964.131C236.803 963.889 237.47 964.495 238.258 965.101C238.622 965.343 239.289 965.525 239.896 965.646C241.472 965.707 242.988 965.707 244.444 965.767C245.899 965.525 247.415 965.161 248.628 964.374C248.871 964.071 249.113 963.768 249.477 963.586C250.205 963.283 251.115 963.465 251.357 964.374C251.418 964.676 251.478 964.919 251.478 965.222C251.721 965.646 251.842 966.191 251.903 966.737C252.024 967.1 252.146 967.464 252.267 967.767C262.273 973.462 272.34 977.158 283.377 975.341C283.862 975.038 284.347 974.735 284.711 974.311C285.62 973.28 286.287 972.008 287.864 972.069C288.774 972.129 289.502 972.614 290.169 973.159C290.29 973.22 290.351 973.341 290.472 973.402C290.593 973.341 290.714 973.281 290.836 973.281C292.776 974.068 294.595 974.553 296.293 974.735C296.475 974.735 296.657 974.735 296.779 974.795C306.178 975.765 311.515 968.615 315.82 960.314C318.853 954.558 321.218 948.438 323.037 942.197C326.676 929.897 328.313 917.476 326.251 903.419C326.19 903.237 326.19 903.116 326.13 902.934C325.584 900.571 324.917 898.147 324.068 895.845C323.643 894.693 323.219 893.542 322.673 892.452C322.188 891.421 321.582 890.513 321.096 889.543C320.429 888.271 322.067 886.998 323.098 888.028C323.462 888.331 323.825 888.695 324.129 888.998C327.585 891.603 330.921 894.027 334.256 896.39C335.226 897.784 336.318 899.056 337.531 900.268C339.956 902.691 342.928 904.388 345.899 906.024C352.267 909.478 358.695 913.053 365.608 915.294C365.972 915.416 366.336 915.537 366.7 915.658C370.399 917.355 374.159 918.869 378.04 920.263C398.113 927.231 417.822 933.593 438.501 926.262C442.807 913.901 428.798 910.993 428.616 902.086C430.981 899.117 435.408 898.814 438.744 896.753C440.26 896.208 441.776 895.481 442.989 894.451C444.565 893.057 445.111 890.694 443.716 888.998C442.503 887.544 440.866 886.332 439.229 885.484C435.711 883.666 431.588 882.696 427.707 882.09C423.28 881.363 418.731 881.242 414.365 882.333C412.061 882.939 409.878 883.969 407.755 885.12C407.088 885.484 406.36 885.847 405.693 886.211C394.05 889.604 382.528 889.907 370.884 889.361C366.093 889.119 361.424 887.786 357.3 885.302C356.694 884.938 356.148 884.575 355.542 884.272C353.176 882.393 351.115 880.273 348.81 878.334C346.506 876.395 344.08 874.577 341.594 872.88C339.289 871.305 336.742 870.033 334.317 869.003C332.558 868.215 330.617 867.427 328.677 867.124C328.313 866.882 327.888 866.579 327.464 866.337C326.797 866.094 326.069 865.912 325.402 865.731C323.34 865.246 321.218 864.943 319.095 864.64C318.125 864.519 317.155 864.337 316.184 864.337C315.275 864.337 314.486 864.276 314.001 863.368C313.819 863.004 313.698 862.459 314.001 862.095C314.486 861.429 315.153 861.005 315.76 860.399C316.427 859.793 316.973 859.126 317.64 858.581C319.035 857.43 320.672 856.581 322.431 856.097C325.887 855.188 329.344 854.764 332.922 854.824C336.439 854.885 339.835 855.733 343.292 856.339C344.141 856.46 345.05 856.642 345.899 856.824C347.719 857.006 349.477 857.187 351.297 857.43C385.014 861.974 418.61 866.882 452.327 871.426C454.753 871.548 457.179 871.729 459.665 871.85C463.061 871.972 466.457 872.153 469.853 872.456C473.249 872.759 476.585 873.062 479.981 873.062C483.377 873.002 486.773 872.578 490.108 872.032C493.443 871.487 496.839 871.063 500.175 870.457C503.328 869.911 506.3 869.063 509.271 867.912C509.756 867.73 510.241 867.548 510.727 867.367C511.272 867.245 511.818 867.185 512.364 867.064C514.304 866.64 516.245 866.034 518.186 865.488C521.945 864.398 525.523 862.944 528.919 861.126C530.617 860.278 529.465 857.369 527.585 858.036C525.463 858.823 523.28 859.126 521.036 859.308C519.884 859.429 518.731 859.429 517.64 859.55C516.427 859.611 515.275 859.853 514.062 859.793C513.698 859.793 513.334 859.914 513.031 860.156C483.377 860.096 454.086 856.339 424.371 850.159C422.431 849.795 420.49 849.371 418.549 848.947C416.67 848.523 414.729 848.099 412.849 847.674C410.302 847.19 407.694 846.766 405.147 846.281C401.994 845.675 398.901 845.069 395.748 844.887C394.353 844.827 393.019 844.705 391.624 844.705C390.472 844.705 389.198 844.705 388.167 844.16C387.5 843.797 387.44 843.009 387.682 842.403C387.622 842.161 387.682 841.918 387.743 841.615C387.985 840.888 388.713 840.403 389.32 840.04C389.562 839.858 389.865 839.676 390.108 839.555C390.169 839.555 390.169 839.495 390.229 839.495C389.987 839.616 390.532 839.313 390.351 839.434C390.29 839.434 390.229 839.495 390.229 839.495C390.229 839.495 390.29 839.495 390.351 839.434C390.472 839.373 390.593 839.252 390.775 839.192C393.443 838.162 396.294 837.556 399.022 836.586C404.42 834.708 409.999 833.557 415.639 832.648C421.4 831.678 427.221 831.436 433.104 831.497C438.925 831.557 444.747 832.042 450.569 832.708C456.391 833.375 462.273 833.92 468.034 834.768C473.795 835.617 479.495 836.586 485.196 837.495C487.985 837.919 490.775 838.343 493.565 838.768C496.354 839.192 499.144 839.373 501.933 839.555C507.634 839.919 513.395 840.04 519.095 839.737C521.885 839.616 524.735 839.495 527.525 839.131C529.101 838.949 530.739 838.767 532.315 838.465C534.984 838.04 537.591 837.253 540.26 836.465C540.32 836.465 540.381 836.465 540.502 836.404C542.807 835.92 544.99 835.193 547.234 834.526C549.295 833.92 548.446 830.769 546.324 831.254C544.08 831.739 541.897 832.466 539.714 833.133C538.44 833.435 537.167 833.617 535.833 833.738C532.073 834.041 528.313 834.587 524.492 834.405C520.733 834.223 516.912 833.799 513.213 833.193C512.849 833.132 512.485 833.072 512.061 833.011C513.213 832.951 514.304 832.769 515.396 832.284C515.517 832.224 515.639 832.163 515.699 832.042C516.791 831.8 517.822 831.557 518.853 831.194C520.005 831.012 521.096 830.83 522.249 830.769C523.522 830.648 524.796 830.163 526.069 829.861C527.221 829.618 528.313 829.315 529.465 828.952C530.981 828.467 532.497 827.922 534.013 827.376C541.836 823.68 550.084 819.802 555.42 808.956C523.947 816.894 495.323 821.559 465.911 821.923C439.532 822.287 413.516 820.287 387.076 815.622C382.952 816.167 378.768 816.53 374.644 817.015C374.583 817.015 374.462 817.015 374.401 817.015C373.613 817.076 372.825 816.833 372.4 816.227C371.309 816.53 370.156 815.076 371.127 814.107C374.523 810.592 378.768 808.048 383.255 806.169C391.563 802.655 400.599 801.08 409.514 800.05C412.303 799.686 415.153 799.444 417.943 799.262C420.611 799.08 423.219 799.08 425.887 799.02C426.372 799.02 426.858 799.019 427.403 798.959C430.193 798.656 432.922 798.232 435.59 797.686C447.415 795.142 455.36 788.234 461.06 776.479C461.181 776.358 461.242 776.177 461.363 776.055C461.97 774.419 462.516 772.783 463.122 771.147C463.668 769.633 464.274 767.997 464.517 766.421C464.577 766.118 464.638 765.755 464.638 765.452C464.517 765.331 464.395 765.21 464.274 765.088C464.274 765.088 464.214 765.088 464.214 765.028H464.153C464.032 765.028 463.971 765.028 463.85 765.028C463.789 765.028 463.668 765.028 463.607 765.088C463.122 765.573 462.637 766.058 462.152 766.542C461.363 767.27 460.636 767.997 459.787 768.663C457.3 771.329 454.025 773.208 450.629 774.844C450.023 775.025 449.417 775.207 448.81 775.449C448.022 775.874 447.294 776.298 446.506 776.661C446.263 776.782 446.021 776.904 445.778 777.025C445.414 777.146 445.111 777.328 444.747 777.449C444.565 777.51 444.444 777.631 444.323 777.752C442.928 778.479 441.594 779.206 440.26 779.933C438.986 780.6 437.713 778.964 438.744 777.934C440.745 775.934 443.17 774.359 445.05 772.238C445.96 771.147 446.87 770.057 447.779 768.966C448.507 768.057 449.174 767.148 450.023 766.3C453.176 760.908 456.451 755.757 455.845 749.456C455.845 749.395 455.905 749.274 455.905 749.213C456.209 747.456 456.391 745.699 456.694 743.942C456.997 742.064 457.3 740.125 457.24 738.246C457.24 737.337 456.451 736.671 455.663 736.55C455.299 736.792 454.996 737.095 454.753 737.459C453.904 738.61 453.54 739.943 452.873 741.155C452.328 742.245 451.721 743.397 451.054 744.427C450.326 745.517 449.417 746.487 448.568 747.396C447.658 748.365 446.748 749.395 445.839 750.365C444.929 751.334 443.959 752.182 442.928 752.97C442.564 753.273 442.2 753.515 441.836 753.818C435.529 760.059 429.465 766.24 421.157 770.299C420.915 770.542 420.672 770.723 420.429 770.966C419.641 771.693 418.853 772.42 417.943 773.086C417.155 773.692 416.184 774.238 415.335 774.783C414.547 775.268 413.819 775.874 412.91 776.237C412 776.601 411.09 775.51 411.333 774.662C411.757 773.268 412.849 772.117 413.698 770.966C414.547 769.693 415.517 768.542 416.245 767.209C416.609 766.603 416.851 765.997 417.155 765.391C418.004 764.119 418.853 762.846 419.58 761.513C420.308 760.18 420.915 758.787 421.46 757.393C421.582 756.969 421.703 756.545 421.764 756.121C421.885 755.394 421.945 754.727 422.006 754V753.939C422.006 753.636 421.945 753.273 421.945 752.97C421.642 752.728 421.218 752.546 420.854 752.546C420.672 752.606 420.551 752.728 420.429 752.849C420.066 753.152 419.762 753.455 419.52 753.818C419.277 754.121 418.974 754.364 418.731 754.545C415.942 758.666 410.908 760.544 406.845 763.271C405.572 764.119 404.359 765.028 403.146 765.876C398.659 767.936 394.171 769.936 389.744 771.935C389.562 771.996 389.38 772.056 389.138 772.117C387.804 772.541 386.53 773.026 385.196 773.51C384.832 773.632 384.408 773.692 384.044 773.813C381.861 774.359 379.617 774.965 377.434 775.51C375.432 775.995 373.492 776.358 371.491 776.419C370.52 776.479 369.55 776.419 368.64 776.177C368.58 775.934 368.519 775.752 368.519 775.51C369.489 773.935 370.581 772.359 371.612 770.784C372.703 769.087 373.795 767.451 374.887 765.815C377.191 762.483 379.738 759.393 381.739 755.939C382.77 754.121 383.801 752.364 384.771 750.486C393.383 736.429 402.055 722.25 411.515 708.435C433.164 676.867 455.723 645.966 478.343 615.124C504.177 580.042 541.412 564.894 582.77 557.926C590.593 556.593 598.78 555.018 607.876 560.107C610.727 570.166 613.759 581.011 616.852 591.918C618.913 599.128 622.855 604.763 628.859 609.611C653.176 629.424 679.01 645.057 711.151 646.45C712.182 646.571 713.274 646.693 714.304 646.814C715.214 647.056 716.184 647.299 717.155 647.541C717.458 647.601 717.761 647.601 718.004 647.541C718.974 647.904 719.884 648.207 720.854 648.51C724.553 649.601 728.252 650.51 731.648 652.449C736.803 655.418 741.836 660.507 741.897 666.809C741.897 667.9 741.776 668.99 741.715 670.141C741.654 670.747 741.594 671.293 741.594 671.899C741.594 672.202 741.533 672.505 741.533 672.807C741.533 672.747 741.472 673.474 741.533 673.11C741.291 674.868 740.441 676.685 741.351 678.382C741.594 678.867 742.261 679.23 742.807 679.23C745.172 679.17 746.627 677.594 747.355 675.595C747.415 675.534 747.476 675.413 747.537 675.352C754.753 661.659 749.841 648.571 735.772 644.269C731.83 643.118 727.828 642.391 723.765 641.724C723.643 641.663 723.462 641.603 723.34 641.603C720.611 640.815 717.761 640.391 715.154 639.422C714.305 639.119 713.274 638.573 712.425 637.967C712.364 637.907 712.121 637.725 712.061 637.725C711.939 637.604 711.818 637.543 711.697 637.422C711.697 637.362 711.697 637.301 711.636 637.24C711.636 636.998 711.636 636.816 711.636 636.574C711.636 636.331 711.636 636.089 711.636 635.847C711.636 635.726 711.636 635.604 711.636 635.544C711.636 635.483 711.636 635.483 711.636 635.423C711.697 635.362 711.697 635.241 711.697 635.12C712.607 634.211 713.274 633.241 713.88 632.151C714.001 631.969 714.062 631.848 714.183 631.666C715.881 631.181 717.64 630.696 719.398 630.272C730.435 627.425 741.654 625.122 752.449 621.729C763.001 618.457 771.673 611.974 773.734 600.34C778.04 576.831 781.072 553.503 766.518 531.872C764.092 528.297 759.423 524.54 764.577 518.057C770.945 518.057 778.283 518.299 785.499 517.936C794.535 517.451 800.296 511.452 804.723 504.484C806.482 501.758 808.18 498.728 808.18 495.699C809.938 491.942 811.212 487.943 811.758 483.762C811.818 483.52 811.879 483.338 812 483.096C811.879 482.49 811.879 482.126 811.697 481.823ZM204.056 391.421C199.993 397.238 196.051 403.115 192.291 409.174C188.592 415.112 185.135 421.232 182.224 427.594C178.768 433.047 175.372 438.44 171.915 443.893C168.64 443.408 165.79 443.651 163.971 442.56C147.658 432.138 146.809 426.806 157.967 411.477C170.096 394.693 187.015 384.877 207.816 378.03C208.058 378.272 208.422 378.515 208.786 378.636C210.302 382.817 206.239 388.391 204.056 391.421Z" fill="var(--fill-0, #312E21)" fill-opacity="0.8"/>
</g>
</svg>
