<svg preserveAspectRatio="none" width="100%" height="100%" overflow="visible" style="display: block;" viewBox="0 0 391.22 695.812" fill="none" xmlns="http://www.w3.org/2000/svg">
<path id="Vector" d="M208.313 533.874C214.693 528.048 220.962 522.222 227.341 516.396C233.61 510.68 239.879 506.074 246.149 500.578C252.418 495.082 258.797 489.806 264.736 484.09C268.036 480.902 271.005 477.385 274.195 474.197C275.515 472.878 276.945 471.559 277.934 469.91C278.374 469.47 278.924 469.031 279.254 468.481C280.464 466.942 281.014 465.183 280.904 463.205C280.794 462.105 280.794 461.006 280.684 459.797C280.904 456.28 280.574 452.872 280.244 449.354C279.364 438.362 279.474 430.26 279.144 419.268C278.924 413.662 278.924 408.056 279.364 402.45C279.694 396.844 280.244 391.238 280.464 385.632C280.684 379.916 280.354 374.09 280.244 368.374C280.134 362.768 280.024 357.052 280.024 351.336C280.134 344.961 280.464 338.476 280.574 332.1C280.574 326.604 280.574 321.108 280.574 315.612C281.344 313.853 281.344 311.435 281.454 309.676C281.564 307.368 281.564 304.949 281.454 302.641C281.344 299.893 281.014 297.145 280.904 294.287C280.794 291.539 280.904 288.901 280.904 286.153C280.904 280.877 280.134 275.6 280.244 270.214C280.354 266.477 280.574 262.849 278.264 259.882C277.604 257.353 275.295 255.375 273.425 253.726C270.345 250.868 267.156 248.23 264.076 245.372C258.027 239.656 252.198 233.83 246.368 228.004C240.539 222.178 234.6 216.353 228.441 210.747C222.172 205.031 215.902 199.425 209.743 193.489C208.423 192.17 206.994 190.851 205.784 189.422C204.794 188.323 203.914 187.113 202.814 186.014C200.724 183.926 197.865 181.947 194.785 183.156C194.675 183.266 194.455 183.266 194.345 183.376C193.905 183.156 193.355 183.266 192.805 183.706C190.606 185.684 187.856 187.004 185.656 189.202C183.127 191.62 180.487 194.038 177.847 196.457C172.458 201.403 167.069 206.46 161.679 211.516C156.62 216.133 151.671 220.859 146.611 225.366C141.442 229.983 136.053 233.94 130.443 238.007C124.284 242.404 118.345 247.131 112.956 252.517C112.736 252.737 112.626 252.957 112.516 253.176C108.776 256.144 110.316 261.201 109.876 265.598C109.216 272.742 110.316 279.777 110.316 286.922C110.316 294.287 109.546 301.652 109.876 308.907C110.096 312.644 110.426 316.381 110.426 320.119C110.536 323.856 110.206 327.593 110.096 331.441C109.876 338.805 110.096 346.06 110.096 353.425C110.096 360.68 109.326 367.935 109.436 375.189C109.656 382.774 109.986 390.359 109.766 398.053C109.656 401.571 109.216 405.088 108.886 408.606C108.556 412.233 108.886 415.861 108.886 419.598C109.106 427.842 108.006 432.976 107.676 441.22C107.346 448.475 109.766 455.62 109.326 462.765C108.886 463.095 108.776 463.644 108.996 464.194C109.106 464.304 109.106 464.524 109.216 464.634V464.744C109.106 465.403 109.436 465.843 109.876 466.063C111.196 468.481 112.956 470.459 115.045 472.438C117.905 475.186 120.545 478.264 123.404 481.012C129.233 486.728 135.393 492.004 141.552 497.39C147.821 502.886 153.87 507.712 159.92 513.538C162.889 516.396 165.859 519.254 168.608 522.222C171.578 525.3 174.328 528.597 177.187 531.675C180.267 534.973 183.786 536.941 186.976 540.128C189.176 542.217 191.815 544.855 195.005 543.646C195.225 543.646 195.445 543.646 195.775 543.536C197.425 543.206 198.635 542.107 199.734 540.898C202.484 538.26 205.344 536.512 208.313 533.874ZM195.115 530.466C194.565 530.466 194.125 530.576 193.905 531.016C191.925 530.576 190.166 529.257 188.736 528.158C186.646 526.509 184.556 524.75 182.357 523.211C176.527 519.254 171.028 514.747 166.189 509.691C161.019 504.195 156.07 499.479 150.791 494.093C145.841 489.036 140.342 484.529 135.173 479.693C132.313 476.945 129.673 473.977 126.924 471.009C124.284 468.041 121.534 465.183 119.115 461.995C119.555 459.797 119.445 457.379 119.225 455.18C119.005 452.103 119.005 449.135 118.895 446.057C118.675 439.242 119.335 435.536 118.895 428.721C118.675 425.424 118.345 422.126 118.235 418.718C118.125 415.311 118.125 411.903 118.235 408.496C118.345 401.791 118.565 394.975 118.345 388.16C118.125 381.345 117.905 374.53 118.015 367.605C118.125 360.79 118.345 354.085 118.455 347.269C118.675 333.529 118.455 319.789 118.235 306.049C118.125 298.574 117.795 291.099 118.565 283.625C119.445 276.26 120.765 269.005 120.875 261.64C120.875 261.53 120.875 261.42 120.875 261.311C122.084 259.002 124.284 257.134 126.044 255.485C128.794 252.847 131.213 249.989 133.963 247.46C140.012 241.745 146.391 236.468 152.441 230.862C158.27 225.366 163.659 219.211 170.038 214.264C174.988 210.417 180.047 206.899 184.336 202.283C186.206 200.304 188.186 198.216 190.276 196.567C191.705 195.467 193.905 193.709 195.885 194.588C196.435 194.808 196.875 194.698 197.205 194.368C199.405 195.358 200.944 197.446 202.594 199.095C204.904 201.293 207.323 203.272 209.633 205.36C212.053 207.559 214.583 209.867 217.222 211.956C219.642 213.934 222.172 215.803 224.701 217.672C227.231 219.65 229.651 221.629 231.74 223.937C233.83 226.136 235.81 228.664 237.79 230.972C242.079 235.919 247.138 240.206 251.428 245.042C253.738 247.57 255.827 250.099 258.577 252.187C260.667 253.726 262.756 255.265 264.736 256.914C266.496 258.563 268.256 260.211 269.905 262.08C272.435 264.938 272.215 268.565 272.105 272.193C271.995 276.59 272.215 280.987 272.325 285.383C272.435 290.11 272.545 294.947 272.435 299.673C272.325 302.201 272.215 304.84 272.215 307.368C272.215 307.698 272.215 308.137 272.215 308.577C271.665 308.907 271.335 309.456 271.555 310.226C272.765 314.733 272.215 319.569 272.215 324.296C272.105 329.462 272.435 334.628 272.325 339.795C272.215 345.291 271.995 350.787 271.995 356.283C272.105 361.889 272.325 367.495 272.325 373.101C272.325 378.597 271.995 384.093 271.995 389.589C271.885 395.195 272.105 400.691 272.215 406.297C272.325 411.793 272.545 417.289 272.325 422.786C272.215 428.392 271.665 430.998 271.665 436.604C271.665 442.649 271.885 448.475 271.335 454.521C271.115 457.489 271.005 460.457 270.565 463.315C270.235 465.183 269.466 466.722 268.476 468.261C263.306 472.328 258.577 476.835 253.848 481.452C249.008 486.178 243.949 490.795 238.889 495.412C234.05 499.809 229.101 502.986 224.151 507.273C219.202 511.669 214.803 516.616 209.963 521.123C207.433 523.431 204.904 525.739 202.154 527.718C200.284 528.597 197.645 530.686 195.115 530.466ZM389.13 176.451C387.92 174.582 386.051 173.153 384.291 171.834C381.871 170.076 379.561 168.427 377.362 166.448C375.162 164.47 372.962 162.491 370.433 160.952C367.903 159.413 366.143 157.215 363.943 155.346C361.964 153.697 359.654 152.488 357.784 150.729C355.585 148.751 353.935 146.332 351.625 144.354C349.205 142.265 346.566 140.507 344.146 138.418C343.816 138.088 343.486 137.869 343.156 137.539C342.606 136.989 342.056 136.44 341.506 136C341.506 135.56 341.286 135.12 340.956 134.681C339.197 132.482 336.777 130.064 334.027 128.635C332.268 126.876 330.508 125.118 328.638 123.469C328.418 123.249 328.198 123.139 327.868 123.139C324.019 119.182 319.619 115.884 315.88 111.927C311.81 107.64 307.851 103.243 303.451 99.286C298.942 95.2189 293.992 91.5915 289.373 87.5244C284.644 83.4573 279.914 79.2802 275.295 75.1032C266.166 66.7492 257.367 58.1753 248.568 49.4914C240.099 41.2473 232.51 32.1238 223.821 24.0995C218.872 19.5927 213.483 15.4157 208.643 10.799C206.554 8.82042 204.684 6.95175 203.034 4.75331C202.044 3.43425 200.834 2.11519 199.405 1.34574C199.295 1.1259 199.075 1.01597 198.855 0.796131C195.115 -1.62215 191.156 2.00527 188.626 4.53347C187.306 5.85253 186.206 7.39143 184.996 8.82042C183.457 10.6891 181.697 12.4478 179.937 14.0967C175.208 18.4935 170.038 22.5606 165.529 27.1773C161.349 31.3544 157.61 35.8612 153.65 40.1481C141.552 52.899 129.123 65.2103 116.035 76.9719C114.385 77.9612 112.846 79.0604 111.306 80.2695C104.267 83.6771 98.1075 89.1732 92.3882 94.4494C89.1986 97.4173 86.339 100.715 83.2594 103.793C82.0495 105.002 80.8397 106.321 79.5198 107.53C75.7803 110.498 72.0408 113.466 68.5212 116.544C55.7629 127.536 43.9944 139.737 31.346 150.839C26.9466 154.687 22.5471 158.754 18.4776 163.041C16.3879 164.689 14.5181 166.558 12.6484 168.537C9.89873 171.395 6.92911 174.143 4.94937 177.66C3.07961 180.848 2.19972 184.475 1.86976 188.213C1.5398 192.829 2.19972 197.556 2.08973 202.173C1.97975 207.009 1.42982 211.736 1.31983 216.463C1.20985 221.409 1.31983 226.355 1.42982 231.302C1.5398 241.085 1.5398 250.868 1.97975 260.651C2.19972 266.037 2.41969 271.313 2.41969 276.7C2.41969 279.228 2.63966 281.866 2.63966 284.394C2.63966 286.593 2.63966 288.901 3.18959 291.099C3.18959 291.099 3.18959 291.209 3.29958 291.209C3.18959 291.429 3.07961 291.649 3.07961 291.979C2.96962 293.957 3.07961 296.046 3.18959 298.024C3.18959 298.904 3.18959 299.673 3.29958 300.553C3.51955 304.95 3.84951 309.346 3.73952 313.743C3.62954 321.108 2.74965 328.363 2.74965 335.728C2.74965 342.982 3.73952 350.237 3.62954 357.602C3.51955 361.119 3.18959 364.637 3.18959 368.154C3.18959 371.892 3.29958 375.629 3.51955 379.366C4.17947 394.096 3.84951 408.826 2.96962 423.555C2.52968 430.92 1.86976 438.394 1.5398 445.759C1.20985 453.124 1.5398 460.489 0.879888 467.853C0.54993 471.921 0 475.878 0 479.945C0 484.122 0.54993 488.189 0.879888 492.366C1.20985 495.993 1.5398 499.731 1.09986 503.358C0.769902 506.216 0.219972 509.294 1.42982 512.042C1.5398 512.372 1.86976 512.592 2.08973 512.702C12.2084 526.442 27.3865 534.686 40.3648 545.348C47.7339 551.504 54.2231 558.649 61.0422 565.244C62.802 566.893 64.4518 568.432 66.4315 569.861C68.3013 571.18 70.281 572.499 71.9308 574.038C73.6906 575.687 75.3404 577.445 76.9902 579.094C78.6399 580.743 80.5097 582.172 82.0495 583.931C83.4793 585.58 84.7992 587.448 86.229 589.207C87.6588 590.966 89.3086 592.615 91.0684 594.263C92.3882 595.473 93.708 596.572 95.1378 597.671C97.9975 600.419 100.967 603.057 103.827 605.805C110.426 611.961 117.025 622.006 123.844 627.722C125.054 628.712 126.154 629.701 127.364 630.58C133.633 636.516 139.792 644.562 146.061 650.498C148.371 652.696 150.791 654.894 153.21 657.093C155.63 660.72 159.37 663.358 162.559 666.216C165.199 668.525 167.509 673.163 170.258 675.251C174.328 679.319 178.507 683.276 182.467 687.343C184.336 689.321 186.316 691.3 188.516 692.949C190.166 694.268 192.255 695.917 194.455 695.807C195.335 695.807 196.215 695.477 196.875 694.817C197.315 695.037 197.755 695.037 198.195 694.817C201.824 693.059 204.244 689.651 206.774 686.683C209.853 682.946 213.483 679.868 216.892 676.57C220.632 672.833 224.041 666.876 227.891 663.249C231.52 659.731 235.59 656.873 239.109 653.356C246.808 646.101 254.507 638.846 262.646 630.031C270.785 623.216 278.374 615.961 286.183 608.816C294.102 601.781 301.581 590.196 309.06 582.722C316.43 575.357 324.129 568.322 331.938 561.287C335.787 557.879 339.527 554.252 343.486 550.954C347.336 547.657 351.405 544.469 355.365 541.281C359.324 538.093 363.284 534.906 367.133 531.498C370.873 528.2 374.172 524.463 378.132 521.385C381.211 518.967 385.501 517.648 387.59 514.021C389.46 510.723 389.68 506.656 389.79 503.028C389.9 498.741 389.9 494.345 389.79 490.058C389.68 487.859 389.57 485.551 389.57 483.352C389.57 481.704 389.79 479.945 389.68 478.296C389.68 477.417 389.57 476.427 389.35 475.548C389.79 473.899 389.46 472.14 389.13 470.382C388.69 467.853 388.69 465.655 388.8 463.127C389.24 457.191 388.47 451.365 388.14 445.429C388.03 442.462 387.92 439.604 388.14 436.636C388.36 433.998 389.02 431.469 389.35 428.831C389.68 426.193 389.35 423.555 388.03 421.137C387.48 420.147 386.711 419.268 386.491 418.059C386.161 416.52 386.711 414.981 387.15 413.662C388.03 410.914 388.58 408.276 388.58 405.418C388.47 402.45 388.03 399.592 387.92 396.734C387.59 390.249 387.041 383.873 386.711 377.388C386.161 364.637 387.59 351.996 387.48 339.245C387.37 332.21 387.37 325.285 387.7 318.25C387.81 314.842 388.03 311.435 388.03 308.027C387.92 304.62 387.81 301.102 388.25 297.695C388.25 297.365 388.25 297.145 388.14 296.815C388.69 295.276 388.58 293.628 388.58 292.089C388.47 289.67 388.14 287.362 388.14 284.944C388.03 280.987 388.47 277.029 388.58 273.072C388.69 268.895 388.69 264.828 388.69 260.651C388.69 252.187 388.58 243.613 389.02 235.149C389.24 230.862 389.79 226.575 390.01 222.288C390.23 218.331 390.12 214.484 389.79 210.527C389.57 208.328 389.35 206.02 389.35 203.822C389.35 201.623 389.57 199.425 389.79 197.226C390.12 192.829 389.57 188.432 390.67 184.146C391 183.926 391.11 183.706 391.22 183.266C390.89 181.068 390.45 178.54 389.13 176.451ZM198.855 136.33C199.185 132.812 199.295 129.295 199.624 125.887C200.174 120.391 200.944 114.895 200.944 109.399C200.944 106.651 201.714 104.013 202.044 101.374C202.374 98.8463 201.934 96.428 201.604 94.0097C199.954 82.9076 198.415 71.2559 200.394 60.0439C201.384 54.7677 202.264 49.4914 203.694 44.3251C204.134 42.5664 204.354 40.8076 204.684 38.939C204.794 38.4993 204.794 37.7298 205.124 37.6199C205.784 37.51 206.994 38.7191 207.433 39.0489C211.943 42.6763 215.902 46.8533 220.412 50.4807C224.591 53.8883 228.771 57.7356 231.74 62.3523C232.07 62.9019 232.62 63.1217 233.17 63.0118C234.49 64.111 235.92 65.3202 237.35 66.4194C239.219 67.8484 241.199 69.1674 243.069 70.7063C244.829 72.2452 246.478 74.004 247.908 75.8727C249.338 77.6314 250.548 79.3902 252.418 80.8191C253.958 82.0283 255.717 83.1275 257.367 84.1168C259.347 85.3259 261.217 86.7549 262.976 88.4037C266.496 91.7014 269.466 95.5486 272.655 99.1761C275.735 102.694 279.034 105.991 282.884 108.519C284.864 109.729 287.063 110.718 288.933 112.147C290.693 113.466 292.233 115.005 293.772 116.544C297.182 120.171 300.592 123.799 304.331 127.096C306.201 128.745 308.071 130.284 310.05 131.713C312.14 133.142 314.12 134.571 315.77 136.44C317.529 138.308 319.399 139.627 321.709 140.836C322.809 141.386 323.909 141.936 324.788 142.815C325.888 143.804 326.768 144.903 327.758 146.003C329.738 148.091 331.498 150.29 333.477 152.378C335.347 154.467 337.327 156.445 338.757 158.864C338.977 159.193 339.197 159.413 339.527 159.523C342.716 164.14 347.446 166.998 351.735 170.515C354.265 172.604 356.464 174.912 358.114 177.77C358.884 179.089 359.654 180.518 360.314 181.947C360.754 182.826 361.084 183.816 361.524 184.805C361.414 185.135 361.304 185.465 361.414 185.794C362.074 187.993 359.544 189.752 358.224 191.181C356.134 193.489 354.045 195.797 351.845 197.886C349.645 199.974 347.226 201.953 344.916 203.931C342.606 206.02 340.296 208.108 338.097 210.307C328.858 219.101 319.509 227.784 309.72 236.029C307.411 238.007 305.211 239.986 303.011 242.294C301.361 244.053 299.712 245.592 297.842 246.911C296.192 244.932 293.772 243.503 292.013 241.854C288.713 238.887 285.743 235.479 282.554 232.401C275.735 226.026 269.246 219.32 262.756 212.725C256.157 206.02 249.558 199.315 242.519 193.159C239.219 190.191 235.59 187.553 232.29 184.585C228.771 181.397 225.581 177.88 222.172 174.582C215.242 167.767 208.203 160.842 200.504 154.796C200.174 154.137 199.734 153.477 199.295 152.818C198.635 151.719 198.745 150.4 198.745 149.19C198.855 146.223 198.525 143.145 198.415 140.177C198.855 138.638 198.855 137.429 198.855 136.33ZM29.5862 175.352C31.346 173.373 33.4357 171.614 35.5255 169.966C40.6948 165.789 45.0942 160.952 49.7136 156.225C54.773 151.169 59.8323 145.893 65.1117 140.946C66.1015 140.067 66.9814 139.188 67.9713 138.308C68.4112 137.868 68.8512 137.539 69.2911 137.099C73.4706 133.362 77.6501 129.734 81.9395 126.217C84.7992 123.689 87.7688 121.27 90.6284 118.742C93.0481 116.654 95.5778 114.675 97.9975 112.696C100.307 110.828 102.507 108.739 104.267 106.211C105.806 103.903 105.806 100.605 108.116 98.9562C110.426 97.3074 113.286 96.7578 115.595 95.2189C118.455 93.3502 121.095 90.9319 123.624 88.6236C126.374 86.2053 129.123 83.8969 131.763 81.4787C133.963 79.3902 135.943 77.1917 138.142 75.2131C140.452 73.1246 142.982 71.6956 145.621 70.1567C147.491 69.0575 149.251 67.7384 150.901 66.4194C152.551 65.1003 155.19 63.1217 156.62 60.7035C162.449 52.7891 169.928 45.7541 178.067 40.258C180.047 38.939 182.027 37.7298 184.116 36.7405C184.996 36.3008 186.426 35.6413 186.756 36.4108C187.416 37.6199 187.306 39.2687 187.416 40.5878C187.636 43.116 187.966 45.7541 188.296 48.2823C188.736 51.1403 189.066 53.8883 189.066 56.7463C189.066 59.4943 188.846 62.3523 188.626 65.1003C188.406 67.8484 188.186 70.7063 188.296 73.4544C188.406 76.2024 188.956 78.8405 189.396 81.5886C189.946 84.3366 190.496 87.0847 190.606 89.9426C190.716 92.6907 190.386 95.4387 190.056 98.0768C189.726 100.825 189.286 103.573 189.396 106.431C189.506 109.179 189.836 112.037 190.166 114.785C190.936 121.16 191.706 127.426 191.596 133.801C191.486 140.177 191.046 146.552 191.046 152.928C188.736 155.346 186.866 158.204 184.556 160.622C181.697 163.59 178.287 165.899 174.988 168.317C171.688 170.735 168.938 173.483 166.189 176.451C163.549 179.419 160.909 182.387 157.72 184.915C154.64 187.333 152.331 190.411 150.021 193.489C147.381 197.006 144.192 199.644 140.892 202.502C137.482 205.36 134.073 208.328 130.663 211.296C127.254 214.374 124.064 217.562 120.655 220.749C117.135 224.047 113.505 227.345 109.876 230.642C107.346 232.951 104.927 235.369 103.387 238.337C101.847 239.656 100.747 241.415 99.6473 243.173C98.7674 244.712 97.7775 246.251 95.7977 246.031C94.2579 245.922 92.8281 245.042 91.5083 244.383C89.6385 243.393 87.9887 242.294 86.339 241.195C83.0394 238.887 79.7398 236.358 76.6602 233.83C70.171 228.664 64.3418 222.838 58.1826 217.232C51.8034 211.516 45.0942 206.24 38.825 200.524C36.7353 198.655 34.6456 196.787 32.7758 194.698C32.6658 194.588 32.6658 194.478 32.5558 194.478C31.346 192.829 30.1361 191.29 28.8163 189.861C28.7063 189.752 28.5963 189.532 28.4864 189.422C28.1564 188.652 27.7165 187.883 27.2765 187.003C26.7266 185.684 26.5066 184.255 26.8366 182.826C26.9466 182.057 26.6166 181.507 26.1767 181.178C26.7266 178.869 28.1564 176.891 29.5862 175.352ZM23.757 494.894C23.097 494.784 22.3271 494.674 21.7772 494.345C21.3373 494.125 21.2273 494.125 21.3373 493.795C21.7772 492.806 21.2273 491.926 20.4574 491.597C19.9075 489.398 20.0174 487.09 20.2374 484.781C20.4574 481.814 20.5674 478.956 20.4574 476.098C20.4574 472.69 20.4574 469.282 20.4574 465.765C20.3474 462.357 20.1274 458.84 19.7975 455.432C18.6976 441.692 17.8177 428.062 18.9176 414.322C20.0174 400.801 19.6875 387.171 19.6875 373.541C19.6875 359.8 19.9075 346.06 20.4574 332.32C20.5674 328.583 20.7873 324.735 20.7873 320.998C20.7873 317.481 20.4574 313.963 20.5674 310.446C20.6774 304.07 21.7772 297.365 19.9075 291.099C19.9075 290.989 19.7975 290.88 19.7975 290.88C19.9075 290.66 19.9075 290.33 19.9075 290C18.5876 283.625 19.1376 277.139 19.4675 270.654C19.7975 264.059 19.6875 257.463 19.4675 250.758C19.3575 243.833 19.3575 236.908 19.5775 229.983C19.7975 223.168 19.2475 216.243 19.4675 209.428C19.4675 207.669 19.6875 205.8 19.7975 204.041C19.7975 203.272 19.6875 202.063 20.4574 201.733C21.6672 202.722 23.317 203.162 24.5269 204.151C25.5167 204.921 26.2866 205.8 27.3865 206.46C28.3764 207.009 29.4762 207.559 30.5761 208.108C31.016 208.328 31.566 208.548 32.0059 208.768C32.5558 209.208 33.2158 209.428 33.8757 209.647C34.7556 210.087 35.1955 210.637 35.8554 211.406C36.6253 212.286 37.5052 212.945 38.2751 213.824C38.6051 214.154 38.935 214.594 39.375 215.034C39.9249 215.913 40.4748 216.682 41.1347 217.452C42.8945 219.54 44.8743 221.299 47.074 222.948C51.4734 226.355 56.2028 229.213 60.7122 232.511C65.8816 236.139 70.8309 240.096 75.8903 243.723C78.6399 245.702 81.2796 247.9 83.6993 250.318C84.7992 251.418 85.789 252.517 86.6689 253.836C87.2188 254.715 87.7688 255.705 88.4287 256.474C88.4287 256.584 88.4287 256.694 88.5387 256.804C89.5286 259.662 88.7586 262.74 88.7586 265.707C88.7586 269.225 89.1986 272.742 89.6385 276.26C90.2985 283.185 90.0785 290 89.5286 296.925C88.4287 311.325 89.9685 325.725 90.1885 340.124C90.2985 347.269 89.9685 354.414 90.4084 361.559C90.8484 368.704 92.0582 375.739 92.2782 382.774C92.4982 389.919 92.1682 397.064 91.7283 404.209C91.1783 411.354 90.8484 418.499 90.7384 425.753C90.6284 433.778 90.4084 438.802 90.0785 446.936C89.9685 450.783 89.8585 454.741 89.6385 458.698C89.4186 462.545 88.7586 466.282 88.6487 470.02C88.2087 470.679 87.7688 471.339 87.3288 472.108C86.6689 473.208 85.679 473.757 84.4692 474.307C82.1595 475.406 79.5198 477.175 77.1001 478.055C71.6008 479.814 65.8816 483.133 60.1623 484.452C54.553 485.771 48.9437 487.31 43.5544 489.618C41.0248 490.717 38.715 492.146 36.1854 493.465C33.5457 494.894 30.906 495.114 27.9364 495.224C26.3966 495.224 25.0768 495.114 23.757 494.894ZM191.705 645.881C191.815 652.256 190.936 658.742 191.596 665.117C191.156 665.227 190.826 665.557 190.606 665.997C190.276 665.777 189.946 665.447 189.616 665.117C188.736 664.238 188.076 663.358 187.306 662.479C186.536 661.71 185.766 660.94 184.996 660.171C183.237 657.862 181.037 656.324 178.727 654.675C172.898 649.179 167.839 643.133 161.569 638.186C158.71 635.878 155.74 632.339 152.331 631.02C149.141 629.811 146.391 628.492 144.192 625.744C140.012 620.687 137.812 613.982 132.423 609.915C129.343 607.607 125.824 605.958 122.524 604.089C121.095 603.21 119.555 602.33 118.235 601.231C116.585 600.022 115.155 598.483 113.505 597.274C110.756 595.186 107.566 589.647 105.147 587.119C104.047 585.909 103.167 584.37 102.177 583.051C100.967 581.403 99.6473 579.864 98.3274 578.325C95.6878 575.357 92.7181 572.719 89.7485 570.081C86.7789 567.333 83.9193 564.475 80.8397 561.727C75.0104 556.34 68.5212 551.944 63.0219 546.228C57.0827 540.072 51.8034 533.367 45.7541 527.431C43.0045 524.793 40.0349 522.375 37.1752 519.956C34.8655 517.978 32.5558 515.779 30.7961 513.361C30.906 513.251 31.016 513.031 31.016 512.702C31.676 509.294 35.5255 508.524 38.2751 507.315C42.8945 505.337 47.294 503.028 52.0233 501.16C56.7527 499.291 61.7021 497.972 66.5415 496.323C70.721 494.894 74.6805 491.245 78.6399 489.267C80.6197 488.277 82.5994 486.288 84.6892 485.629C86.4489 485.079 88.4287 484.42 90.1885 484.859C90.5184 484.969 90.8484 484.859 91.1783 484.749C93.2681 486.838 95.9077 488.377 98.1075 490.465C101.077 493.323 104.267 495.851 107.236 498.709C113.396 504.645 119.335 510.801 125.604 516.737C131.983 522.782 138.472 528.608 144.851 534.654C151.011 539.48 157.17 544.525 163.329 550.351C170.368 557.056 177.517 563.762 184.886 570.027C185.216 570.357 185.656 570.467 185.986 570.357C186.536 574.204 188.516 584.832 188.846 588.679C189.176 594.395 189.506 602.111 190.606 607.717C191.156 610.685 191.815 613.433 191.925 616.51C192.035 619.478 191.815 622.446 191.705 625.414C191.266 631.57 191.596 639.725 191.705 645.881ZM196.765 561.783C196.325 561.123 195.665 560.794 194.785 561.343C194.455 561.563 194.565 561.563 194.345 561.563C193.905 561.563 193.905 561.563 193.355 561.453C192.365 561.123 191.376 560.574 190.496 560.024C187.966 558.375 185.766 556.287 183.567 554.308C179.167 550.131 175.208 545.515 170.808 541.447C166.849 537.82 162.779 535.303 158.82 531.675C154.86 528.048 151.231 525.2 147.601 521.243C143.972 517.286 140.342 513.439 136.493 509.702C132.423 505.854 128.024 502.227 123.734 498.599C118.895 494.312 114.055 490.026 109.326 485.629C107.016 483.54 104.597 481.562 102.507 479.253C100.857 477.385 99.3173 475.296 97.4475 473.537C98.1075 470.899 97.7775 468.041 97.4475 465.403C97.1176 462.105 97.0076 459.028 97.3376 455.73C98.1075 448.035 99.5373 440.451 99.6473 432.756C99.7572 428.799 99.3173 427.952 99.4273 423.995C99.4273 420.038 99.7572 416.08 99.8672 412.123C100.197 404.209 99.9772 396.294 99.6473 388.27C99.3173 380.136 99.0973 372.112 99.2073 363.977C99.3173 356.063 99.5373 348.149 99.6473 340.234C99.7572 324.735 98.2174 309.346 98.2174 293.957C98.2174 289.67 98.3274 285.273 98.5474 280.987C98.7674 276.7 99.4273 272.523 99.2073 268.236C99.0973 266.257 98.9873 264.278 98.7674 262.3C98.5474 260.211 98.2174 258.013 98.4374 256.034C98.5474 255.265 98.7674 254.386 99.0973 253.726C99.5373 252.957 100.197 252.737 100.967 252.407C101.737 252.077 102.287 251.637 102.837 250.978C103.387 250.318 103.717 249.439 104.487 248.889C104.817 248.56 105.037 248.23 105.037 247.9C106.906 244.822 109.546 242.294 112.076 239.766C115.155 236.798 118.235 234.05 121.534 231.412C128.574 225.916 135.833 220.64 141.992 214.154C143.422 212.615 144.961 211.076 146.501 209.757C148.151 208.438 149.801 207.339 151.231 205.8C152.441 204.371 153.43 202.942 154.42 201.403C155.63 199.754 157.06 198.216 158.6 196.896C161.789 194.148 165.309 191.73 168.498 188.872C171.798 185.904 174.878 182.607 177.847 179.419C179.497 177.55 181.147 175.682 182.907 173.923C184.666 172.164 186.536 170.625 188.296 168.976C189.836 167.547 191.266 165.789 192.915 164.47C193.575 163.92 194.235 163.81 195.005 163.81C195.115 164.03 195.225 164.25 195.555 164.36C203.804 170.295 211.173 177.111 218.432 184.255C221.842 187.663 225.361 190.961 228.661 194.368C230.311 196.127 232.07 197.886 233.5 199.864C234.16 200.634 234.71 201.513 235.26 202.393C235.7 203.272 236.03 204.261 236.69 205.031C237.24 205.8 238.01 206.35 238.889 206.679C239.989 207.119 241.199 207.119 242.299 207.779C244.059 208.878 245.489 210.637 246.808 212.285C249.448 215.693 251.758 219.211 254.837 222.178C258.027 225.256 261.547 228.114 265.066 230.862C268.586 233.61 271.885 236.578 275.185 239.546C281.454 245.372 289.813 250.648 292.233 259.332C292.233 259.442 292.343 259.552 292.343 259.552C292.343 259.772 292.453 259.992 292.453 260.211C293.223 261.86 293.223 263.839 293.113 265.707C293.003 267.686 292.783 269.665 292.783 271.753C292.673 276.919 292.343 282.086 291.793 287.252C291.573 289.78 291.353 292.418 291.463 294.947C291.573 297.585 291.903 300.223 292.013 302.971C292.233 308.357 291.463 313.743 291.353 319.019C291.023 329.902 291.353 340.894 291.463 351.776C291.573 362.548 290.913 373.321 291.023 384.203C291.133 390.029 291.573 395.745 291.463 401.571C291.353 407.397 291.023 413.222 290.143 419.048C290.033 419.598 290.253 420.147 290.583 420.477C289.043 429.821 290.033 436.384 290.143 445.837C290.143 451.003 290.473 456.06 290.803 461.116C290.913 463.534 291.133 465.953 291.353 468.371C291.463 469.36 291.463 470.459 291.353 471.449C291.133 472.658 290.583 473.647 290.143 474.746C290.033 474.966 290.033 475.186 290.033 475.296C286.403 481.012 279.254 483.43 275.075 488.706C273.755 490.355 272.655 492.004 271.335 493.763C270.015 495.632 268.366 497.28 266.826 498.819C263.526 502.007 260.007 503.975 256.707 507.053C249.668 513.758 242.739 520.573 235.48 526.948C228.221 533.324 220.522 538.15 213.483 544.635C209.963 547.823 206.554 551.23 203.034 554.528C200.834 556.727 198.305 559.035 196.765 561.783ZM354.375 515.559C351.625 517.758 349.095 520.066 346.566 522.485C341.286 527.541 336.117 532.707 330.838 537.764C319.949 547.876 308.95 557.879 298.062 568.102C292.563 573.158 287.173 582.325 281.784 587.601C276.505 592.657 271.445 597.934 266.166 603.1C255.937 613.103 244.939 622.226 235.04 632.669C232.29 637.637 229.321 640.385 226.351 643.133C223.381 645.881 220.522 648.739 217.442 651.487C214.473 654.125 211.393 656.653 208.313 659.291C206.114 661.16 203.914 663.139 201.384 664.568C201.274 662.259 200.834 660.061 200.394 657.862C199.954 655.224 199.954 652.916 200.064 650.278C200.174 647.53 200.064 644.672 200.174 641.924C200.174 639.176 200.504 636.538 200.724 631.79C201.164 626.184 201.494 620.577 201.494 614.971C201.494 609.365 201.384 603.65 201.604 598.044C201.934 590.998 201.384 580.622 203.144 570.797C203.254 570.357 203.254 570.027 203.144 569.807C203.694 568.598 204.574 567.609 205.564 566.729C206.994 565.301 208.203 563.871 209.523 562.443C212.603 559.035 216.012 555.957 219.532 552.989C226.681 546.724 232.84 539.249 240.099 534.203C243.729 531.235 247.468 528.377 250.988 525.3C254.727 522.112 258.357 518.704 261.987 515.407C265.506 512.109 269.246 509.031 272.545 505.514C274.085 503.865 275.515 501.996 276.945 500.128C278.154 498.479 279.144 497.83 280.574 496.401C282.224 494.752 284.314 493.763 286.183 492.444C288.163 491.125 289.923 489.586 291.793 488.047C293.442 486.728 294.982 485.409 296.632 484.09C297.842 483.1 299.492 481.452 301.142 481.562C301.471 481.562 301.801 481.452 302.021 481.342C309.61 485.299 317.639 491.157 325.558 494.564C329.958 496.433 334.357 498.632 338.647 500.72C340.736 501.709 342.826 502.589 345.026 503.248C346.126 503.578 347.336 503.908 348.435 504.238C348.655 504.347 348.765 504.457 348.985 504.567C349.315 504.787 349.755 504.787 350.085 504.677C350.635 504.787 351.075 505.007 351.515 505.117C353.165 505.667 354.815 506.436 356.354 507.205C357.674 507.975 359.544 508.964 360.094 510.503C358.334 512.372 356.354 514.021 354.375 515.559ZM370.983 438.175C370.873 442.571 370.873 446.858 370.873 451.255C370.873 455.542 370.323 459.609 369.883 463.786C369.663 465.655 369.553 467.524 369.553 469.392C369.663 471.591 369.993 473.679 370.323 475.768C370.873 480.604 369.993 485.441 369.663 490.168C369.663 491.157 369.553 492.476 368.893 493.245C368.123 494.125 366.913 494.674 365.923 495.224C365.703 495.224 365.593 495.224 365.373 495.334C362.294 496.543 358.774 494.235 355.914 493.245C351.625 491.926 347.226 491.157 342.936 489.948C334.137 487.639 325.668 484.232 317.089 481.484C314.67 480.714 312.25 477.165 309.83 476.285C307.521 475.516 305.431 474.307 303.011 473.647C302.901 471.449 302.571 469.36 302.351 467.162C302.021 464.634 301.911 461.995 301.911 459.357C301.911 454.301 302.021 449.245 302.021 444.188C302.021 439.242 302.021 436.185 301.691 431.239C301.471 426.842 300.262 423.335 301.361 419.048C301.471 418.499 301.361 418.059 301.142 417.729C301.251 416.74 301.251 415.751 301.251 414.871C301.251 412.673 301.361 410.584 301.691 408.386C302.351 403.219 302.791 398.163 302.681 392.887C302.571 387.83 302.241 382.664 302.131 377.608C302.131 372.331 302.241 367.165 302.351 361.889C302.461 351.556 302.131 341.114 301.691 330.781C301.251 320.448 300.812 310.116 301.251 299.783C301.471 294.617 302.021 289.451 302.791 284.284C303.451 279.887 304.001 275.49 303.231 271.094C303.451 270.654 303.451 270.214 303.231 269.665C302.791 268.785 302.791 267.686 302.901 266.697C302.901 265.378 303.121 264.059 303.231 262.74C303.451 260.211 302.571 257.134 304.221 254.935C305.981 252.737 308.731 251.198 310.93 249.659C313.9 247.46 316.979 245.152 319.949 242.954C331.168 234.49 342.496 225.916 351.955 215.473C353.275 214.044 354.485 212.615 355.805 211.076C356.684 210.087 357.564 209.098 358.664 208.328C360.094 207.449 361.854 207.119 363.394 206.46C364.823 205.91 366.143 205.141 367.353 204.371C368.013 204.591 368.673 204.811 369.333 204.811C369.663 205.141 369.993 205.47 370.323 205.8C370.543 207.229 370.433 208.878 370.543 209.867C370.653 214.814 370.653 219.65 370.433 224.597C369.773 237.128 370.103 249.549 370.323 262.08C370.433 268.236 370.433 274.391 370.213 280.547C369.993 286.812 369.773 292.968 369.883 299.234C369.993 305.499 370.103 311.655 369.883 317.92C369.663 324.186 369.223 330.341 369.223 336.607C369.223 343.532 368.783 350.347 368.673 357.272C368.673 360.68 369.003 364.087 369.113 367.605C369.223 371.232 369.223 374.86 369.113 378.487C369.113 379.037 369.333 379.476 369.773 379.696C368.453 386.621 369.333 393.876 369.773 400.801C369.993 404.868 369.993 409.045 369.993 413.112C369.993 417.18 370.323 421.137 370.763 425.204C371.203 429.711 371.093 433.998 370.983 438.175Z" fill="var(--fill-0, #312E21)" fill-opacity="0.8"/>
</svg>
