<svg preserveAspectRatio="none" width="100%" height="100%" overflow="visible" style="display: block;" viewBox="0 0 40 40" fill="none" xmlns="http://www.w3.org/2000/svg">
<path id="Vector" d="M19.0667 0.4L0.4 19.0667C-0.133333 19.6 -0.133333 20.4 0.4 20.9333L19.0667 39.6C19.6 40.1333 20.4 40.1333 20.9333 39.6L39.6 20.9333C40.1333 20.4 40.1333 19.6 39.6 19.0667L20.9333 0.4C20.4 -0.133333 19.6 -0.133333 19.0667 0.4ZM20.8 33.9333H19.2C18.5333 33.9333 17.8667 33.6667 17.3333 33.2L16.8667 32.7333C16.2 32.0667 15.8667 31.0667 16 30.1333L16.2 28.4667C16.3333 27.6667 16.6 26.8667 17.0667 26.2C17.5333 25.5333 18.1333 25 18.8667 24.6C19.2 24.4 19.6 24.3333 20 24.3333C20.4 24.3333 20.8 24.4 21.1333 24.6C22.6 25.4 23.5333 26.8 23.7333 28.4667L23.9333 30.1333C24.0667 31.0667 23.7333 32.0667 23.0667 32.7333L22.6667 33.2C22.1333 33.6667 21.4667 33.9333 20.8 33.9333ZM28.2 21.7333C26.5333 20.1333 25.2667 18.1333 24.6 15.8667L23.6667 12.6667C23.4667 12 22.8667 11.5333 22.1333 11.5333H17.8C17.0667 11.5333 16.4667 12 16.2667 12.6667L15.3333 15.8667C14.6667 18.0667 13.4667 20.1333 11.7333 21.7333L8.73333 24.6L4.6 20.4667C4.33333 20.2 4.33333 19.8 4.6 19.5333L19.5333 4.6C19.8 4.33333 20.2 4.33333 20.4667 4.6L35.3333 19.5333C35.6 19.8 35.6 20.2 35.3333 20.4667L31.2 24.6L28.2 21.7333Z" fill="var(--fill-0, black)"/>
</svg>
