<svg preserveAspectRatio="none" width="100%" height="100%" overflow="visible" style="display: block;" viewBox="0 0 29.0851 34.2178" fill="none" xmlns="http://www.w3.org/2000/svg">
<path id="Vector" d="M27.8247 0H1.26036C0.581705 0 0 0.595091 0 1.28936V15.1252C0 19.7372 1.59968 24.25 4.55666 27.7709C7.27127 30.9943 10.1798 34.2178 14.5425 34.2178C18.9053 34.2178 21.6199 31.1431 24.3345 28.0189C27.3885 24.4483 29.0851 19.8364 29.0851 15.0756V1.28936C29.0851 0.595091 28.5519 0 27.8247 0ZM24.7223 15.1252C24.7223 18.795 23.4135 22.3655 21.0382 25.093C18.3236 28.2668 16.7724 29.7546 14.5425 29.7546C12.3612 29.7546 10.6645 28.1677 7.85298 24.8451C5.62312 22.2167 4.36276 18.7454 4.36276 15.1252V5.65337C4.36276 5.00869 4.84751 4.51278 5.47769 4.51278H23.5589C24.1891 4.51278 24.6738 5.05828 24.6738 5.65337V15.1252H24.7223ZM21.2321 7.43864C21.5714 7.43864 21.8138 7.73619 21.8138 8.03373V15.0756C21.8138 18.0015 20.7474 20.8778 18.8568 23.0598C16.4331 25.8865 15.4636 26.7295 14.5425 26.7295C13.67 26.7295 12.4581 25.6881 10.0344 22.8614C8.24078 20.729 7.27127 18.0015 7.27127 15.0756V8.08332C7.27127 7.73619 7.56213 7.48823 7.85298 7.48823H21.2321V7.43864Z" fill="var(--fill-0, white)"/>
</svg>
