<svg preserveAspectRatio="none" width="100%" height="100%" overflow="visible" style="display: block;" viewBox="0 0 32.5069 32.5069" fill="none" xmlns="http://www.w3.org/2000/svg">
<path id="Vector" d="M32.214 9.23347L15.6468 24.7491L12.3836 21.4604L20.3743 13.4075L20.96 11.6367L19.2029 12.227L11.2121 20.2799L7.94891 16.9913L23.3447 0.295134L32.5069 0L32.214 9.23347ZM15.9815 27.7004L4.76935 16.401C4.18364 15.8107 3.26324 15.8107 2.67753 16.401L1.8408 17.2442C1.25509 17.8345 1.25509 18.7621 1.8408 19.3523L5.81526 23.3577L0.502037 28.7123C-0.167345 29.3869 -0.167345 30.5253 0.502037 31.1998L1.29693 32.0009C1.96631 32.6755 3.09589 32.6755 3.76527 32.0009L9.03666 26.6885L13.0111 30.6939C13.5968 31.2842 14.5172 31.2842 15.1029 30.6939L15.9397 29.8507C16.5672 29.2182 16.5672 28.2907 15.9815 27.7004Z" fill="var(--fill-0, white)"/>
</svg>
