<svg preserveAspectRatio="none" width="100%" height="100%" overflow="visible" style="display: block;" viewBox="0 0 41.8646 41.9575" fill="none" xmlns="http://www.w3.org/2000/svg">
<path id="Vector" d="M35.3697 28.0843L26.1922 37.3001C19.8856 43.6329 9.67266 43.5384 3.78963 36.8275C-1.48157 30.8254 -1.24625 21.7042 4.44852 15.9857L13.8614 6.53371C14.0967 6.29741 14.4732 6.29741 14.6615 6.53371L19.7915 11.5905C20.0268 11.8268 20.0268 12.2049 19.7915 12.394L10.5669 21.657C7.97834 24.2563 7.69596 28.5569 10.1904 31.298C12.826 34.1809 17.2971 34.2754 20.0739 31.5343L29.4867 22.0823C29.722 21.846 30.0985 21.846 30.2868 22.0823L35.3697 27.1864C35.6051 27.47 35.6051 27.848 35.3697 28.0843ZM20.2621 0.106335L16.4499 3.93441C16.3087 4.07619 16.3087 4.31249 16.4499 4.50153L21.8152 9.88918C21.9564 10.031 22.1918 10.031 22.38 9.88918L26.1922 6.06111C26.3334 5.91933 26.3334 5.68303 26.1922 5.49399L20.8269 0.106335C20.6386 -0.0354451 20.4033 -0.0354451 20.2621 0.106335ZM41.7234 21.1371L36.3581 15.7494C36.2169 15.6077 35.9816 15.6077 35.7933 15.7494L31.9811 19.5775C31.8399 19.7193 31.8399 19.9556 31.9811 20.1446L37.3464 25.5323C37.4876 25.6741 37.723 25.6741 37.9112 25.5323L41.7234 21.7042C41.9117 21.5152 41.9117 21.2789 41.7234 21.1371Z" fill="var(--fill-0, #FF5D6C)"/>
</svg>
