<svg preserveAspectRatio="none" width="100%" height="100%" overflow="visible" style="display: block;" viewBox="0 0 42.7722 42.7722" fill="none" xmlns="http://www.w3.org/2000/svg">
<g id="Group 19">
<path id="Down" fill-rule="evenodd" clip-rule="evenodd" d="M21.3861 28.5148C17.449 28.5148 14.2574 31.7064 14.2574 35.6435C14.2574 39.5806 17.449 42.7722 21.3861 42.7722C25.3232 42.7722 28.5148 39.5806 28.5148 35.6435C28.5148 31.7064 25.3232 28.5148 21.3861 28.5148ZM18.2948 34.9255L21.0628 38.1216C21.2333 38.3186 21.5389 38.3186 21.7094 38.1216L24.4774 34.9255C24.7173 34.6485 24.5205 34.2177 24.154 34.2177L18.6182 34.2177C18.2517 34.2177 18.0549 34.6485 18.2948 34.9255Z" fill="var(--fill-0, white)"/>
<path id="Up" fill-rule="evenodd" clip-rule="evenodd" d="M21.3861 14.2574C25.3232 14.2574 28.5148 11.0658 28.5148 7.1287C28.5148 3.19163 25.3232 0 21.3861 0C17.449 0 14.2574 3.19163 14.2574 7.1287C14.2574 11.0658 17.449 14.2574 21.3861 14.2574ZM24.4774 7.84671L21.7094 4.65057C21.5389 4.45362 21.2333 4.45362 21.0628 4.65056L18.2948 7.84671C18.0549 8.12372 18.2517 8.55444 18.6182 8.55444H24.154C24.5205 8.55444 24.7173 8.12372 24.4774 7.84671Z" fill="var(--fill-0, white)"/>
<path id="Right" fill-rule="evenodd" clip-rule="evenodd" d="M28.5148 21.3861C28.5148 25.3232 31.7064 28.5148 35.6435 28.5148C39.5806 28.5148 42.7722 25.3232 42.7722 21.3861C42.7722 17.449 39.5806 14.2574 35.6435 14.2574C31.7064 14.2574 28.5148 17.449 28.5148 21.3861ZM34.9255 24.4774L38.1216 21.7094C38.3186 21.5389 38.3186 21.2333 38.1216 21.0628L34.9255 18.2948C34.6485 18.0549 34.2177 18.2517 34.2177 18.6182L34.2177 24.154C34.2177 24.5205 34.6485 24.7173 34.9255 24.4774Z" fill="var(--fill-0, white)"/>
<path id="Left" fill-rule="evenodd" clip-rule="evenodd" d="M14.2574 21.3861C14.2574 17.449 11.0658 14.2574 7.1287 14.2574C3.19163 14.2574 1.3951e-07 17.449 3.11605e-07 21.3861C4.837e-07 25.3232 3.19163 28.5148 7.1287 28.5148C11.0658 28.5148 14.2574 25.3232 14.2574 21.3861ZM7.84671 18.2948L4.65057 21.0628C4.45362 21.2333 4.45362 21.5389 4.65056 21.7094L7.84671 24.4774C8.12372 24.7173 8.55444 24.5205 8.55444 24.154L8.55444 18.6182C8.55444 18.2517 8.12372 18.0549 7.84671 18.2948Z" fill="var(--fill-0, white)"/>
</g>
</svg>
