<svg preserveAspectRatio="none" width="100%" height="100%" overflow="visible" style="display: block;" viewBox="0 0 380 350" fill="none" xmlns="http://www.w3.org/2000/svg">
<path id="Vector" d="M108.514 25.1051C111.349 29.9656 116.705 33.2208 122.781 33.2208C131.873 33.2208 139.254 25.9078 139.254 16.9002C139.254 15.3841 139.029 13.9126 138.669 12.5303C138.129 10.6128 137.273 8.82915 136.103 7.26844C133.133 3.16601 128.272 0.5351 122.781 0.5351C113.689 0.5351 106.308 7.84813 106.308 16.8556C106.308 17.7921 106.398 18.6839 106.533 19.5311C106.803 21.5824 107.523 23.4552 108.514 25.1051ZM122.736 4.36998C126.427 4.36998 129.802 5.97528 132.098 8.51701C133.448 9.94394 134.438 11.7276 134.933 13.645C135.203 14.6707 135.383 15.7855 135.383 16.9002C135.383 23.8119 129.712 29.3859 122.736 29.3859C118.145 29.3859 114.095 26.9334 111.889 23.2323C110.854 21.5824 110.269 19.6649 110.134 17.6137C110.089 17.3462 110.089 17.1232 110.089 16.8556C110.134 9.98853 115.805 4.36998 122.736 4.36998ZM114.5 21.8499C113.599 20.423 113.104 18.7285 113.104 16.9002C113.104 16.8557 113.104 16.7665 113.104 16.7219C113.194 11.5046 117.47 7.31303 122.736 7.31303C125.301 7.31303 127.642 8.29405 129.352 9.94394C130.657 11.1479 131.603 12.7086 132.053 14.4923C132.278 15.2503 132.368 16.053 132.368 16.9002C132.368 22.2066 128.047 26.4874 122.691 26.4874C119.225 26.4874 116.165 24.6146 114.5 21.8499ZM241.916 24.5254C244.752 29.3859 250.108 32.6411 256.184 32.6411C261.63 32.6411 266.491 30.0102 269.506 25.9523C269.596 26.0415 269.731 26.1753 269.866 26.2645C278.373 32.1506 287.284 37.457 295.566 43.6106C320.23 61.8932 339.268 87.5334 349.62 116.295C351.285 120.977 353.22 125.436 354.706 130.208C355.831 133.82 356.686 137.521 357.586 141.222C358.081 143.228 360.872 142.827 360.872 140.731C360.872 140.553 360.827 140.375 360.827 140.196C355.831 118.213 346.919 96.9869 334.137 78.3476C319.06 56.3639 299.076 40.4 276.572 26.4429C275.717 25.9078 272.702 23.9457 271.306 23.0093C272.207 20.9581 272.747 18.7285 272.747 16.3651C272.747 14.849 272.522 13.3775 272.162 11.9952C271.621 10.0777 270.766 8.29405 269.596 6.73334C266.536 2.63091 261.675 0 256.184 0C247.092 0 239.711 7.31303 239.711 16.3205C239.711 17.257 239.801 18.1488 239.936 18.996C240.251 21.0473 240.926 22.8755 241.916 24.5254ZM256.184 3.83488C259.874 3.83488 263.25 5.44018 265.545 7.98191C266.896 9.40884 267.886 11.1925 268.381 13.1099C268.651 14.1356 268.831 15.2503 268.831 16.3651C268.831 23.2768 263.16 28.8508 256.184 28.8508C251.593 28.8508 247.542 26.3983 245.337 22.6972C244.302 21.0473 243.717 19.1298 243.582 17.0786C243.537 16.8111 243.537 16.5881 243.537 16.3205C243.537 9.40884 249.208 3.83488 256.184 3.83488ZM247.902 21.2702C247.002 19.8433 246.507 18.1488 246.507 16.3205C246.507 16.276 246.507 16.1868 246.507 16.1422C246.597 10.925 250.873 6.73334 256.139 6.73334C258.704 6.73334 261.045 7.71436 262.755 9.36425C264.06 10.5682 265.005 12.1289 265.455 13.9126C265.68 14.6707 265.77 15.4733 265.77 16.3205C265.77 21.627 261.45 25.9078 256.094 25.9078C252.673 25.9078 249.613 24.0795 247.902 21.2702ZM270.541 270.181C269.821 269.022 269.416 267.639 269.416 266.168C269.416 266.123 269.416 266.078 269.416 266.034C269.461 261.798 272.927 258.409 277.202 258.409C279.273 258.409 281.163 259.211 282.558 260.549C283.594 261.53 284.404 262.779 284.764 264.206C284.944 264.83 285.034 265.454 285.034 266.168C285.034 270.448 281.523 273.927 277.202 273.927C274.367 273.927 271.892 272.41 270.541 270.181ZM380 174.889C380 173.06 379.73 171.277 379.28 169.627C378.605 167.308 377.57 165.168 376.174 163.295C372.574 158.345 366.723 155.179 360.107 155.179C349.71 155.179 341.203 163.072 340.303 173.149C340.258 173.462 340.078 173.774 339.808 173.952C339.628 174.041 339.448 174.13 339.268 174.175C336.613 174.443 335.712 174.353 333.147 174.487C332.427 174.532 330.086 174.487 329.366 174.487C322.525 174.443 315.729 174.487 308.888 174.443C307.583 174.443 306.953 174.844 306.953 176.182C306.908 177.564 307.538 177.921 308.843 177.876C313.569 177.832 315.999 177.965 320.725 177.965L326.981 177.921C331.842 177.921 332.787 177.876 337.648 177.965C338.143 177.965 338.773 178.01 339.313 178.099C339.988 178.188 340.528 178.679 340.663 179.303C341.113 181.265 341.878 183.049 342.914 184.743C345.929 189.871 351.105 193.483 357.316 194.286C357.811 194.33 358.171 194.732 358.216 195.222C358.891 206.638 352.095 227.997 351.06 230.94C346.604 243.515 340.528 255.555 333.147 266.703C324.37 280.036 313.704 292.12 301.777 302.777C295.791 308.084 289.535 313.123 282.918 317.671C276.302 322.264 269.011 325.787 261.765 329.532C260.054 330.424 257.669 330.023 256.769 328.328C250.873 317.448 246.597 305.453 241.691 294.082C241.241 293.056 240.791 291.942 240.926 290.782C241.196 288.731 243.897 287.839 245.472 286.992C251.863 283.558 257.714 280.08 263.925 276.78C264.15 276.647 265.41 275.978 266.536 275.22C266.941 274.952 267.436 274.997 267.796 275.354C270.226 277.761 273.557 279.278 277.292 279.278C284.629 279.278 290.615 273.392 290.615 266.078C290.615 264.874 290.435 263.671 290.12 262.556C289.67 260.995 288.994 259.568 288.049 258.32C285.619 255.02 281.703 252.879 277.292 252.879C269.956 252.879 263.97 258.765 263.97 266.078C263.97 266.837 264.015 267.55 264.15 268.263C264.33 269.289 264.6 270.315 265.005 271.207C265.185 271.652 265.05 272.143 264.645 272.41C263.745 273.035 262.935 273.57 262.89 273.614C257.444 276.914 252.268 280.125 246.687 283.023C243.852 284.495 241.961 285.565 239.081 287.037C237.731 287.705 236.921 290.158 237.416 291.496C238.361 293.993 239.126 295.554 240.161 298.006C242.366 303.223 244.662 308.396 246.867 313.569C248.668 317.716 250.378 321.863 252.133 325.965C253.168 328.328 254.744 333.635 257.849 333.992C259.379 334.17 260.64 334.081 262.035 333.412C288.409 320.926 311.498 301.841 329.051 278.698C344.534 258.275 356.641 234.062 360.962 208.734C361.637 204.676 361.772 200.484 362.042 196.382C362.087 195.757 362.222 195.222 362.447 194.776C362.627 194.464 362.987 194.241 363.347 194.152C372.754 192.814 380 184.699 380 174.889ZM277.247 256.045C280.218 256.045 282.963 257.339 284.809 259.39C285.889 260.549 286.699 261.976 287.104 263.537C287.329 264.384 287.464 265.231 287.464 266.168C287.464 271.742 282.873 276.245 277.247 276.245C273.512 276.245 270.271 274.239 268.471 271.296C267.661 269.958 267.166 268.397 267.076 266.747C267.031 266.524 267.031 266.346 267.031 266.123C267.031 260.594 271.621 256.045 277.247 256.045ZM360.107 189.96C354.526 189.96 349.665 186.973 347.009 182.558C345.794 180.552 345.029 178.233 344.894 175.78C344.849 175.468 344.849 175.156 344.849 174.889C344.849 166.55 351.69 159.772 360.107 159.772C364.562 159.772 368.613 161.689 371.404 164.766C373.024 166.505 374.239 168.601 374.824 170.964C375.184 172.213 375.364 173.506 375.364 174.889C375.364 183.227 368.523 189.96 360.107 189.96ZM371.404 171.99C371.674 172.882 371.764 173.863 371.764 174.889C371.764 181.265 366.543 186.438 360.107 186.438C355.876 186.438 352.185 184.208 350.16 180.864C349.08 179.125 348.45 177.074 348.45 174.889C348.45 174.844 348.45 174.755 348.45 174.666C348.54 168.378 353.716 163.295 360.062 163.295C363.167 163.295 366.003 164.499 368.073 166.461C369.693 167.977 370.863 169.85 371.404 171.99ZM39.6518 178.01C39.7418 177.653 40.0569 177.341 40.4169 177.386C42.8923 177.43 51.4438 177.296 56.1696 177.386C60.8504 177.475 65.8913 177.386 70.7071 177.296C72.1023 177.252 72.9575 177.296 72.9575 175.825C72.9575 174.264 71.6523 174.353 70.4821 174.353C65.6212 174.398 64.046 174.353 59.1851 174.353L54.3243 174.309C49.5085 174.309 45.8178 174.353 41.002 174.264C40.822 174.264 40.5969 174.22 40.3719 174.175C39.9668 174.086 39.6968 173.729 39.6968 173.372C39.6068 172.079 39.3817 170.831 39.0667 169.627C38.3916 167.308 37.3564 165.168 35.9612 163.295C32.6756 158.836 27.5897 155.803 21.7387 155.268C21.2886 155.224 20.9286 154.778 21.0636 154.332C21.2886 153.262 21.4687 152.147 21.6037 151.077C25.6094 118.703 39.5618 87.7564 61.3005 63.0972C68.8618 54.491 77.3682 46.7321 86.5948 39.9095C89.2053 37.9921 91.9057 36.1192 94.6512 34.3356C95.5063 33.7559 95.8664 32.6411 95.3713 31.7493C95.2813 31.5709 95.1463 31.4371 95.0113 31.3033C94.1561 30.5453 92.6709 31.125 91.6807 31.7939C83.6693 36.9665 76.5131 43.8336 69.3119 50.0318C55.5845 61.8932 45.5478 76.6085 37.0413 92.3939C32.3155 101.134 27.9498 110.097 25.1143 119.684C23.314 125.793 21.3787 131.858 20.0284 138.011C18.9482 143.05 18.6782 148.223 18.0031 153.351C17.9581 153.618 17.9131 154.02 17.8681 154.421C17.778 154.911 17.418 155.357 16.8779 155.402C7.33625 156.873 0 164.989 0 174.889C0 176.003 0.0900154 177.074 0.270046 178.144C0.675115 180.552 1.48525 182.781 2.70046 184.788C6.12105 190.629 12.5571 194.598 19.8934 194.598C29.6151 194.553 37.8965 187.151 39.6518 178.01ZM6.79616 182.558C5.58095 180.552 4.81582 178.233 4.6808 175.78C4.63579 175.468 4.63579 175.156 4.63579 174.889C4.63579 166.55 11.477 159.772 19.8934 159.772C24.3492 159.772 28.3999 161.689 31.1903 164.766C32.8106 166.505 34.0258 168.601 34.6109 170.964C34.971 172.213 35.151 173.506 35.151 174.889C35.151 183.227 28.3098 189.96 19.8934 189.96C14.3124 189.96 9.45162 186.973 6.79616 182.558ZM19.8934 186.438C15.6627 186.438 11.972 184.208 9.9467 180.864C8.86652 179.125 8.23641 177.074 8.23641 174.889C8.23641 174.844 8.23641 174.755 8.23641 174.666C8.32642 168.378 13.5023 163.295 19.8484 163.295C22.9539 163.295 25.7894 164.499 27.8598 166.461C29.435 167.888 30.6052 169.805 31.1453 171.945C31.4154 172.837 31.5054 173.818 31.5054 174.844C31.5504 181.265 26.3295 186.438 19.8934 186.438ZM76.7381 290.203C74.6678 287.393 71.3372 285.565 67.5566 285.565C61.3005 285.565 56.2146 290.604 56.2146 296.802C56.2146 297.426 56.2596 298.051 56.3946 298.675C56.6197 300.057 57.1148 301.306 57.7899 302.465C59.7702 305.81 63.4158 308.039 67.6016 308.039C73.8576 308.039 78.9435 303 78.9435 296.802C78.9435 295.777 78.8085 294.751 78.5384 293.77C78.1334 292.521 77.5033 291.273 76.7381 290.203ZM67.5566 305.453C64.361 305.453 61.6155 303.758 60.0853 301.217C59.3652 300.057 58.9601 298.764 58.8701 297.337C58.8251 297.159 58.8251 296.98 58.8251 296.802C58.8251 292.031 62.7407 288.196 67.5115 288.196C70.077 288.196 72.3724 289.266 73.9477 291.05C74.8478 292.031 75.5679 293.235 75.883 294.573C76.063 295.286 76.198 296.044 76.198 296.802C76.243 301.573 72.3274 305.453 67.5566 305.453ZM73.9927 295.197C74.1277 295.732 74.2177 296.267 74.2177 296.847C74.2177 300.503 71.2472 303.446 67.5566 303.446C65.1261 303.446 63.0108 302.153 61.8856 300.236C61.2555 299.255 60.9404 298.095 60.9404 296.847C60.9404 296.802 60.9404 296.758 60.9404 296.713C60.9854 293.101 63.9559 290.247 67.6016 290.247C69.3569 290.247 70.9771 290.916 72.1473 292.075C73.0025 292.878 73.6776 293.948 73.9927 295.197ZM124.491 324.092C127.057 324.092 129.397 325.073 131.152 326.723C132.458 327.927 133.403 329.488 133.898 331.271C134.123 332.03 134.213 332.832 134.213 333.679C134.213 338.986 129.892 343.267 124.536 343.267C121.026 343.267 117.965 341.394 116.255 338.629C115.355 337.202 114.86 335.463 114.86 333.679C114.86 333.635 114.86 333.546 114.86 333.501C114.905 328.284 119.18 324.092 124.491 324.092ZM271.892 176.806C273.602 174.22 274.997 173.506 277.653 174.576C284.629 177.43 293.27 170.831 296.106 164.855C298.986 158.746 297.951 151.835 294.26 146.35C293.405 145.101 292.1 143.986 290.255 144.076C290.12 150.319 290.975 158.568 283.233 160.798C280.893 161.466 278.418 161.243 276.077 160.619C269.911 159.014 264.96 155.001 260.19 151.032C255.194 146.885 249.658 143.005 244.032 139.661C229.404 130.877 212.661 123.92 195.468 122.582C178.951 121.334 162.388 125.882 147.58 133.017C139.659 136.852 132.143 141.489 125.121 146.751C118.55 151.656 112.609 157.498 104.598 160.039C104.058 160.218 103.473 160.396 102.888 160.53C98.6119 161.6 93.8411 161.065 91.0956 156.784C88.8902 153.351 89.0252 149.56 89.7003 145.726C89.7904 145.19 89.7454 144.655 89.7454 144.12C89.2053 144.254 88.6652 144.343 88.1701 144.566C85.3796 145.859 83.2192 148.713 82.4541 151.656C82.049 153.217 81.959 154.778 81.914 156.383C81.824 160.218 82.2741 164.008 84.6145 167.174C89.2053 173.417 95.6864 174.978 102.978 174.22C106.128 173.907 106.533 174.041 108.108 176.94C114.5 188.444 122.691 198.433 133.448 206.236C138.939 210.205 144.565 213.951 151.001 216.314C155.592 218.009 160.182 219.792 164.863 221.353C167.384 222.2 169.994 222.735 172.56 223.315C175.305 223.895 178.05 224.519 180.841 224.876C182.686 225.099 183.046 226.035 182.866 227.551C181.651 239.234 180.751 251.006 178.185 262.511C174.81 277.94 169.184 293.77 172.605 309.689C173.64 314.594 175.8 319.366 179.491 322.799C183.181 326.233 188.537 328.061 193.398 326.768C197.269 325.742 200.419 322.888 202.715 319.633C212.706 305.185 208.071 285.966 204.11 270.404C203.345 267.327 202.535 264.206 201.86 261.129C199.429 249.847 197.944 238.342 197.134 226.838C197.044 225.366 197.854 224.564 199.294 224.251C203.12 223.404 206.9 222.468 210.726 221.71C215.677 220.729 220.358 219.168 225.038 217.34C236.831 212.702 247.002 205.835 255.914 196.917C262.125 190.852 267.121 183.941 271.892 176.806ZM245.562 194.643C237.866 200.975 229.449 206.192 220.088 209.804C217.117 210.963 211.446 212.435 208.746 212.925C208.431 212.97 208.251 212.568 208.566 212.39C210.546 211.275 212.346 210.205 214.147 209.18C220.763 205.389 225.039 199.637 227.784 192.681C228.504 190.852 228.909 188.444 229.089 186.482C229.089 186.259 228.999 186.036 228.819 185.813C228.279 185.055 227.154 184.966 226.524 185.635C226.434 185.724 226.389 185.813 226.299 185.947C225.399 187.909 224.498 190.362 223.553 192.368C221.168 197.496 217.027 201.153 212.751 204.631C209.061 207.574 204.875 209.67 200.554 211.409C198.844 212.078 196.999 212.524 195.153 212.658C190.293 212.97 185.387 213.104 180.706 211.677C169.004 208.198 159.507 201.554 154.781 189.871C154.421 188.979 154.196 188.043 153.791 187.24C153.341 186.349 152.846 185.412 151.496 185.769C150.191 186.126 150.416 187.776 150.596 188.444C151.406 191.298 152.351 194.063 153.701 196.694C157.257 203.516 162.613 208.644 169.679 211.9C169.769 211.944 169.904 212.033 169.994 212.123C170.489 212.524 170.129 213.327 169.454 213.237C168.239 213.014 166.979 212.836 165.808 212.524C161.128 211.231 156.447 209.893 152.306 207.351C143.89 202.223 135.068 197.496 128.857 189.515C124.986 184.52 121.386 179.348 117.74 174.175C116.57 172.481 116.975 170.385 118.46 169.002C127.777 160.396 137.679 152.548 148.975 146.617C154.196 143.853 159.552 141.266 165.043 139.081C167.339 138.145 169.769 136.941 172.425 137.075C172.83 137.075 172.965 137.654 172.605 137.833C168.374 140.018 164.368 142.381 160.813 145.636C155.412 150.541 151.766 156.428 149.876 163.384C149.561 164.588 149.516 165.926 149.651 167.13C149.696 167.531 149.921 167.888 150.191 168.244C150.506 168.646 151.091 168.735 151.496 168.378C151.856 168.111 152.171 167.798 152.306 167.442C153.701 163.295 155.322 159.237 157.752 155.536C162.208 148.624 168.149 143.63 175.8 140.285C181.606 137.788 187.502 137.253 193.443 138.011C203.84 139.304 212.256 144.432 218.872 152.37C221.933 156.026 224.228 160.53 226.164 164.811C226.389 165.257 226.614 165.747 226.974 166.059C227.289 166.327 227.874 166.55 228.279 166.505C229.179 166.327 229.089 165.078 229.089 164.766C228.954 161.11 228.189 160.084 227.379 158.033C224.723 151.389 220.583 146.038 214.372 142.024C211.896 140.419 209.376 138.992 206.765 137.565C206.54 137.432 206.27 137.298 206 137.164C205.55 136.941 205.82 136.317 206.27 136.406C208.206 136.852 210.186 137.209 212.076 137.877C218.332 140.107 224.408 142.783 229.899 146.617C237.056 151.567 244.122 156.695 251.323 161.6C255.059 164.142 258.884 166.505 262.845 168.735C264.285 169.538 264.15 170.519 263.61 171.455C258.749 180.106 253.303 188.266 245.562 194.643ZM169.859 102.427C174 89.6738 180.211 77.6787 186.512 65.8173C187.367 64.212 188.987 62.25 191.013 63.3648C192.093 63.9445 192.723 65.1038 193.308 66.174C197.629 74.3789 201.004 83.0297 204.425 91.6805C206.09 95.9167 207.756 100.153 209.421 104.389C209.691 105.103 210.006 105.905 209.736 106.619C209.016 108.67 204.65 107.733 203.21 107.511C200.149 107.065 197.044 106.752 193.893 106.619C187.817 106.307 181.696 106.529 175.665 107.332C174.585 107.466 173.595 107.511 172.695 107.421C170.264 107.154 168.734 105.861 169.859 102.427ZM140.604 286.278C140.514 286.234 118.73 275.71 108.379 269.111C97.6217 262.244 88.4851 253.102 80.8788 242.891C76.9182 237.54 74.0827 232.501 70.212 227.061C67.2415 222.914 64.046 224.43 60.4453 225.768C54.0542 228.131 40.5069 233.437 34.3409 236.247C32.9456 236.916 31.1453 237.495 29.9751 236.514C29.5251 236.113 29.255 235.578 29.03 235.043C25.5644 227.284 23.359 219.391 22.4138 210.963C22.3238 209.982 21.8287 209.046 20.9736 208.466C18.3631 206.638 18.4081 210.651 18.6332 211.989C19.1283 214.976 19.7584 217.964 20.5235 220.863C22.0538 226.972 24.1691 232.902 26.7346 238.565C27.1396 239.502 27.6347 240.438 28.4899 240.973C29.8401 241.776 31.5954 241.196 33.0807 240.617C42.7123 236.737 52.389 232.813 62.0206 228.934C62.9208 228.577 63.8659 228.176 64.8561 228.265C67.0615 228.399 68.0967 230.45 69.2218 232.323C75.703 243.158 83.9394 252.879 92.8509 261.842C93.9761 262.957 95.0113 263.626 95.0563 265.008C95.1013 266.435 93.9761 267.55 93.481 268.085C90.0604 271.742 86.6848 275.398 83.2642 279.099C82.9042 279.501 82.7242 280.08 82.9492 280.615C83.4443 281.775 85.1996 281.017 86.0997 280.125C89.1603 277.182 91.7257 274.283 94.7862 271.251C96.1364 269.913 97.5767 268.263 99.287 268.085C100.862 267.951 102.708 269.423 104.103 270.27C114.5 276.513 124.851 283.023 136.103 287.705C137.724 288.374 139.704 289.4 139.884 290.515C140.109 291.897 138.939 293.993 138.444 295.197C135.788 301.752 133.133 308.262 130.387 314.728C130.027 315.531 129.667 316.378 129.307 317.181C129.082 317.626 128.632 317.849 128.137 317.76C126.922 317.493 125.661 317.314 124.401 317.314C115.265 317.314 107.883 324.627 107.883 333.679C107.883 334.616 107.973 335.508 108.108 336.355C108.424 338.362 109.144 340.19 110.134 341.884C112.969 346.745 118.325 350 124.401 350C133.538 350 140.919 342.687 140.919 333.679C140.919 332.163 140.694 330.692 140.334 329.309C139.794 327.392 138.939 325.608 137.769 324.048C136.373 322.13 134.528 320.525 132.413 319.366C131.963 319.098 131.738 318.563 131.963 318.072C135.518 309.6 138.894 301.573 142.494 293.146C143.124 291.674 143.485 290.158 142.989 288.82C142.494 287.482 141.369 286.635 140.604 286.278ZM133.853 325.296C135.203 326.723 136.193 328.507 136.688 330.424C136.958 331.45 137.138 332.565 137.138 333.679C137.138 340.591 131.467 346.21 124.491 346.21C119.856 346.21 115.805 343.757 113.599 340.056C112.564 338.406 111.979 336.489 111.844 334.437C111.799 334.17 111.799 333.947 111.799 333.679C111.799 326.768 117.47 321.149 124.446 321.149C128.182 321.149 131.558 322.754 133.853 325.296ZM144.385 112.059C145.645 113.04 148.345 114.288 146.635 115.983C145.6 116.964 143.98 117.276 142.719 117.811C139.929 118.926 137.228 120.264 134.573 121.691C129.397 124.5 124.536 127.889 120.126 131.768C118.145 133.507 116.255 135.38 114.095 136.852C112.249 138.145 110.989 136.986 110.989 134.934C110.989 122.137 110.944 109.339 110.944 96.541C110.944 95.1586 110.494 92.2156 111.349 91.0562C112.069 90.0306 113.554 90.8332 114.41 91.2791C125.211 96.6747 134.798 104.701 144.385 112.059ZM233.185 112.46C233.14 112.059 233.365 111.658 233.635 111.301C235.12 109.294 237.416 108.269 239.351 106.842C242.772 104.344 246.147 101.847 249.478 99.261C254.654 95.2032 260.099 91.5913 265.996 88.6928C268.696 87.3551 269.416 87.801 269.416 90.7886C269.461 104.657 269.416 118.525 269.416 132.348C269.416 133.374 269.191 134.711 268.156 134.979C266.941 135.247 265.635 133.864 264.825 133.151C263.385 131.902 261.945 130.654 260.505 129.405C257.579 126.952 254.609 124.589 251.413 122.449C246.102 118.881 240.251 116.563 234.49 113.843C234.4 113.798 234.265 113.753 234.175 113.709C233.725 113.352 233.23 112.995 233.185 112.46ZM153.701 177.207C153.701 178.991 152.216 180.462 150.416 180.462C148.615 180.462 147.13 178.991 147.13 177.207C147.13 175.424 148.615 173.952 150.416 173.952C152.216 173.907 153.701 175.379 153.701 177.207ZM231.295 176.182C231.295 177.965 229.809 179.437 228.009 179.437C226.209 179.437 224.723 177.965 224.723 176.182C224.723 174.398 226.209 172.926 228.009 172.926C229.809 172.926 231.295 174.398 231.295 176.182ZM189.617 147.197C174.18 147.197 161.623 159.594 161.623 174.933C161.623 190.228 174.18 202.669 189.617 202.669C205.1 202.669 217.612 190.273 217.612 174.933C217.567 159.638 205.055 147.197 189.617 147.197ZM189.617 184.609C184.217 184.609 179.851 180.284 179.851 174.933C179.851 169.582 184.217 165.257 189.617 165.257C195.018 165.257 199.384 169.582 199.384 174.933C199.339 180.284 194.973 184.609 189.617 184.609Z" fill="var(--fill-0, white)"/>
</svg>
