<svg preserveAspectRatio="none" width="100%" height="100%" overflow="visible" style="display: block;" viewBox="0 0 63 52.7727" fill="none" xmlns="http://www.w3.org/2000/svg">
<g id="Sound Meter" filter="url(#filter0_d_1819_35551)">
<path d="M6.5 26.9545H9.90909L12.1818 35.4773L13.8864 19.5682L15.5909 33.7728L17.4384 16.1591L19 41.7272L20.7045 10.4773L22.4091 46.2727L24.6661 6.5L26.3864 45.1364L28.5418 11.0455L30.3636 41.7272L32.0682 11.0455L33.7727 42.2955L35.5355 26.361L37.1818 33.7728L38.9043 24.1136L40.5909 35.4773L42.3421 19.5682L44 40.0227L45.875 13.3182L47.4091 35.4773L49.0354 17.2955L50.8182 33.7728L51.9545 26.361L54.2273 26.9545H56.5" stroke="var(--stroke-0, #C466CB)" stroke-opacity="0.8" stroke-linecap="round" stroke-linejoin="round"/>
</g>
<defs>
<filter id="filter0_d_1819_35551" x="0" y="-1.78814e-07" width="63" height="52.7727" filterUnits="userSpaceOnUse" color-interpolation-filters="sRGB">
<feFlood flood-opacity="0" result="BackgroundImageFix"/>
<feColorMatrix in="SourceAlpha" type="matrix" values="0 0 0 0 0 0 0 0 0 0 0 0 0 0 0 0 0 0 127 0" result="hardAlpha"/>
<feOffset/>
<feGaussianBlur stdDeviation="3"/>
<feColorMatrix type="matrix" values="0 0 0 0 0.768627 0 0 0 0 0.4 0 0 0 0 0.796078 0 0 0 0.75 0"/>
<feBlend mode="normal" in2="BackgroundImageFix" result="effect1_dropShadow_1819_35551"/>
<feBlend mode="normal" in="SourceGraphic" in2="effect1_dropShadow_1819_35551" result="shape"/>
</filter>
</defs>
</svg>
