<svg preserveAspectRatio="none" width="100%" height="100%" overflow="visible" style="display: block;" viewBox="0 0 71 23.8451" fill="none" xmlns="http://www.w3.org/2000/svg">
<g id="Sound Meter" opacity="0.8" filter="url(#filter0_d_1819_35555)">
<path d="M10.5 12.7732C10.5 12.7732 11.6364 12.7732 12.7727 12.7732C14.1761 12.7732 14.7785 13.3414 16.1818 13.3414C17.5852 13.3414 18.19 11.5544 19.5909 11.6368C21.0768 11.7242 21.5128 13.4027 23 13.3414C24.5987 13.2754 24.809 11.0687 26.4091 11.0687C28.0092 11.0687 28.7863 13.3414 30.3864 13.3414C31.9864 13.3414 32.7649 11.1346 34.3636 11.0687C35.8508 11.0073 36.2855 12.8345 37.7727 12.7732C39.3714 12.7073 39.5822 10.4627 41.1818 10.5005C42.9143 10.5414 42.8617 13.2272 44.5909 13.3414C46.0761 13.4395 46.5128 11.5756 48 11.6369C49.5987 11.7028 49.809 13.3414 51.4091 13.3414C53.0092 13.3414 53.2434 11.9199 54.8182 11.6368C56.1466 11.398 56.8807 12.6812 58.2273 12.7732C59.0921 12.8323 60.5 12.7732 60.5 12.7732" stroke="var(--stroke-0, #C466CB)" stroke-opacity="0.8" stroke-linecap="round" stroke-linejoin="round"/>
</g>
<defs>
<filter id="filter0_d_1819_35555" x="0" y="4.17233e-07" width="71" height="23.8451" filterUnits="userSpaceOnUse" color-interpolation-filters="sRGB">
<feFlood flood-opacity="0" result="BackgroundImageFix"/>
<feColorMatrix in="SourceAlpha" type="matrix" values="0 0 0 0 0 0 0 0 0 0 0 0 0 0 0 0 0 0 127 0" result="hardAlpha"/>
<feOffset/>
<feGaussianBlur stdDeviation="5"/>
<feColorMatrix type="matrix" values="0 0 0 0 0.768627 0 0 0 0 0.4 0 0 0 0 0.796078 0 0 0 0.75 0"/>
<feBlend mode="normal" in2="BackgroundImageFix" result="effect1_dropShadow_1819_35555"/>
<feBlend mode="normal" in="SourceGraphic" in2="effect1_dropShadow_1819_35555" result="shape"/>
</filter>
</defs>
</svg>
