<svg preserveAspectRatio="none" width="100%" height="100%" overflow="visible" style="display: block;" viewBox="0 0 300.938 300.938" fill="none" xmlns="http://www.w3.org/2000/svg">
<g id="Mask Group">
<mask id="mask0_1827_35831" style="mask-type:alpha" maskUnits="userSpaceOnUse" x="4" y="5" width="292" height="292">
<g id="Group 21">
<g id="Frame" style="mix-blend-mode:lighten" clip-path="url(#clip0_1827_35831)">
<path id="Vector" opacity="0.56" d="M150.053 150.783L144.038 25.3305H158.419L150.053 150.783Z" fill="var(--fill-0, #FFFF7E)" fill-opacity="0.6"/>
<path id="Vector_2" opacity="0.56" d="M152.459 151.05L176.956 27.7902L190.899 31.1056L152.459 151.05Z" fill="var(--fill-0, #FFFF7E)" fill-opacity="0.6"/>
<path id="Vector_3" opacity="0.56" d="M154.592 152.013L208.287 37.9505L221.027 44.4209L154.592 152.013Z" fill="var(--fill-0, #FFFF7E)" fill-opacity="0.6"/>
<path id="Vector_4" opacity="0.56" d="M157.49 154.74L253.725 71.5863L262.692 82.5486L157.49 154.74Z" fill="var(--fill-0, #FFFF7E)" fill-opacity="0.6"/>
<path id="Vector_5" opacity="0.56" d="M157.818 156.719L272.917 101.051L278.659 113.939L157.818 156.719Z" fill="var(--fill-0, #FFFF7E)" fill-opacity="0.6"/>
<path id="Vector_6" opacity="0.56" d="M157.599 158.804L291.235 134.633L285.822 149.927L157.599 158.804Z" fill="var(--fill-0, #FFFF7E)" fill-opacity="0.6"/>
<path id="Vector_7" opacity="0.56" d="M156.014 161.852L279.534 196.183L258.045 202.707L156.014 161.852Z" fill="var(--fill-0, #FFFF7E)" fill-opacity="0.6"/>
<path id="Vector_8" opacity="0.56" d="M147.811 164.205L163.942 288.802L149.616 289.925L147.811 164.205Z" fill="var(--fill-0, #FFFF7E)" fill-opacity="0.6"/>
<path id="Vector_9" opacity="0.56" d="M142.945 159.927L43.8117 264.203L45.4521 241.85L142.945 159.927Z" fill="var(--fill-0, #FFFF7E)" fill-opacity="0.6"/>
<path id="Vector_10" opacity="0.56" d="M143.273 153.296L22.7052 143.403L14.7767 127.521L143.273 153.296Z" fill="var(--fill-0, #FFFF7E)" fill-opacity="0.6"/>
<path id="Vector_11" opacity="0.56" d="M145.132 151.157L29.759 95.9709L36.6486 83.6717L145.132 151.157Z" fill="var(--fill-0, #FFFF7E)" fill-opacity="0.6"/>
<path id="Vector_12" opacity="0.56" d="M150.108 149.392L97.8894 34.6885L116.972 37.9504L150.108 149.392Z" fill="var(--fill-0, #FFFF7E)" fill-opacity="0.6"/>
<path id="Vector_13" opacity="0.56" d="M148.467 149.553L72.6272 48.2179L75.7439 25.3306L148.467 149.553Z" fill="var(--fill-0, #FFFF7E)" fill-opacity="0.6"/>
<path id="Vector_14" opacity="0.56" d="M146.007 150.515L39.656 80.1421L59.8326 78.5379L146.007 150.515Z" fill="var(--fill-0, #FFFF7E)" fill-opacity="0.6"/>
<path id="Vector_15" opacity="0.56" d="M142.398 155.809L4.16928 193.242L15.4879 175.595L142.398 155.809Z" fill="var(--fill-0, #FFFF7E)" fill-opacity="0.6"/>
<path id="Vector_16" opacity="0.56" d="M143.765 161.424L75.9631 276.181L67.4331 262.545L143.765 161.424Z" fill="var(--fill-0, #FFFF7E)" fill-opacity="0.6"/>
<path id="Vector_17" opacity="0.56" d="M150.381 163.777L203.967 277.893L190.844 289.925L150.381 163.777Z" fill="var(--fill-0, #FFFF7E)" fill-opacity="0.6"/>
<path id="Vector_18" opacity="0.56" d="M153.607 162.601L270.621 244.952L236.501 259.337L153.607 162.601Z" fill="var(--fill-0, #FFFF7E)" fill-opacity="0.6"/>
<path id="Vector_19" opacity="0.56" d="M146.335 163.082L135.946 296.769L106.146 282.973L146.335 163.082Z" fill="var(--fill-0, #FFFF7E)" fill-opacity="0.6"/>
<path id="Vector_20" opacity="0.56" d="M144.804 151.05L19.2606 120.142L10.2932 83.6716L144.804 151.05Z" fill="var(--fill-0, #FFFF7E)" fill-opacity="0.6"/>
<path id="Vector_21" opacity="0.56" d="M158.036 153.136L235.189 51.5331L275.651 59.6613L158.036 153.136Z" fill="var(--fill-0, #FFFF7E)" fill-opacity="0.6"/>
<path id="Vector_22" opacity="0.56" d="M150.326 148.965L136.055 23.1916L170.886 5.22401L150.326 148.965Z" fill="var(--fill-0, #FFFF7E)" fill-opacity="0.6"/>
<path id="Vector_23" opacity="0.56" d="M142.781 158.002L44.0851 239.872L11.6057 220.621L142.781 158.002Z" fill="var(--fill-0, #FFFF7E)" fill-opacity="0.6"/>
<path id="Vector_24" opacity="0.56" d="M172.417 165.061L286.86 166.13L295.937 201.637L172.417 165.061Z" fill="var(--fill-0, #FFFF7E)" fill-opacity="0.6"/>
<path id="Vector_25" opacity="0.56" d="M147.319 153.189L77.5486 71.8001L87.2268 64.581L147.319 153.189Z" fill="var(--fill-0, #FFFF7E)" fill-opacity="0.6"/>
<path id="Vector_26" opacity="0.56" d="M149.069 152.226L101.006 56.9341L112.161 52.1748L149.069 152.226Z" fill="var(--fill-0, #FFFF7E)" fill-opacity="0.6"/>
<path id="Vector_27" opacity="0.56" d="M150.983 151.799L126.432 43.7792L139.391 46.0786L150.983 151.799Z" fill="var(--fill-0, #FFFF7E)" fill-opacity="0.6"/>
<path id="Vector_28" opacity="0.56" d="M154.373 152.173L175.643 48.0038L187.399 50.8914L154.373 152.173Z" fill="var(--fill-0, #FFFF7E)" fill-opacity="0.6"/>
<path id="Vector_29" opacity="0.56" d="M155.631 153.349L203.967 58.2173L214.575 63.9926L155.631 153.349Z" fill="var(--fill-0, #FFFF7E)" fill-opacity="0.6"/>
<path id="Vector_30" opacity="0.56" d="M156.56 154.847L229.612 76.2385L238.251 84.6341L156.56 154.847Z" fill="var(--fill-0, #FFFF7E)" fill-opacity="0.6"/>
<path id="Vector_31" opacity="0.56" d="M157.107 157.734L258.209 118.965L262.091 130.195L157.107 157.734Z" fill="var(--fill-0, #FFFF7E)" fill-opacity="0.6"/>
<path id="Vector_32" opacity="0.56" d="M152.842 163.403L228.901 239.177L219.824 247.145L152.842 163.403Z" fill="var(--fill-0, #FFFF7E)" fill-opacity="0.6"/>
<path id="Vector_33" opacity="0.56" d="M147.264 162.975L136.602 268.642L124.573 266.93L147.264 162.975Z" fill="var(--fill-0, #FFFF7E)" fill-opacity="0.6"/>
<path id="Vector_34" opacity="0.56" d="M144.038 158.323L52.4505 215.381L46.3812 205.06L144.038 158.323Z" fill="var(--fill-0, #FFFF7E)" fill-opacity="0.6"/>
<path id="Vector_35" opacity="0.56" d="M144.148 155.97L37.6327 176.611L35.8283 164.847L144.148 155.97Z" fill="var(--fill-0, #FFFF7E)" fill-opacity="0.6"/>
<path id="Vector_36" opacity="0.56" d="M146.608 152.28L51.3572 101.158L57.7 91.0512L146.608 152.28Z" fill="var(--fill-0, #FFFF7E)" fill-opacity="0.6"/>
<path id="Vector_37" opacity="0.56" d="M145.569 153.189L41.4602 122.976L45.4518 111.746L145.569 153.189Z" fill="var(--fill-0, #FFFF7E)" fill-opacity="0.6"/>
<path id="Vector_38" opacity="0.56" d="M144.421 155.114L35.9925 160.943L26.3689 150.195L144.421 155.114Z" fill="var(--fill-0, #FFFF7E)" fill-opacity="0.6"/>
<path id="Vector_39" opacity="0.56" d="M144.804 160.462L79.0248 244.952L69.6747 237.359L144.804 160.462Z" fill="var(--fill-0, #FFFF7E)" fill-opacity="0.6"/>
<path id="Vector_40" opacity="0.56" d="M148.632 163.51L162.301 268.909L150.163 269.818L148.632 163.51Z" fill="var(--fill-0, #FFFF7E)" fill-opacity="0.6"/>
<path id="Vector_41" opacity="0.56" d="M154.318 161.799L250.171 211.798L243.937 222.012L154.318 161.799Z" fill="var(--fill-0, #FFFF7E)" fill-opacity="0.6"/>
<path id="Vector_42" opacity="0.56" d="M155.904 159.392L270.621 156.451L262.31 183.028L155.904 159.392Z" fill="var(--fill-0, #FFFF7E)" fill-opacity="0.6"/>
<path id="Vector_43" opacity="0.56" d="M151.202 163.349L215.176 258.214L186.962 264.203L151.202 163.349Z" fill="var(--fill-0, #FFFF7E)" fill-opacity="0.6"/>
<path id="Vector_44" opacity="0.56" d="M143.875 156.023L55.185 191.21L36.0472 172.44L143.875 156.023Z" fill="var(--fill-0, #FFFF7E)" fill-opacity="0.6"/>
<path id="Vector_45" opacity="0.56" d="M153.881 150.836L152.623 43.7793L179.635 47.0947L153.881 150.836Z" fill="var(--fill-0, #FFFF7E)" fill-opacity="0.6"/>
<path id="Vector_46" opacity="0.56" d="M146.554 151.852L59.3953 66.5595L93.1324 58.8057L146.554 151.852Z" fill="var(--fill-0, #FFFF7E)" fill-opacity="0.6"/>
<path id="Vector_47" opacity="0.56" d="M146.171 161.745L122.605 266.288H95.2104L146.171 161.745Z" fill="var(--fill-0, #FFFF7E)" fill-opacity="0.6"/>
<path id="Vector_48" opacity="0.56" d="M157.49 156.023L247.437 95.0617L259.74 118.751L157.49 156.023Z" fill="var(--fill-0, #FFFF7E)" fill-opacity="0.6"/>
</g>
<g id="Frame_2" style="mix-blend-mode:lighten" opacity="0.5" clip-path="url(#clip1_1827_35831)">
<path id="Vector_49" opacity="0.56" d="M158.353 140.351L186.775 53.5322L196.569 57.1161L158.353 140.351Z" fill="var(--fill-0, #FFFF7E)" fill-opacity="0.6"/>
<path id="Vector_50" opacity="0.56" d="M159.922 141.133L208.555 63.4082L217.191 69.1379L159.922 141.133Z" fill="var(--fill-0, #FFFF7E)" fill-opacity="0.6"/>
<path id="Vector_51" opacity="0.56" d="M161.125 142.319L227.259 78.1266L234.258 85.7022L161.125 142.319Z" fill="var(--fill-0, #FFFF7E)" fill-opacity="0.6"/>
<path id="Vector_52" opacity="0.56" d="M162.391 144.896L249.485 112.326L252.75 122.016L162.391 144.896Z" fill="var(--fill-0, #FFFF7E)" fill-opacity="0.6"/>
<path id="Vector_53" opacity="0.56" d="M162.102 146.323L254.918 137.148L255.487 147.344L162.102 146.323Z" fill="var(--fill-0, #FFFF7E)" fill-opacity="0.6"/>
<path id="Vector_54" opacity="0.56" d="M161.413 147.687L258.688 164.553L251.037 173.605L161.413 147.687Z" fill="var(--fill-0, #FFFF7E)" fill-opacity="0.6"/>
<path id="Vector_55" opacity="0.56" d="M159.543 149.365L234.765 203.496L218.439 202.578L159.543 149.365Z" fill="var(--fill-0, #FFFF7E)" fill-opacity="0.6"/>
<path id="Vector_56" opacity="0.56" d="M153.347 148.921L132.036 237.679L121.988 234.873L153.347 148.921Z" fill="var(--fill-0, #FFFF7E)" fill-opacity="0.6"/>
<path id="Vector_57" opacity="0.56" d="M151.142 144.799L56.5997 191.012L63.5108 176.219L151.142 144.799Z" fill="var(--fill-0, #FFFF7E)" fill-opacity="0.6"/>
<path id="Vector_58" opacity="0.56" d="M153.084 140.371L73.5378 103.596L72.255 90.8184L153.084 140.371Z" fill="var(--fill-0, #FFFF7E)" fill-opacity="0.6"/>
<path id="Vector_59" opacity="0.56" d="M154.904 139.38L90.6364 73.095L98.5165 66.4472L154.904 139.38Z" fill="var(--fill-0, #FFFF7E)" fill-opacity="0.6"/>
<path id="Vector_60" opacity="0.56" d="M158.75 139.42L152.92 48.3957L165.07 55.3699L158.75 139.42Z" fill="var(--fill-0, #FFFF7E)" fill-opacity="0.6"/>
<path id="Vector_61" opacity="0.56" d="M157.592 139.12L132.209 51.3012L140.264 36.5123L157.592 139.12Z" fill="var(--fill-0, #FFFF7E)" fill-opacity="0.6"/>
<path id="Vector_62" opacity="0.56" d="M155.666 139.161L101.479 64.7962L115.636 68.7334L155.666 139.161Z" fill="var(--fill-0, #FFFF7E)" fill-opacity="0.6"/>
<path id="Vector_63" opacity="0.56" d="M151.836 141.862L47.9952 132.872L60.2777 123.691L151.836 141.862Z" fill="var(--fill-0, #FFFF7E)" fill-opacity="0.6"/>
<path id="Vector_64" opacity="0.56" d="M151.312 146.022L75.3906 207.171L73.116 195.771L151.312 146.022Z" fill="var(--fill-0, #FFFF7E)" fill-opacity="0.6"/>
<path id="Vector_65" opacity="0.56" d="M155.208 149.271L162.122 240.235L150.066 245.148L155.208 149.271Z" fill="var(--fill-0, #FFFF7E)" fill-opacity="0.6"/>
<path id="Vector_66" opacity="0.56" d="M157.71 149.274L216.054 234.443L189.088 235.723L157.71 149.274Z" fill="var(--fill-0, #FFFF7E)" fill-opacity="0.6"/>
<path id="Vector_67" opacity="0.56" d="M152.633 147.789L110.905 236.121L94.1859 219.312L152.633 147.789Z" fill="var(--fill-0, #FFFF7E)" fill-opacity="0.6"/>
<path id="Vector_68" opacity="0.56" d="M154.709 139.225L77.2213 86.9169L80.5676 59.8788L154.709 139.225Z" fill="var(--fill-0, #FFFF7E)" fill-opacity="0.6"/>
<path id="Vector_69" opacity="0.56" d="M163.18 143.941L242.059 94.0684L267.509 109.68L163.18 143.941Z" fill="var(--fill-0, #FFFF7E)" fill-opacity="0.6"/>
<path id="Vector_70" opacity="0.56" d="M159.01 139.183L181.893 50.0878L210.271 46.5483L159.01 139.183Z" fill="var(--fill-0, #FFFF7E)" fill-opacity="0.6"/>
<path id="Vector_71" opacity="0.56" d="M151.529 143.449L63.0923 174.533L45.9628 153.346L151.529 143.449Z" fill="var(--fill-0, #FFFF7E)" fill-opacity="0.6"/>
<path id="Vector_72" opacity="0.56" d="M169.882 155.635L247.545 184.883L244.522 211.294L169.882 155.635Z" fill="var(--fill-0, #FFFF7E)" fill-opacity="0.6"/>
<path id="Vector_73" opacity="0.56" d="M155.867 141.307L129.448 68.566L137.911 66.0682L155.867 141.307Z" fill="var(--fill-0, #FFFF7E)" fill-opacity="0.6"/>
<path id="Vector_74" opacity="0.56" d="M157.308 141.088L149.276 64.3016L158.107 63.8447L157.308 141.088Z" fill="var(--fill-0, #FFFF7E)" fill-opacity="0.6"/>
<path id="Vector_75" opacity="0.56" d="M158.722 141.274L170.002 61.6917L178.231 66.4851L158.722 141.274Z" fill="var(--fill-0, #FFFF7E)" fill-opacity="0.6"/>
<path id="Vector_76" opacity="0.56" d="M160.934 142.374L202.421 76.8287L209.679 81.7224L160.934 142.374Z" fill="var(--fill-0, #FFFF7E)" fill-opacity="0.6"/>
<path id="Vector_77" opacity="0.56" d="M161.486 143.487L219.064 90.8336L224.791 97.405L161.486 143.487Z" fill="var(--fill-0, #FFFF7E)" fill-opacity="0.6"/>
<path id="Vector_78" opacity="0.56" d="M161.731 144.737L231.857 109.481L235.565 117.344L161.731 144.737Z" fill="var(--fill-0, #FFFF7E)" fill-opacity="0.6"/>
<path id="Vector_79" opacity="0.56" d="M161.355 146.837L240.258 145.666L239.991 154.271L161.355 146.837Z" fill="var(--fill-0, #FFFF7E)" fill-opacity="0.6"/>
<path id="Vector_80" opacity="0.56" d="M156.981 149.629L189.138 220.118L180.891 223.275L156.981 149.629Z" fill="var(--fill-0, #FFFF7E)" fill-opacity="0.6"/>
<path id="Vector_81" opacity="0.56" d="M153.293 147.948L118.642 217.155L110.893 212.993L153.293 147.948Z" fill="var(--fill-0, #FFFF7E)" fill-opacity="0.6"/>
<path id="Vector_82" opacity="0.56" d="M152.302 143.98L75.1384 159.96L73.6801 151.429L152.302 143.98Z" fill="var(--fill-0, #FFFF7E)" fill-opacity="0.6"/>
<path id="Vector_83" opacity="0.56" d="M152.986 142.407L75.0959 129.901L76.9165 121.45L152.986 142.407Z" fill="var(--fill-0, #FFFF7E)" fill-opacity="0.6"/>
<path id="Vector_84" opacity="0.56" d="M155.619 140.511L104.001 82.0054L110.94 76.7124L155.619 140.511Z" fill="var(--fill-0, #FFFF7E)" fill-opacity="0.6"/>
<path id="Vector_85" opacity="0.56" d="M154.676 140.87L91.6057 94.3768L97.235 87.7342L154.676 140.87Z" fill="var(--fill-0, #FFFF7E)" fill-opacity="0.6"/>
<path id="Vector_86" opacity="0.56" d="M153.394 141.894L78.0401 118.836L74.2723 109.128L153.394 141.894Z" fill="var(--fill-0, #FFFF7E)" fill-opacity="0.6"/>
<path id="Vector_87" opacity="0.56" d="M152.269 145.626L85.571 186.695L81.1715 179.2L152.269 145.626Z" fill="var(--fill-0, #FFFF7E)" fill-opacity="0.6"/>
<path id="Vector_88" opacity="0.56" d="M154.086 148.653L136.075 223.742L127.572 221.335L154.086 148.653Z" fill="var(--fill-0, #FFFF7E)" fill-opacity="0.6"/>
<path id="Vector_89" opacity="0.56" d="M158.402 148.906L210.721 206.798L203.828 212.191L158.402 148.906Z" fill="var(--fill-0, #FFFF7E)" fill-opacity="0.6"/>
<path id="Vector_90" opacity="0.56" d="M160.106 147.665L238.994 174.254L226.445 190.257L160.106 147.665Z" fill="var(--fill-0, #FFFF7E)" fill-opacity="0.6"/>
<path id="Vector_91" opacity="0.56" d="M155.877 149.184L174.856 229.645L154.089 226.687L155.877 149.184Z" fill="var(--fill-0, #FFFF7E)" fill-opacity="0.6"/>
<path id="Vector_92" opacity="0.56" d="M152.787 142.376L83.2656 144.203L75.0975 126.669L152.787 142.376Z" fill="var(--fill-0, #FFFF7E)" fill-opacity="0.6"/>
<path id="Vector_93" opacity="0.56" d="M160.946 141.341L187.839 68.2185L205.376 77.205L160.946 141.341Z" fill="var(--fill-0, #FFFF7E)" fill-opacity="0.6"/>
<path id="Vector_94" opacity="0.56" d="M155.692 140.207L118.443 60.478L143.429 63.6123L155.692 140.207Z" fill="var(--fill-0, #FFFF7E)" fill-opacity="0.6"/>
<path id="Vector_95" opacity="0.56" d="M152.867 146.839L109.719 212.067L91.0629 205.239L152.867 146.839Z" fill="var(--fill-0, #FFFF7E)" fill-opacity="0.6"/>
<path id="Vector_96" opacity="0.56" d="M162.059 145.769L239.118 126.725L241.356 145.902L162.059 145.769Z" fill="var(--fill-0, #FFFF7E)" fill-opacity="0.6"/>
</g>
</g>
</mask>
<g mask="url(#mask0_1827_35831)">
<g id="Ellipse 16">
<ellipse cx="150.469" cy="150.469" rx="150.469" ry="150.469" fill="url(#paint0_radial_1827_35831)" style="mix-blend-mode:hard-light"/>
</g>
</g>
</g>
<defs>
<radialGradient id="paint0_radial_1827_35831" cx="0" cy="0" r="1" gradientUnits="userSpaceOnUse" gradientTransform="translate(150.052 157.555) rotate(90) scale(127.961 127.961)">
<stop stop-color="#FFECA9" stop-opacity="0"/>
<stop offset="0.328125" stop-color="#FFECA9" stop-opacity="0.41"/>
<stop offset="0.5625" stop-color="#FFEDAC" stop-opacity="0.86"/>
<stop offset="0.760417" stop-color="#FFECA9" stop-opacity="0.49"/>
<stop offset="1" stop-color="#E9D694" stop-opacity="0"/>
</radialGradient>
<clipPath id="clip0_1827_35831">
<rect width="291.768" height="291.546" fill="white" transform="translate(4.16913 5.22385)"/>
</clipPath>
<clipPath id="clip1_1827_35831">
<rect width="211.59" height="212.194" fill="white" transform="matrix(0.939098 0.343649 -0.356142 0.934432 96.7313 5.00027)"/>
</clipPath>
</defs>
</svg>
