<svg preserveAspectRatio="none" width="100%" height="100%" overflow="visible" style="display: block;" viewBox="0 0 198.007 198.007" fill="none" xmlns="http://www.w3.org/2000/svg">
<g id="Mask Group">
<mask id="mask0_1827_35729" style="mask-type:alpha" maskUnits="userSpaceOnUse" x="2" y="3" width="193" height="193">
<g id="Group 21">
<g id="Frame" style="mix-blend-mode:lighten" clip-path="url(#clip0_1827_35729)">
<path id="Vector" opacity="0.56" d="M98.73 99.2098L94.7725 16.6665H104.234L98.73 99.2098Z" fill="var(--fill-0, #FFFF7E)" fill-opacity="0.6"/>
<path id="Vector_2" opacity="0.56" d="M100.313 99.3857L116.431 18.2849L125.605 20.4664L100.313 99.3857Z" fill="var(--fill-0, #FFFF7E)" fill-opacity="0.6"/>
<path id="Vector_3" opacity="0.56" d="M101.716 100.019L137.046 24.97L145.428 29.2274L101.716 100.019Z" fill="var(--fill-0, #FFFF7E)" fill-opacity="0.6"/>
<path id="Vector_4" opacity="0.56" d="M103.623 101.814L166.942 47.1013L172.843 54.3142L103.623 101.814Z" fill="var(--fill-0, #FFFF7E)" fill-opacity="0.6"/>
<path id="Vector_5" opacity="0.56" d="M103.839 103.115L179.57 66.4881L183.348 74.9676L103.839 103.115Z" fill="var(--fill-0, #FFFF7E)" fill-opacity="0.6"/>
<path id="Vector_6" opacity="0.56" d="M103.695 104.487L191.623 88.5839L188.061 98.6468L103.695 104.487Z" fill="var(--fill-0, #FFFF7E)" fill-opacity="0.6"/>
<path id="Vector_7" opacity="0.56" d="M102.652 106.493L183.924 129.081L169.785 133.374L102.652 106.493Z" fill="var(--fill-0, #FFFF7E)" fill-opacity="0.6"/>
<path id="Vector_8" opacity="0.56" d="M97.255 108.041L107.868 190.021L98.4422 190.76L97.255 108.041Z" fill="var(--fill-0, #FFFF7E)" fill-opacity="0.6"/>
<path id="Vector_9" opacity="0.56" d="M94.0531 105.226L28.8268 173.836L29.9061 159.129L94.0531 105.226Z" fill="var(--fill-0, #FFFF7E)" fill-opacity="0.6"/>
<path id="Vector_10" opacity="0.56" d="M94.2687 100.863L14.9394 94.3543L9.7227 83.9044L94.2687 100.863Z" fill="var(--fill-0, #FFFF7E)" fill-opacity="0.6"/>
<path id="Vector_11" opacity="0.56" d="M95.492 99.4561L19.5805 63.1455L24.1136 55.053L95.492 99.4561Z" fill="var(--fill-0, #FFFF7E)" fill-opacity="0.6"/>
<path id="Vector_12" opacity="0.56" d="M98.7658 98.295L64.4078 22.8239L76.9638 24.9702L98.7658 98.295Z" fill="var(--fill-0, #FFFF7E)" fill-opacity="0.6"/>
<path id="Vector_13" opacity="0.56" d="M97.6863 98.4007L47.7862 31.7257L49.8369 16.6667L97.6863 98.4007Z" fill="var(--fill-0, #FFFF7E)" fill-opacity="0.6"/>
<path id="Vector_14" opacity="0.56" d="M96.0676 99.0338L26.0923 52.7308L39.3678 51.6753L96.0676 99.0338Z" fill="var(--fill-0, #FFFF7E)" fill-opacity="0.6"/>
<path id="Vector_15" opacity="0.56" d="M93.6932 102.517L2.74325 127.146L10.1905 115.536L93.6932 102.517Z" fill="var(--fill-0, #FFFF7E)" fill-opacity="0.6"/>
<path id="Vector_16" opacity="0.56" d="M94.5927 106.211L49.9811 181.718L44.3687 172.746L94.5927 106.211Z" fill="var(--fill-0, #FFFF7E)" fill-opacity="0.6"/>
<path id="Vector_17" opacity="0.56" d="M98.9457 107.76L134.203 182.844L125.569 190.76L98.9457 107.76Z" fill="var(--fill-0, #FFFF7E)" fill-opacity="0.6"/>
<path id="Vector_18" opacity="0.56" d="M101.068 106.986L178.059 161.17L155.61 170.635L101.068 106.986Z" fill="var(--fill-0, #FFFF7E)" fill-opacity="0.6"/>
<path id="Vector_19" opacity="0.56" d="M96.2835 107.302L89.4479 195.264L69.8404 186.186L96.2835 107.302Z" fill="var(--fill-0, #FFFF7E)" fill-opacity="0.6"/>
<path id="Vector_20" opacity="0.56" d="M95.2761 99.3858L12.6728 79.049L6.77259 55.053L95.2761 99.3858Z" fill="var(--fill-0, #FFFF7E)" fill-opacity="0.6"/>
<path id="Vector_21" opacity="0.56" d="M103.983 100.758L154.746 33.907L181.369 39.255L103.983 100.758Z" fill="var(--fill-0, #FFFF7E)" fill-opacity="0.6"/>
<path id="Vector_22" opacity="0.56" d="M98.9097 98.0136L89.5197 15.2592L112.437 3.43716L98.9097 98.0136Z" fill="var(--fill-0, #FFFF7E)" fill-opacity="0.6"/>
<path id="Vector_23" opacity="0.56" d="M93.9452 103.96L29.0066 157.827L7.63629 145.161L93.9452 103.96Z" fill="var(--fill-0, #FFFF7E)" fill-opacity="0.6"/>
<path id="Vector_24" opacity="0.56" d="M113.444 108.604L188.744 109.308L194.716 132.671L113.444 108.604Z" fill="var(--fill-0, #FFFF7E)" fill-opacity="0.6"/>
<path id="Vector_25" opacity="0.56" d="M96.931 100.793L51.0243 47.242L57.3922 42.4921L96.931 100.793Z" fill="var(--fill-0, #FFFF7E)" fill-opacity="0.6"/>
<path id="Vector_26" opacity="0.56" d="M98.0824 100.16L66.4586 37.4607L73.7979 34.3292L98.0824 100.16Z" fill="var(--fill-0, #FFFF7E)" fill-opacity="0.6"/>
<path id="Vector_27" opacity="0.56" d="M99.3417 99.8783L83.188 28.8052L91.7146 30.3182L99.3417 99.8783Z" fill="var(--fill-0, #FFFF7E)" fill-opacity="0.6"/>
<path id="Vector_28" opacity="0.56" d="M101.572 100.125L115.567 31.5848L123.302 33.4848L101.572 100.125Z" fill="var(--fill-0, #FFFF7E)" fill-opacity="0.6"/>
<path id="Vector_29" opacity="0.56" d="M102.4 100.899L134.203 38.305L141.183 42.105L102.4 100.899Z" fill="var(--fill-0, #FFFF7E)" fill-opacity="0.6"/>
<path id="Vector_30" opacity="0.56" d="M103.011 101.884L151.077 50.1622L156.761 55.6862L103.011 101.884Z" fill="var(--fill-0, #FFFF7E)" fill-opacity="0.6"/>
<path id="Vector_31" opacity="0.56" d="M103.371 103.784L169.892 78.275L172.447 85.6638L103.371 103.784Z" fill="var(--fill-0, #FFFF7E)" fill-opacity="0.6"/>
<path id="Vector_32" opacity="0.56" d="M100.565 107.513L150.609 157.37L144.637 162.613L100.565 107.513Z" fill="var(--fill-0, #FFFF7E)" fill-opacity="0.6"/>
<path id="Vector_33" opacity="0.56" d="M96.8949 107.232L89.8794 176.757L81.9644 175.631L96.8949 107.232Z" fill="var(--fill-0, #FFFF7E)" fill-opacity="0.6"/>
<path id="Vector_34" opacity="0.56" d="M94.7723 104.171L34.5108 141.713L30.5173 134.922L94.7723 104.171Z" fill="var(--fill-0, #FFFF7E)" fill-opacity="0.6"/>
<path id="Vector_35" opacity="0.56" d="M94.8443 102.623L24.7611 116.204L23.5738 108.463L94.8443 102.623Z" fill="var(--fill-0, #FFFF7E)" fill-opacity="0.6"/>
<path id="Vector_36" opacity="0.56" d="M96.4635 100.195L33.7915 66.5583L37.9648 59.9084L96.4635 100.195Z" fill="var(--fill-0, #FFFF7E)" fill-opacity="0.6"/>
<path id="Vector_37" opacity="0.56" d="M95.7799 100.793L27.2796 80.9137L29.9059 73.5249L95.7799 100.793Z" fill="var(--fill-0, #FFFF7E)" fill-opacity="0.6"/>
<path id="Vector_38" opacity="0.56" d="M95.0245 102.06L23.682 105.895L17.35 98.8227L95.0245 102.06Z" fill="var(--fill-0, #FFFF7E)" fill-opacity="0.6"/>
<path id="Vector_39" opacity="0.56" d="M95.2762 105.578L51.9958 161.17L45.8437 156.174L95.2762 105.578Z" fill="var(--fill-0, #FFFF7E)" fill-opacity="0.6"/>
<path id="Vector_40" opacity="0.56" d="M97.7946 107.584L106.789 176.933L98.802 177.531L97.7946 107.584Z" fill="var(--fill-0, #FFFF7E)" fill-opacity="0.6"/>
<path id="Vector_41" opacity="0.56" d="M101.536 106.458L164.604 139.356L160.502 146.076L101.536 106.458Z" fill="var(--fill-0, #FFFF7E)" fill-opacity="0.6"/>
<path id="Vector_42" opacity="0.56" d="M102.579 104.875L178.059 102.939L172.591 120.426L102.579 104.875Z" fill="var(--fill-0, #FFFF7E)" fill-opacity="0.6"/>
<path id="Vector_43" opacity="0.56" d="M99.4854 107.478L141.579 169.896L123.014 173.837L99.4854 107.478Z" fill="var(--fill-0, #FFFF7E)" fill-opacity="0.6"/>
<path id="Vector_44" opacity="0.56" d="M94.6645 102.658L36.3098 125.809L23.7178 113.46L94.6645 102.658Z" fill="var(--fill-0, #FFFF7E)" fill-opacity="0.6"/>
<path id="Vector_45" opacity="0.56" d="M101.248 99.245L100.421 28.8053L118.194 30.9867L101.248 99.245Z" fill="var(--fill-0, #FFFF7E)" fill-opacity="0.6"/>
<path id="Vector_46" opacity="0.56" d="M96.4275 99.9134L39.0801 43.7939L61.2779 38.6921L96.4275 99.9134Z" fill="var(--fill-0, #FFFF7E)" fill-opacity="0.6"/>
<path id="Vector_47" opacity="0.56" d="M96.1758 106.423L80.6697 175.209H62.6452L96.1758 106.423Z" fill="var(--fill-0, #FFFF7E)" fill-opacity="0.6"/>
<path id="Vector_48" opacity="0.56" d="M103.623 102.658L162.805 62.5472L170.9 78.1341L103.623 102.658Z" fill="var(--fill-0, #FFFF7E)" fill-opacity="0.6"/>
</g>
<g id="Frame_2" style="mix-blend-mode:lighten" opacity="0.5" clip-path="url(#clip1_1827_35729)">
<path id="Vector_49" opacity="0.56" d="M104.19 92.3467L122.891 35.2226L129.335 37.5807L104.19 92.3467Z" fill="var(--fill-0, #FFFF7E)" fill-opacity="0.6"/>
<path id="Vector_50" opacity="0.56" d="M105.223 92.8606L137.222 41.7205L142.904 45.4905L105.223 92.8606Z" fill="var(--fill-0, #FFFF7E)" fill-opacity="0.6"/>
<path id="Vector_51" opacity="0.56" d="M106.014 93.6411L149.528 51.4047L154.133 56.3892L106.014 93.6411Z" fill="var(--fill-0, #FFFF7E)" fill-opacity="0.6"/>
<path id="Vector_52" opacity="0.56" d="M106.848 95.3367L164.152 73.9069L166.301 80.2828L106.848 95.3367Z" fill="var(--fill-0, #FFFF7E)" fill-opacity="0.6"/>
<path id="Vector_53" opacity="0.56" d="M106.657 96.276L167.727 90.2391L168.102 96.9474L106.657 96.276Z" fill="var(--fill-0, #FFFF7E)" fill-opacity="0.6"/>
<path id="Vector_54" opacity="0.56" d="M106.204 97.1733L170.208 108.27L165.174 114.226L106.204 97.1733Z" fill="var(--fill-0, #FFFF7E)" fill-opacity="0.6"/>
<path id="Vector_55" opacity="0.56" d="M104.973 98.2771L154.467 133.894L143.725 133.29L104.973 98.2771Z" fill="var(--fill-0, #FFFF7E)" fill-opacity="0.6"/>
<path id="Vector_56" opacity="0.56" d="M100.897 97.9852L86.8746 156.385L80.2637 154.539L100.897 97.9852Z" fill="var(--fill-0, #FFFF7E)" fill-opacity="0.6"/>
<path id="Vector_57" opacity="0.56" d="M99.4459 95.2728L37.2404 125.679L41.7876 115.946L99.4459 95.2728Z" fill="var(--fill-0, #FFFF7E)" fill-opacity="0.6"/>
<path id="Vector_58" opacity="0.56" d="M100.724 92.3594L48.385 68.1626L47.541 59.7556L100.724 92.3594Z" fill="var(--fill-0, #FFFF7E)" fill-opacity="0.6"/>
<path id="Vector_59" opacity="0.56" d="M101.921 91.7073L59.6353 48.0942L64.8201 43.7202L101.921 91.7073Z" fill="var(--fill-0, #FFFF7E)" fill-opacity="0.6"/>
<path id="Vector_60" opacity="0.56" d="M104.452 91.7335L100.616 31.8429L108.61 36.4317L104.452 91.7335Z" fill="var(--fill-0, #FFFF7E)" fill-opacity="0.6"/>
<path id="Vector_61" opacity="0.56" d="M103.69 91.5362L86.9888 33.7546L92.2888 24.024L103.69 91.5362Z" fill="var(--fill-0, #FFFF7E)" fill-opacity="0.6"/>
<path id="Vector_62" opacity="0.56" d="M102.423 91.5635L66.7695 42.6339L76.0842 45.2245L102.423 91.5635Z" fill="var(--fill-0, #FFFF7E)" fill-opacity="0.6"/>
<path id="Vector_63" opacity="0.56" d="M99.9028 93.3408L31.5789 87.4253L39.6604 81.3846L99.9028 93.3408Z" fill="var(--fill-0, #FFFF7E)" fill-opacity="0.6"/>
<path id="Vector_64" opacity="0.56" d="M99.5577 96.0775L49.604 136.312L48.1074 128.811L99.5577 96.0775Z" fill="var(--fill-0, #FFFF7E)" fill-opacity="0.6"/>
<path id="Vector_65" opacity="0.56" d="M102.121 98.2153L106.67 158.067L98.7377 161.299L102.121 98.2153Z" fill="var(--fill-0, #FFFF7E)" fill-opacity="0.6"/>
<path id="Vector_66" opacity="0.56" d="M103.768 98.2176L142.156 154.256L124.413 155.098L103.768 98.2176Z" fill="var(--fill-0, #FFFF7E)" fill-opacity="0.6"/>
<path id="Vector_67" opacity="0.56" d="M100.427 97.2405L72.9712 155.36L61.9709 144.3L100.427 97.2405Z" fill="var(--fill-0, #FFFF7E)" fill-opacity="0.6"/>
<path id="Vector_68" opacity="0.56" d="M101.793 91.6055L50.8086 57.1886L53.0103 39.3985L101.793 91.6055Z" fill="var(--fill-0, #FFFF7E)" fill-opacity="0.6"/>
<path id="Vector_69" opacity="0.56" d="M107.366 94.7084L159.266 61.8939L176.011 72.166L107.366 94.7084Z" fill="var(--fill-0, #FFFF7E)" fill-opacity="0.6"/>
<path id="Vector_70" opacity="0.56" d="M104.623 91.5778L119.679 32.9562L138.351 30.6274L104.623 91.5778Z" fill="var(--fill-0, #FFFF7E)" fill-opacity="0.6"/>
<path id="Vector_71" opacity="0.56" d="M99.7005 94.3846L41.5124 114.837L30.2417 100.896L99.7005 94.3846Z" fill="var(--fill-0, #FFFF7E)" fill-opacity="0.6"/>
<path id="Vector_72" opacity="0.56" d="M111.776 102.403L162.876 121.647L160.887 139.024L111.776 102.403Z" fill="var(--fill-0, #FFFF7E)" fill-opacity="0.6"/>
<path id="Vector_73" opacity="0.56" d="M102.555 92.975L85.1722 45.1142L90.7402 43.4707L102.555 92.975Z" fill="var(--fill-0, #FFFF7E)" fill-opacity="0.6"/>
<path id="Vector_74" opacity="0.56" d="M103.503 92.8313L98.2184 42.3084L104.028 42.0078L103.503 92.8313Z" fill="var(--fill-0, #FFFF7E)" fill-opacity="0.6"/>
<path id="Vector_75" opacity="0.56" d="M104.434 92.9538L111.855 40.5911L117.27 43.745L104.434 92.9538Z" fill="var(--fill-0, #FFFF7E)" fill-opacity="0.6"/>
<path id="Vector_76" opacity="0.56" d="M105.889 93.6771L133.186 50.5508L137.961 53.7707L105.889 93.6771Z" fill="var(--fill-0, #FFFF7E)" fill-opacity="0.6"/>
<path id="Vector_77" opacity="0.56" d="M106.252 94.4096L144.136 59.7656L147.904 64.0893L106.252 94.4096Z" fill="var(--fill-0, #FFFF7E)" fill-opacity="0.6"/>
<path id="Vector_78" opacity="0.56" d="M106.413 95.2322L152.554 72.0348L154.993 77.2083L106.413 95.2322Z" fill="var(--fill-0, #FFFF7E)" fill-opacity="0.6"/>
<path id="Vector_79" opacity="0.56" d="M106.165 96.6141L158.081 95.8434L157.905 101.505L106.165 96.6141Z" fill="var(--fill-0, #FFFF7E)" fill-opacity="0.6"/>
<path id="Vector_80" opacity="0.56" d="M103.287 98.4512L124.446 144.83L119.02 146.908L103.287 98.4512Z" fill="var(--fill-0, #FFFF7E)" fill-opacity="0.6"/>
<path id="Vector_81" opacity="0.56" d="M100.861 97.3452L78.0621 142.881L72.9636 140.143L100.861 97.3452Z" fill="var(--fill-0, #FFFF7E)" fill-opacity="0.6"/>
<path id="Vector_82" opacity="0.56" d="M100.209 94.7343L49.438 105.249L48.4786 99.6352L100.209 94.7343Z" fill="var(--fill-0, #FFFF7E)" fill-opacity="0.6"/>
<path id="Vector_83" opacity="0.56" d="M100.66 93.6993L49.4103 85.4703L50.6082 79.91L100.66 93.6993Z" fill="var(--fill-0, #FFFF7E)" fill-opacity="0.6"/>
<path id="Vector_84" opacity="0.56" d="M102.391 92.4519L68.4287 53.9569L72.9946 50.4743L102.391 92.4519Z" fill="var(--fill-0, #FFFF7E)" fill-opacity="0.6"/>
<path id="Vector_85" opacity="0.56" d="M101.771 92.6882L60.273 62.097L63.9768 57.7264L101.771 92.6882Z" fill="var(--fill-0, #FFFF7E)" fill-opacity="0.6"/>
<path id="Vector_86" opacity="0.56" d="M100.928 93.3614L51.3475 78.1902L48.8684 71.8024L100.928 93.3614Z" fill="var(--fill-0, #FFFF7E)" fill-opacity="0.6"/>
<path id="Vector_87" opacity="0.56" d="M100.188 95.8169L56.3026 122.839L53.4079 117.908L100.188 95.8169Z" fill="var(--fill-0, #FFFF7E)" fill-opacity="0.6"/>
<path id="Vector_88" opacity="0.56" d="M101.383 97.8086L89.5323 147.214L83.9379 145.631L101.383 97.8086Z" fill="var(--fill-0, #FFFF7E)" fill-opacity="0.6"/>
<path id="Vector_89" opacity="0.56" d="M104.223 97.9753L138.647 136.066L134.111 139.615L104.223 97.9753Z" fill="var(--fill-0, #FFFF7E)" fill-opacity="0.6"/>
<path id="Vector_90" opacity="0.56" d="M105.344 97.1586L157.249 114.653L148.992 125.183L105.344 97.1586Z" fill="var(--fill-0, #FFFF7E)" fill-opacity="0.6"/>
<path id="Vector_91" opacity="0.56" d="M102.562 98.1583L115.049 151.099L101.385 149.152L102.562 98.1583Z" fill="var(--fill-0, #FFFF7E)" fill-opacity="0.6"/>
<path id="Vector_92" opacity="0.56" d="M100.528 93.6785L54.7855 94.8811L49.4112 83.3439L100.528 93.6785Z" fill="var(--fill-0, #FFFF7E)" fill-opacity="0.6"/>
<path id="Vector_93" opacity="0.56" d="M105.897 92.998L123.592 44.8855L135.13 50.7983L105.897 92.998Z" fill="var(--fill-0, #FFFF7E)" fill-opacity="0.6"/>
<path id="Vector_94" opacity="0.56" d="M102.44 92.2514L77.9313 39.7926L94.3711 41.8548L102.44 92.2514Z" fill="var(--fill-0, #FFFF7E)" fill-opacity="0.6"/>
<path id="Vector_95" opacity="0.56" d="M100.581 96.6154L72.1912 139.533L59.916 135.041L100.581 96.6154Z" fill="var(--fill-0, #FFFF7E)" fill-opacity="0.6"/>
<path id="Vector_96" opacity="0.56" d="M106.629 95.911L157.331 83.3808L158.803 95.9987L106.629 95.911Z" fill="var(--fill-0, #FFFF7E)" fill-opacity="0.6"/>
</g>
</g>
</mask>
<g mask="url(#mask0_1827_35729)">
<g id="Ellipse 16">
<ellipse cx="99.0035" cy="99.0034" rx="99.0035" ry="99.0034" fill="url(#paint0_radial_1827_35729)" style="mix-blend-mode:hard-light"/>
</g>
</g>
</g>
<defs>
<radialGradient id="paint0_radial_1827_35729" cx="0" cy="0" r="1" gradientUnits="userSpaceOnUse" gradientTransform="translate(98.7292 103.666) rotate(90) scale(84.1941 84.1941)">
<stop stop-color="#FFECA9" stop-opacity="0"/>
<stop offset="0.328125" stop-color="#FFECA9" stop-opacity="0.41"/>
<stop offset="0.5625" stop-color="#FFEDAC" stop-opacity="0.86"/>
<stop offset="0.760417" stop-color="#FFECA9" stop-opacity="0.49"/>
<stop offset="1" stop-color="#E9D694" stop-opacity="0"/>
</radialGradient>
<clipPath id="clip0_1827_35729">
<rect width="191.974" height="191.827" fill="white" transform="translate(2.74321 3.43708)"/>
</clipPath>
<clipPath id="clip1_1827_35729">
<rect width="139.219" height="139.616" fill="white" transform="matrix(0.939098 0.343649 -0.356142 0.934432 63.6456 3.29021)"/>
</clipPath>
</defs>
</svg>
