<svg preserveAspectRatio="none" width="100%" height="100%" overflow="visible" style="display: block;" viewBox="0 0 50 50" fill="none" xmlns="http://www.w3.org/2000/svg">
<g id="Group">
<path id="Vector" d="M25 50C38.8071 50 50 38.8071 50 25C50 11.1929 38.8071 0 25 0C11.1929 0 0 11.1929 0 25C0 38.8071 11.1929 50 25 50Z" fill="var(--fill-0, black)" fill-opacity="0.8"/>
<path id="Vector_2" d="M25.6666 2V13C27.1999 13.1 28.6332 13.4333 29.9666 14.0333L35.1332 4.33333C32.2666 2.93333 29.0666 2.1 25.6666 2Z" fill="var(--fill-0, #11324B)"/>
<path id="Vector_3" d="M36.3332 4.96665L31.1332 14.7C32.6999 15.6333 34.0332 16.9333 35.0332 18.4333L44.5665 12.9333C42.5332 9.63332 39.6999 6.89998 36.3332 4.96665Z" fill="var(--fill-0, #11324B)"/>
<path id="Vector_4" d="M14.7333 4.4L19.9333 14.1C21.2999 13.4667 22.7666 13.0667 24.3666 13V2C20.8999 2.1 17.6333 2.96666 14.7333 4.4Z" fill="var(--fill-0, #11324B)"/>
<path id="Vector_5" d="M45.2333 14.0667L35.7 19.5667C36.4333 21 36.8667 22.6 36.9667 24.3H47.9667C47.9 20.6333 46.9 17.1333 45.2333 14.0667Z" fill="var(--fill-0, #FF8A11)"/>
<path id="Vector_6" d="M36.9667 25.6666C36.8667 27.3666 36.4333 28.9666 35.7 30.4L45.2333 35.9C46.9 32.8333 47.8667 29.3666 47.9667 25.6333H36.9667V25.6666Z" fill="var(--fill-0, #FF8A11)"/>
<path id="Vector_7" d="M4.76663 14.0667C3.09997 17.1333 2.09997 20.6333 1.99997 24.3333H13C13.1 22.6333 13.5333 21.0333 14.2666 19.6L4.76663 14.0667Z" fill="var(--fill-0, #8FEFFF)"/>
<path id="Vector_8" d="M14.9667 31.5667L5.43332 37.0667C6.43332 38.7 7.63332 40.1667 8.99999 41.5L16.3667 33.3333C15.8667 32.8 15.3667 32.2 14.9667 31.5667Z" fill="var(--fill-0, #8FEFFF)"/>
<path id="Vector_9" d="M35.0334 31.5667C34.6001 32.2 34.1334 32.8 33.6001 33.3333L41 41.5C42.3667 40.1667 43.5667 38.7 44.5667 37.0667L35.0334 31.5667Z" fill="var(--fill-0, #FF8A11)"/>
<path id="Vector_10" d="M13.0333 25.6667H1.99997C2.09997 29.3667 3.09997 32.8667 4.7333 35.9333L14.2666 30.4333C13.5666 28.9667 13.1 27.3667 13.0333 25.6667Z" fill="var(--fill-0, #8FEFFF)"/>
<path id="Vector_11" d="M13.5667 5.03335C10.2333 6.93335 7.43332 9.66669 5.43332 12.9L14.9667 18.4C15.9333 16.9 17.2333 15.6667 18.7333 14.7334L13.5667 5.03335Z" fill="var(--fill-0, #11324B)"/>
<circle id="Ellipse 10" cx="25" cy="25" r="14.2727" stroke="var(--stroke-0, #10110D)"/>
<path id="Vector_12" d="M24.8623 21.0514L19.8752 10.8001C19.6711 10.3805 19.1364 10.1958 18.7167 10.3999L17.8774 10.8082C17.4578 11.0124 17.2731 11.547 17.4772 11.9667L22.4644 22.218C21.4688 23.2954 21.1828 24.9173 21.8536 26.2961C22.7431 28.1245 24.9264 28.8788 26.7548 27.9892C28.5833 27.0997 29.3375 24.9164 28.448 23.088C27.7772 21.7092 26.2946 20.9477 24.8623 21.0514Z" fill="var(--fill-0, #8FEFFF)"/>
</g>
</svg>
